<svg xmlns="http://www.w3.org/2000/svg" width="720" height="720" viewBox="0 0 720 720"><rect width="720" height="720" fill="#f8fafc"/><text x="40" y="22" font-size="15" font-weight="700" fill="#0f172a">TIS Demo · Jeddah — 4 routes (workload)</text><rect x="40" y="28" width="640" height="608" fill="#ffffff" stroke="#e2e8f0"/><circle cx="263.1" cy="269.1" r="3.4" fill="#16a34a" fill-opacity="0.85"/><circle cx="530.1" cy="356.2" r="3.4" fill="#d97706" fill-opacity="0.85"/><circle cx="442.5" cy="203.0" r="3.4" fill="#16a34a" fill-opacity="0.85"/><circle cx="401.5" cy="330.3" r="3.4" fill="#16a34a" fill-opacity="0.85"/><circle cx="582.3" cy="320.9" r="3.4" fill="#d97706" fill-opacity="0.85"/><circle cx="89.4" cy="86.2" r="3.4" fill="#2563eb" fill-opacity="0.85"/><circle cx="391.6" cy="309.3" r="3.4" fill="#16a34a" fill-opacity="0.85"/><circle cx="607.6" cy="343.7" r="3.4" fill="#d97706" fill-opacity="0.85"/><circle cx="372.7" cy="335.6" r="3.4" fill="#16a34a" fill-opacity="0.85"/><circle cx="182.6" cy="252.4" r="3.4" fill="#2563eb" fill-opacity="0.85"/><circle cx="566.1" cy="350.5" r="3.4" fill="#d97706" fill-opacity="0.85"/><circle cx="286.8" cy="283.5" r="3.4" fill="#2563eb" fill-opacity="0.85"/><circle cx="557.7" cy="364.6" r="3.4" fill="#d97706" fill-opacity="0.85"/><circle cx="415.7" cy="463.2" r="3.4" fill="#dc2626" fill-opacity="0.85"/><circle cx="385.1" cy="403.3" r="3.4" fill="#dc2626" fill-opacity="0.85"/><circle cx="476.6" cy="207.3" r="3.4" fill="#d97706" fill-opacity="0.85"/><circle cx="498.1" cy="355.5" r="3.4" fill="#16a34a" fill-opacity="0.85"/><circle cx="484.2" cy="428.5" r="3.4" fill="#d97706" fill-opacity="0.85"/><circle cx="481.7" cy="442.7" r="3.4" fill="#dc2626" fill-opacity="0.85"/><circle cx="495.9" cy="433.9" r="3.4" fill="#d97706" fill-opacity="0.85"/><circle cx="422.0" cy="451.3" r="3.4" fill="#dc2626" fill-opacity="0.85"/><circle cx="334.0" cy="380.4" r="3.4" fill="#2563eb" fill-opacity="0.85"/><circle cx="419.5" cy="217.9" r="3.4" fill="#16a34a" fill-opacity="0.85"/><circle cx="433.6" cy="464.7" r="3.4" fill="#dc2626" fill-opacity="0.85"/><circle cx="84.8" cy="89.9" r="3.4" fill="#2563eb" fill-opacity="0.85"/><circle cx="414.7" cy="462.2" r="3.4" fill="#dc2626" fill-opacity="0.85"/><circle cx="479.6" cy="423.1" r="3.4" fill="#d97706" fill-opacity="0.85"/><circle cx="159.0" cy="92.2" r="3.4" fill="#2563eb" fill-opacity="0.85"/><circle cx="353.6" cy="356.3" r="3.4" fill="#16a34a" fill-opacity="0.85"/><circle cx="218.3" cy="273.5" r="3.4" fill="#16a34a" fill-opacity="0.85"/><circle cx="584.4" cy="318.4" r="3.4" fill="#d97706" fill-opacity="0.85"/><circle cx="131.0" cy="85.5" r="3.4" fill="#2563eb" fill-opacity="0.85"/><circle cx="316.3" cy="285.5" r="3.4" fill="#2563eb" fill-opacity="0.85"/><circle cx="331.7" cy="393.6" r="3.4" fill="#2563eb" fill-opacity="0.85"/><circle cx="140.6" cy="107.8" r="3.4" fill="#2563eb" fill-opacity="0.85"/><circle cx="390.3" cy="401.9" r="3.4" fill="#d97706" fill-opacity="0.85"/><circle cx="325.2" cy="384.6" r="3.4" fill="#2563eb" fill-opacity="0.85"/><circle cx="350.7" cy="389.3" r="3.4" fill="#2563eb" fill-opacity="0.85"/><circle cx="392.7" cy="411.9" r="3.4" fill="#dc2626" fill-opacity="0.85"/><circle cx="543.7" cy="373.0" r="3.4" fill="#d97706" fill-opacity="0.85"/><circle cx="233.7" cy="265.4" r="3.4" fill="#2563eb" fill-opacity="0.85"/><circle cx="460.9" cy="655.0" r="3.4" fill="#dc2626" fill-opacity="0.85"/><circle cx="419.3" cy="450.0" r="3.4" fill="#dc2626" fill-opacity="0.85"/><circle cx="510.7" cy="448.0" r="3.4" fill="#dc2626" fill-opacity="0.85"/><circle cx="267.1" cy="257.2" r="3.4" fill="#16a34a" fill-opacity="0.85"/><circle cx="444.9" cy="411.9" r="3.4" fill="#d97706" fill-opacity="0.85"/><circle cx="508.2" cy="421.7" r="3.4" fill="#d97706" fill-opacity="0.85"/><circle cx="439.7" cy="448.8" r="3.4" fill="#dc2626" fill-opacity="0.85"/><circle cx="92.7" cy="98.9" r="3.4" fill="#2563eb" fill-opacity="0.85"/><circle cx="338.8" cy="365.2" r="3.4" fill="#2563eb" fill-opacity="0.85"/><circle cx="561.0" cy="448.6" r="3.4" fill="#d97706" fill-opacity="0.85"/><circle cx="442.2" cy="617.0" r="3.4" fill="#dc2626" fill-opacity="0.85"/><circle cx="86.5" cy="84.2" r="3.4" fill="#2563eb" fill-opacity="0.85"/><circle cx="121.0" cy="262.8" r="3.4" fill="#2563eb" fill-opacity="0.85"/><circle cx="519.9" cy="427.4" r="3.4" fill="#d97706" fill-opacity="0.85"/><circle cx="620.9" cy="303.4" r="3.4" fill="#d97706" fill-opacity="0.85"/><circle cx="469.2" cy="651.6" r="3.4" fill="#dc2626" fill-opacity="0.85"/><circle cx="395.7" cy="418.0" r="3.4" fill="#dc2626" fill-opacity="0.85"/><circle cx="403.3" cy="237.3" r="3.4" fill="#16a34a" fill-opacity="0.85"/><circle cx="336.9" cy="382.8" r="3.4" fill="#2563eb" fill-opacity="0.85"/><circle cx="537.0" cy="627.9" r="3.4" fill="#dc2626" fill-opacity="0.85"/><circle cx="156.8" cy="83.6" r="3.4" fill="#2563eb" fill-opacity="0.85"/><circle cx="152.4" cy="243.1" r="3.4" fill="#2563eb" fill-opacity="0.85"/><circle cx="356.2" cy="269.7" r="3.4" fill="#2563eb" fill-opacity="0.85"/><circle cx="424.8" cy="631.9" r="3.4" fill="#dc2626" fill-opacity="0.85"/><circle cx="40.0" cy="67.5" r="3.4" fill="#2563eb" fill-opacity="0.85"/><circle cx="602.4" cy="314.6" r="3.4" fill="#d97706" fill-opacity="0.85"/><circle cx="521.5" cy="374.2" r="3.4" fill="#d97706" fill-opacity="0.85"/><circle cx="631.1" cy="311.9" r="3.4" fill="#d97706" fill-opacity="0.85"/><circle cx="309.1" cy="293.1" r="3.4" fill="#16a34a" fill-opacity="0.85"/><circle cx="134.7" cy="88.8" r="3.4" fill="#2563eb" fill-opacity="0.85"/><circle cx="327.8" cy="302.4" r="3.4" fill="#16a34a" fill-opacity="0.85"/><circle cx="317.3" cy="289.7" r="3.4" fill="#16a34a" fill-opacity="0.85"/><circle cx="325.8" cy="365.8" r="3.4" fill="#2563eb" fill-opacity="0.85"/><circle cx="308.0" cy="294.0" r="3.4" fill="#16a34a" fill-opacity="0.85"/><circle cx="427.1" cy="420.8" r="3.4" fill="#dc2626" fill-opacity="0.85"/><circle cx="458.1" cy="657.7" r="3.4" fill="#dc2626" fill-opacity="0.85"/><circle cx="449.7" cy="455.9" r="3.4" fill="#dc2626" fill-opacity="0.85"/><circle cx="142.3" cy="68.8" r="3.4" fill="#2563eb" fill-opacity="0.85"/><circle cx="341.0" cy="276.0" r="3.4" fill="#2563eb" fill-opacity="0.85"/><circle cx="497.3" cy="448.0" r="3.4" fill="#dc2626" fill-opacity="0.85"/><circle cx="593.5" cy="309.6" r="3.4" fill="#d97706" fill-opacity="0.85"/><circle cx="115.5" cy="79.9" r="3.4" fill="#2563eb" fill-opacity="0.85"/><circle cx="214.9" cy="258.0" r="3.4" fill="#16a34a" fill-opacity="0.85"/><circle cx="357.8" cy="422.5" r="3.4" fill="#2563eb" fill-opacity="0.85"/><circle cx="542.0" cy="356.9" r="3.4" fill="#d97706" fill-opacity="0.85"/><circle cx="407.8" cy="451.8" r="3.4" fill="#dc2626" fill-opacity="0.85"/><circle cx="315.6" cy="367.3" r="3.4" fill="#2563eb" fill-opacity="0.85"/><circle cx="422.3" cy="458.8" r="3.4" fill="#dc2626" fill-opacity="0.85"/><circle cx="368.5" cy="407.0" r="3.4" fill="#dc2626" fill-opacity="0.85"/><circle cx="527.0" cy="411.0" r="3.4" fill="#d97706" fill-opacity="0.85"/><circle cx="315.5" cy="375.1" r="3.4" fill="#2563eb" fill-opacity="0.85"/><circle cx="416.6" cy="405.5" r="3.4" fill="#dc2626" fill-opacity="0.85"/><circle cx="441.1" cy="450.6" r="3.4" fill="#dc2626" fill-opacity="0.85"/><circle cx="335.4" cy="398.1" r="3.4" fill="#2563eb" fill-opacity="0.85"/><circle cx="413.4" cy="442.5" r="3.4" fill="#dc2626" fill-opacity="0.85"/><circle cx="440.5" cy="445.5" r="3.4" fill="#dc2626" fill-opacity="0.85"/><circle cx="644.6" cy="309.3" r="3.4" fill="#d97706" fill-opacity="0.85"/><circle cx="465.5" cy="226.4" r="3.4" fill="#16a34a" fill-opacity="0.85"/><circle cx="309.1" cy="294.5" r="3.4" fill="#16a34a" fill-opacity="0.85"/><circle cx="408.6" cy="310.8" r="3.4" fill="#16a34a" fill-opacity="0.85"/><circle cx="492.1" cy="444.4" r="3.4" fill="#dc2626" fill-opacity="0.85"/><circle cx="521.1" cy="653.7" r="3.4" fill="#dc2626" fill-opacity="0.85"/><circle cx="154.7" cy="272.8" r="3.4" fill="#2563eb" fill-opacity="0.85"/><circle cx="323.5" cy="289.5" r="3.4" fill="#16a34a" fill-opacity="0.85"/><circle cx="404.0" cy="213.9" r="3.4" fill="#16a34a" fill-opacity="0.85"/><circle cx="658.8" cy="333.6" r="3.4" fill="#d97706" fill-opacity="0.85"/><circle cx="473.4" cy="640.0" r="3.4" fill="#dc2626" fill-opacity="0.85"/><circle cx="597.8" cy="323.2" r="3.4" fill="#d97706" fill-opacity="0.85"/><circle cx="548.7" cy="374.6" r="3.4" fill="#d97706" fill-opacity="0.85"/><circle cx="354.7" cy="394.0" r="3.4" fill="#2563eb" fill-opacity="0.85"/><circle cx="564.8" cy="314.1" r="3.4" fill="#d97706" fill-opacity="0.85"/><circle cx="360.4" cy="309.7" r="3.4" fill="#16a34a" fill-opacity="0.85"/><circle cx="438.1" cy="450.9" r="3.4" fill="#dc2626" fill-opacity="0.85"/><circle cx="535.8" cy="360.7" r="3.4" fill="#d97706" fill-opacity="0.85"/><circle cx="417.6" cy="218.3" r="3.4" fill="#16a34a" fill-opacity="0.85"/><circle cx="307.4" cy="315.0" r="3.4" fill="#16a34a" fill-opacity="0.85"/><circle cx="351.2" cy="372.5" r="3.4" fill="#2563eb" fill-opacity="0.85"/><circle cx="516.6" cy="381.0" r="3.4" fill="#d97706" fill-opacity="0.85"/><circle cx="506.9" cy="452.6" r="3.4" fill="#dc2626" fill-opacity="0.85"/><circle cx="494.1" cy="440.7" r="3.4" fill="#dc2626" fill-opacity="0.85"/><circle cx="471.6" cy="640.6" r="3.4" fill="#dc2626" fill-opacity="0.85"/><circle cx="300.6" cy="323.8" r="3.4" fill="#16a34a" fill-opacity="0.85"/><circle cx="517.5" cy="435.6" r="3.4" fill="#d97706" fill-opacity="0.85"/><circle cx="325.7" cy="300.4" r="3.4" fill="#16a34a" fill-opacity="0.85"/><circle cx="92.9" cy="249.2" r="3.4" fill="#2563eb" fill-opacity="0.85"/><circle cx="365.9" cy="307.3" r="3.4" fill="#16a34a" fill-opacity="0.85"/><circle cx="249.6" cy="259.2" r="3.4" fill="#16a34a" fill-opacity="0.85"/><circle cx="305.5" cy="369.5" r="3.4" fill="#2563eb" fill-opacity="0.85"/><circle cx="365.7" cy="300.8" r="3.4" fill="#16a34a" fill-opacity="0.85"/><circle cx="227.3" cy="287.5" r="3.4" fill="#16a34a" fill-opacity="0.85"/><circle cx="219.9" cy="246.6" r="3.4" fill="#2563eb" fill-opacity="0.85"/><circle cx="401.6" cy="302.9" r="3.4" fill="#16a34a" fill-opacity="0.85"/><circle cx="582.2" cy="340.6" r="3.4" fill="#d97706" fill-opacity="0.85"/><circle cx="237.6" cy="261.1" r="3.4" fill="#2563eb" fill-opacity="0.85"/><circle cx="373.4" cy="200.0" r="3.4" fill="#16a34a" fill-opacity="0.85"/><circle cx="573.9" cy="317.3" r="3.4" fill="#d97706" fill-opacity="0.85"/><circle cx="428.5" cy="191.8" r="3.4" fill="#16a34a" fill-opacity="0.85"/><circle cx="409.5" cy="207.0" r="3.4" fill="#16a34a" fill-opacity="0.85"/><circle cx="406.2" cy="226.2" r="3.4" fill="#16a34a" fill-opacity="0.85"/><circle cx="421.3" cy="410.0" r="3.4" fill="#dc2626" fill-opacity="0.85"/><circle cx="645.4" cy="312.3" r="3.4" fill="#d97706" fill-opacity="0.85"/><circle cx="243.5" cy="277.7" r="3.4" fill="#16a34a" fill-opacity="0.85"/><circle cx="331.4" cy="281.0" r="3.4" fill="#2563eb" fill-opacity="0.85"/><circle cx="442.0" cy="634.4" r="3.4" fill="#dc2626" fill-opacity="0.85"/><circle cx="557.3" cy="425.1" r="3.4" fill="#d97706" fill-opacity="0.85"/><circle cx="586.2" cy="320.7" r="3.4" fill="#d97706" fill-opacity="0.85"/><circle cx="441.5" cy="400.6" r="3.4" fill="#d97706" fill-opacity="0.85"/><circle cx="455.4" cy="227.8" r="3.4" fill="#16a34a" fill-opacity="0.85"/><circle cx="247.4" cy="269.9" r="3.4" fill="#16a34a" fill-opacity="0.85"/><circle cx="82.0" cy="266.1" r="3.4" fill="#2563eb" fill-opacity="0.85"/><circle cx="497.0" cy="622.9" r="3.4" fill="#dc2626" fill-opacity="0.85"/><circle cx="134.8" cy="69.7" r="3.4" fill="#2563eb" fill-opacity="0.85"/><circle cx="352.1" cy="321.0" r="3.4" fill="#16a34a" fill-opacity="0.85"/><circle cx="512.4" cy="342.1" r="3.4" fill="#16a34a" fill-opacity="0.85"/><circle cx="223.5" cy="255.7" r="3.4" fill="#16a34a" fill-opacity="0.85"/><circle cx="135.6" cy="99.9" r="3.4" fill="#2563eb" fill-opacity="0.85"/><circle cx="349.3" cy="294.4" r="3.4" fill="#16a34a" fill-opacity="0.85"/><circle cx="366.9" cy="271.3" r="3.4" fill="#16a34a" fill-opacity="0.85"/><circle cx="118.5" cy="92.0" r="3.4" fill="#2563eb" fill-opacity="0.85"/><circle cx="680.0" cy="348.6" r="3.4" fill="#d97706" fill-opacity="0.85"/><circle cx="614.3" cy="299.7" r="3.4" fill="#d97706" fill-opacity="0.85"/><circle cx="559.7" cy="351.2" r="3.4" fill="#d97706" fill-opacity="0.85"/><circle cx="431.8" cy="444.9" r="3.4" fill="#dc2626" fill-opacity="0.85"/><circle cx="87.0" cy="118.0" r="3.4" fill="#2563eb" fill-opacity="0.85"/><circle cx="450.0" cy="418.7" r="3.4" fill="#d97706" fill-opacity="0.85"/><circle cx="559.9" cy="643.2" r="3.4" fill="#dc2626" fill-opacity="0.85"/><circle cx="497.8" cy="431.5" r="3.4" fill="#d97706" fill-opacity="0.85"/><circle cx="418.8" cy="465.1" r="3.4" fill="#dc2626" fill-opacity="0.85"/><circle cx="334.8" cy="322.4" r="3.4" fill="#16a34a" fill-opacity="0.85"/><circle cx="408.4" cy="405.0" r="3.4" fill="#dc2626" fill-opacity="0.85"/><circle cx="130.6" cy="278.6" r="3.4" fill="#2563eb" fill-opacity="0.85"/><circle cx="347.8" cy="232.4" r="3.4" fill="#2563eb" fill-opacity="0.85"/><circle cx="326.0" cy="329.9" r="3.4" fill="#16a34a" fill-opacity="0.85"/><circle cx="437.9" cy="447.7" r="3.4" fill="#dc2626" fill-opacity="0.85"/><circle cx="408.7" cy="319.2" r="3.4" fill="#16a34a" fill-opacity="0.85"/><circle cx="561.0" cy="316.0" r="3.4" fill="#d97706" fill-opacity="0.85"/><circle cx="501.2" cy="234.1" r="3.4" fill="#16a34a" fill-opacity="0.85"/><circle cx="349.4" cy="279.8" r="3.4" fill="#2563eb" fill-opacity="0.85"/><circle cx="507.4" cy="351.4" r="3.4" fill="#16a34a" fill-opacity="0.85"/><circle cx="184.9" cy="254.1" r="3.4" fill="#2563eb" fill-opacity="0.85"/><circle cx="238.6" cy="239.1" r="3.4" fill="#2563eb" fill-opacity="0.85"/><circle cx="147.4" cy="262.0" r="3.4" fill="#2563eb" fill-opacity="0.85"/><circle cx="502.4" cy="612.1" r="3.4" fill="#dc2626" fill-opacity="0.85"/><circle cx="338.5" cy="393.4" r="3.4" fill="#2563eb" fill-opacity="0.85"/><circle cx="285.5" cy="314.7" r="3.4" fill="#16a34a" fill-opacity="0.85"/><circle cx="226.3" cy="265.2" r="3.4" fill="#2563eb" fill-opacity="0.85"/><circle cx="514.8" cy="353.5" r="3.4" fill="#16a34a" fill-opacity="0.85"/><circle cx="315.2" cy="307.0" r="3.4" fill="#16a34a" fill-opacity="0.85"/><circle cx="321.7" cy="282.3" r="3.4" fill="#2563eb" fill-opacity="0.85"/><circle cx="370.1" cy="393.3" r="3.4" fill="#d97706" fill-opacity="0.85"/><circle cx="469.8" cy="440.1" r="3.4" fill="#dc2626" fill-opacity="0.85"/><circle cx="406.7" cy="418.8" r="3.4" fill="#dc2626" fill-opacity="0.85"/><circle cx="561.9" cy="370.5" r="3.4" fill="#d97706" fill-opacity="0.85"/><circle cx="374.6" cy="238.4" r="3.4" fill="#16a34a" fill-opacity="0.85"/><circle cx="429.0" cy="209.0" r="3.4" fill="#16a34a" fill-opacity="0.85"/><circle cx="507.7" cy="661.6" r="3.4" fill="#dc2626" fill-opacity="0.85"/><circle cx="81.8" cy="81.0" r="3.4" fill="#2563eb" fill-opacity="0.85"/><circle cx="566.8" cy="374.1" r="3.4" fill="#d97706" fill-opacity="0.85"/><circle cx="555.4" cy="365.5" r="3.4" fill="#d97706" fill-opacity="0.85"/><circle cx="434.4" cy="451.6" r="3.4" fill="#dc2626" fill-opacity="0.85"/><circle cx="419.3" cy="664.0" r="3.4" fill="#dc2626" fill-opacity="0.85"/><circle cx="415.7" cy="449.1" r="3.4" fill="#dc2626" fill-opacity="0.85"/><circle cx="274.7" cy="277.0" r="3.4" fill="#16a34a" fill-opacity="0.85"/><circle cx="399.1" cy="281.0" r="3.4" fill="#16a34a" fill-opacity="0.85"/><circle cx="419.1" cy="473.6" r="3.4" fill="#dc2626" fill-opacity="0.85"/><circle cx="485.1" cy="635.0" r="3.4" fill="#dc2626" fill-opacity="0.85"/><circle cx="423.5" cy="336.6" r="3.4" fill="#16a34a" fill-opacity="0.85"/><circle cx="380.7" cy="394.5" r="3.4" fill="#d97706" fill-opacity="0.85"/><circle cx="414.3" cy="456.7" r="3.4" fill="#dc2626" fill-opacity="0.85"/><circle cx="535.8" cy="430.5" r="3.4" fill="#d97706" fill-opacity="0.85"/><circle cx="430.9" cy="460.5" r="3.4" fill="#dc2626" fill-opacity="0.85"/><circle cx="238.5" cy="259.9" r="3.4" fill="#2563eb" fill-opacity="0.85"/><circle cx="286.7" cy="268.6" r="3.4" fill="#2563eb" fill-opacity="0.85"/><circle cx="468.6" cy="204.2" r="3.4" fill="#d97706" fill-opacity="0.85"/><circle cx="438.6" cy="472.6" r="3.4" fill="#dc2626" fill-opacity="0.85"/><circle cx="617.4" cy="316.4" r="3.4" fill="#d97706" fill-opacity="0.85"/><circle cx="80.7" cy="239.8" r="3.4" fill="#2563eb" fill-opacity="0.85"/><circle cx="408.5" cy="214.8" r="3.4" fill="#16a34a" fill-opacity="0.85"/><circle cx="411.2" cy="402.3" r="3.4" fill="#dc2626" fill-opacity="0.85"/><circle cx="443.6" cy="412.8" r="3.4" fill="#d97706" fill-opacity="0.85"/><circle cx="599.4" cy="319.8" r="3.4" fill="#d97706" fill-opacity="0.85"/><circle cx="465.0" cy="221.5" r="3.4" fill="#16a34a" fill-opacity="0.85"/><circle cx="574.3" cy="309.2" r="3.4" fill="#d97706" fill-opacity="0.85"/><circle cx="409.7" cy="201.5" r="3.4" fill="#16a34a" fill-opacity="0.85"/><circle cx="507.6" cy="641.2" r="3.4" fill="#dc2626" fill-opacity="0.85"/><circle cx="348.2" cy="382.5" r="3.4" fill="#2563eb" fill-opacity="0.85"/><circle cx="232.8" cy="275.3" r="3.4" fill="#16a34a" fill-opacity="0.85"/><circle cx="53.3" cy="78.9" r="3.4" fill="#2563eb" fill-opacity="0.85"/><circle cx="396.6" cy="396.7" r="3.4" fill="#d97706" fill-opacity="0.85"/><circle cx="424.8" cy="411.5" r="3.4" fill="#dc2626" fill-opacity="0.85"/><circle cx="368.8" cy="408.5" r="3.4" fill="#dc2626" fill-opacity="0.85"/><circle cx="536.6" cy="422.9" r="3.4" fill="#d97706" fill-opacity="0.85"/><circle cx="423.8" cy="459.4" r="3.4" fill="#dc2626" fill-opacity="0.85"/><circle cx="373.8" cy="315.4" r="3.4" fill="#16a34a" fill-opacity="0.85"/><circle cx="466.0" cy="419.1" r="3.4" fill="#d97706" fill-opacity="0.85"/><circle cx="489.2" cy="644.9" r="3.4" fill="#dc2626" fill-opacity="0.85"/><circle cx="259.7" cy="292.0" r="3.4" fill="#16a34a" fill-opacity="0.85"/><circle cx="446.1" cy="463.7" r="3.4" fill="#dc2626" fill-opacity="0.85"/><circle cx="285.1" cy="271.5" r="3.4" fill="#2563eb" fill-opacity="0.85"/><circle cx="331.7" cy="383.9" r="3.4" fill="#2563eb" fill-opacity="0.85"/><circle cx="445.8" cy="228.2" r="3.4" fill="#16a34a" fill-opacity="0.85"/><circle cx="457.7" cy="452.8" r="3.4" fill="#dc2626" fill-opacity="0.85"/><circle cx="387.1" cy="405.4" r="3.4" fill="#dc2626" fill-opacity="0.85"/><circle cx="366.9" cy="295.0" r="3.4" fill="#16a34a" fill-opacity="0.85"/><circle cx="478.9" cy="416.5" r="3.4" fill="#d97706" fill-opacity="0.85"/><circle cx="541.5" cy="362.8" r="3.4" fill="#d97706" fill-opacity="0.85"/><circle cx="376.6" cy="406.5" r="3.4" fill="#dc2626" fill-opacity="0.85"/><circle cx="487.2" cy="333.8" r="3.4" fill="#16a34a" fill-opacity="0.85"/><circle cx="481.8" cy="607.2" r="3.4" fill="#dc2626" fill-opacity="0.85"/><circle cx="296.3" cy="320.3" r="3.4" fill="#16a34a" fill-opacity="0.85"/><circle cx="588.7" cy="298.7" r="3.4" fill="#d97706" fill-opacity="0.85"/><circle cx="430.1" cy="226.1" r="3.4" fill="#16a34a" fill-opacity="0.85"/><circle cx="373.3" cy="327.4" r="3.4" fill="#16a34a" fill-opacity="0.85"/><circle cx="418.8" cy="447.2" r="3.4" fill="#dc2626" fill-opacity="0.85"/><circle cx="473.2" cy="434.2" r="3.4" fill="#d97706" fill-opacity="0.85"/><circle cx="330.9" cy="305.9" r="3.4" fill="#16a34a" fill-opacity="0.85"/><circle cx="389.0" cy="392.7" r="3.4" fill="#d97706" fill-opacity="0.85"/><circle cx="495.4" cy="639.9" r="3.4" fill="#dc2626" fill-opacity="0.85"/><circle cx="76.1" cy="81.9" r="3.4" fill="#2563eb" fill-opacity="0.85"/><circle cx="111.1" cy="88.6" r="3.4" fill="#2563eb" fill-opacity="0.85"/><circle cx="452.3" cy="205.9" r="3.4" fill="#d97706" fill-opacity="0.85"/><circle cx="521.9" cy="371.7" r="3.4" fill="#d97706" fill-opacity="0.85"/><circle cx="321.5" cy="370.5" r="3.4" fill="#2563eb" fill-opacity="0.85"/><circle cx="203.8" cy="284.3" r="3.4" fill="#16a34a" fill-opacity="0.85"/><circle cx="544.3" cy="358.9" r="3.4" fill="#d97706" fill-opacity="0.85"/><circle cx="363.0" cy="414.3" r="3.4" fill="#dc2626" fill-opacity="0.85"/><circle cx="350.1" cy="299.5" r="3.4" fill="#16a34a" fill-opacity="0.85"/><circle cx="385.8" cy="417.8" r="3.4" fill="#dc2626" fill-opacity="0.85"/><circle cx="56.4" cy="73.8" r="3.4" fill="#2563eb" fill-opacity="0.85"/><circle cx="558.5" cy="344.5" r="3.4" fill="#d97706" fill-opacity="0.85"/><circle cx="431.9" cy="453.1" r="3.4" fill="#dc2626" fill-opacity="0.85"/><circle cx="319.3" cy="368.7" r="3.4" fill="#2563eb" fill-opacity="0.85"/><circle cx="316.3" cy="324.5" r="3.4" fill="#16a34a" fill-opacity="0.85"/><circle cx="649.6" cy="312.8" r="3.4" fill="#d97706" fill-opacity="0.85"/><circle cx="460.3" cy="405.8" r="3.4" fill="#d97706" fill-opacity="0.85"/><circle cx="359.7" cy="324.9" r="3.4" fill="#16a34a" fill-opacity="0.85"/><circle cx="211.3" cy="254.2" r="3.4" fill="#16a34a" fill-opacity="0.85"/><circle cx="380.1" cy="400.6" r="3.4" fill="#d97706" fill-opacity="0.85"/><circle cx="430.1" cy="216.6" r="3.4" fill="#16a34a" fill-opacity="0.85"/><circle cx="210.4" cy="271.7" r="3.4" fill="#16a34a" fill-opacity="0.85"/><circle cx="421.9" cy="448.3" r="3.4" fill="#dc2626" fill-opacity="0.85"/><circle cx="538.1" cy="422.6" r="3.4" fill="#d97706" fill-opacity="0.85"/><circle cx="405.6" cy="321.8" r="3.4" fill="#16a34a" fill-opacity="0.85"/><circle cx="63.9" cy="73.9" r="3.4" fill="#2563eb" fill-opacity="0.85"/><circle cx="92.3" cy="258.7" r="3.4" fill="#2563eb" fill-opacity="0.85"/><circle cx="492.2" cy="354.7" r="3.4" fill="#16a34a" fill-opacity="0.85"/><circle cx="105.5" cy="270.3" r="3.4" fill="#2563eb" fill-opacity="0.85"/><circle cx="329.1" cy="361.1" r="3.4" fill="#16a34a" fill-opacity="0.85"/><circle cx="326.2" cy="305.6" r="3.4" fill="#16a34a" fill-opacity="0.85"/><circle cx="103.9" cy="266.3" r="3.4" fill="#2563eb" fill-opacity="0.85"/><circle cx="410.0" cy="410.8" r="3.4" fill="#dc2626" fill-opacity="0.85"/><circle cx="619.4" cy="331.8" r="3.4" fill="#d97706" fill-opacity="0.85"/><circle cx="573.2" cy="318.6" r="3.4" fill="#d97706" fill-opacity="0.85"/><circle cx="300.0" cy="295.3" r="3.4" fill="#16a34a" fill-opacity="0.85"/><circle cx="480.1" cy="628.3" r="3.4" fill="#dc2626" fill-opacity="0.85"/><circle cx="107.9" cy="261.6" r="3.4" fill="#2563eb" fill-opacity="0.85"/><circle cx="413.4" cy="408.3" r="3.4" fill="#dc2626" fill-opacity="0.85"/><circle cx="458.4" cy="209.9" r="3.4" fill="#d97706" fill-opacity="0.85"/><circle cx="423.1" cy="411.8" r="3.4" fill="#dc2626" fill-opacity="0.85"/><circle cx="409.7" cy="322.3" r="3.4" fill="#16a34a" fill-opacity="0.85"/><circle cx="223.1" cy="250.5" r="3.4" fill="#2563eb" fill-opacity="0.85"/><circle cx="451.6" cy="442.1" r="3.4" fill="#dc2626" fill-opacity="0.85"/><circle cx="500.6" cy="449.1" r="3.4" fill="#dc2626" fill-opacity="0.85"/><circle cx="613.5" cy="311.5" r="3.4" fill="#d97706" fill-opacity="0.85"/><circle cx="422.4" cy="461.0" r="3.4" fill="#dc2626" fill-opacity="0.85"/><circle cx="341.9" cy="291.0" r="3.4" fill="#16a34a" fill-opacity="0.85"/><circle cx="345.4" cy="323.3" r="3.4" fill="#16a34a" fill-opacity="0.85"/><circle cx="378.9" cy="309.3" r="3.4" fill="#16a34a" fill-opacity="0.85"/><circle cx="589.6" cy="320.7" r="3.4" fill="#d97706" fill-opacity="0.85"/><circle cx="336.3" cy="320.6" r="3.4" fill="#16a34a" fill-opacity="0.85"/><circle cx="434.4" cy="639.2" r="3.4" fill="#dc2626" fill-opacity="0.85"/><circle cx="86.4" cy="79.5" r="3.4" fill="#2563eb" fill-opacity="0.85"/><circle cx="317.0" cy="397.2" r="3.4" fill="#2563eb" fill-opacity="0.85"/><circle cx="82.4" cy="64.0" r="3.4" fill="#2563eb" fill-opacity="0.85"/><circle cx="414.4" cy="416.9" r="3.4" fill="#dc2626" fill-opacity="0.85"/><circle cx="555.7" cy="428.8" r="3.4" fill="#d97706" fill-opacity="0.85"/><circle cx="335.8" cy="270.1" r="3.4" fill="#2563eb" fill-opacity="0.85"/><circle cx="378.1" cy="321.5" r="3.4" fill="#16a34a" fill-opacity="0.85"/><circle cx="360.2" cy="324.4" r="3.4" fill="#16a34a" fill-opacity="0.85"/><circle cx="406.5" cy="321.0" r="3.4" fill="#16a34a" fill-opacity="0.85"/><circle cx="423.8" cy="472.6" r="3.4" fill="#dc2626" fill-opacity="0.85"/><circle cx="367.0" cy="375.2" r="3.4" fill="#d97706" fill-opacity="0.85"/><circle cx="483.9" cy="371.8" r="3.4" fill="#d97706" fill-opacity="0.85"/><circle cx="342.7" cy="385.9" r="3.4" fill="#2563eb" fill-opacity="0.85"/><circle cx="402.6" cy="411.6" r="3.4" fill="#dc2626" fill-opacity="0.85"/><circle cx="429.6" cy="214.3" r="3.4" fill="#16a34a" fill-opacity="0.85"/><circle cx="406.4" cy="311.0" r="3.4" fill="#16a34a" fill-opacity="0.85"/><circle cx="485.8" cy="335.5" r="3.4" fill="#16a34a" fill-opacity="0.85"/><circle cx="364.0" cy="405.8" r="3.4" fill="#dc2626" fill-opacity="0.85"/><circle cx="362.9" cy="322.1" r="3.4" fill="#16a34a" fill-opacity="0.85"/><circle cx="529.6" cy="436.6" r="3.4" fill="#d97706" fill-opacity="0.85"/><circle cx="357.0" cy="405.5" r="3.4" fill="#2563eb" fill-opacity="0.85"/><circle cx="416.1" cy="398.1" r="3.4" fill="#d97706" fill-opacity="0.85"/><circle cx="363.3" cy="330.0" r="3.4" fill="#16a34a" fill-opacity="0.85"/><circle cx="335.8" cy="323.1" r="3.4" fill="#16a34a" fill-opacity="0.85"/><circle cx="402.9" cy="421.6" r="3.4" fill="#dc2626" fill-opacity="0.85"/><circle cx="482.8" cy="432.8" r="3.4" fill="#d97706" fill-opacity="0.85"/><circle cx="128.5" cy="253.9" r="3.4" fill="#2563eb" fill-opacity="0.85"/><circle cx="350.6" cy="413.2" r="3.4" fill="#2563eb" fill-opacity="0.85"/><circle cx="549.4" cy="371.1" r="3.4" fill="#d97706" fill-opacity="0.85"/><circle cx="385.9" cy="313.9" r="3.4" fill="#16a34a" fill-opacity="0.85"/><circle cx="602.3" cy="339.5" r="3.4" fill="#d97706" fill-opacity="0.85"/><circle cx="301.6" cy="272.6" r="3.4" fill="#2563eb" fill-opacity="0.85"/><circle cx="352.3" cy="382.2" r="3.4" fill="#2563eb" fill-opacity="0.85"/><circle cx="532.6" cy="351.1" r="3.4" fill="#d97706" fill-opacity="0.85"/><circle cx="403.3" cy="472.0" r="3.4" fill="#dc2626" fill-opacity="0.85"/><circle cx="95.4" cy="254.9" r="3.4" fill="#2563eb" fill-opacity="0.85"/><circle cx="354.1" cy="324.1" r="3.4" fill="#16a34a" fill-opacity="0.85"/><circle cx="454.5" cy="648.3" r="3.4" fill="#dc2626" fill-opacity="0.85"/><circle cx="441.3" cy="457.9" r="3.4" fill="#dc2626" fill-opacity="0.85"/><circle cx="539.8" cy="348.3" r="3.4" fill="#d97706" fill-opacity="0.85"/><circle cx="572.8" cy="354.4" r="3.4" fill="#d97706" fill-opacity="0.85"/><circle cx="180.9" cy="257.0" r="3.4" fill="#2563eb" fill-opacity="0.85"/><circle cx="389.6" cy="271.0" r="3.4" fill="#16a34a" fill-opacity="0.85"/><circle cx="608.6" cy="353.2" r="3.4" fill="#d97706" fill-opacity="0.85"/><circle cx="450.4" cy="424.5" r="3.4" fill="#d97706" fill-opacity="0.85"/><circle cx="408.7" cy="407.4" r="3.4" fill="#dc2626" fill-opacity="0.85"/><circle cx="359.4" cy="304.5" r="3.4" fill="#16a34a" fill-opacity="0.85"/><circle cx="378.9" cy="390.7" r="3.4" fill="#d97706" fill-opacity="0.85"/><circle cx="339.2" cy="384.9" r="3.4" fill="#2563eb" fill-opacity="0.85"/><circle cx="634.5" cy="315.4" r="3.4" fill="#d97706" fill-opacity="0.85"/><circle cx="614.1" cy="332.3" r="3.4" fill="#d97706" fill-opacity="0.85"/><circle cx="501.5" cy="630.5" r="3.4" fill="#dc2626" fill-opacity="0.85"/><circle cx="358.4" cy="307.1" r="3.4" fill="#16a34a" fill-opacity="0.85"/><circle cx="323.6" cy="307.2" r="3.4" fill="#16a34a" fill-opacity="0.85"/><circle cx="387.3" cy="327.5" r="3.4" fill="#16a34a" fill-opacity="0.85"/><circle cx="422.4" cy="454.3" r="3.4" fill="#dc2626" fill-opacity="0.85"/><circle cx="562.1" cy="345.4" r="3.4" fill="#d97706" fill-opacity="0.85"/><circle cx="575.5" cy="304.1" r="3.4" fill="#d97706" fill-opacity="0.85"/><circle cx="529.8" cy="335.4" r="3.4" fill="#d97706" fill-opacity="0.85"/><circle cx="351.9" cy="307.7" r="3.4" fill="#16a34a" fill-opacity="0.85"/><circle cx="422.6" cy="313.1" r="3.4" fill="#16a34a" fill-opacity="0.85"/><circle cx="635.5" cy="340.5" r="3.4" fill="#d97706" fill-opacity="0.85"/><circle cx="101.2" cy="257.7" r="3.4" fill="#2563eb" fill-opacity="0.85"/><circle cx="378.3" cy="294.9" r="3.4" fill="#16a34a" fill-opacity="0.85"/><circle cx="541.1" cy="353.3" r="3.4" fill="#d97706" fill-opacity="0.85"/><circle cx="490.3" cy="440.7" r="3.4" fill="#dc2626" fill-opacity="0.85"/><circle cx="397.8" cy="409.1" r="3.4" fill="#dc2626" fill-opacity="0.85"/><circle cx="423.7" cy="644.5" r="3.4" fill="#dc2626" fill-opacity="0.85"/><circle cx="154.8" cy="85.1" r="3.4" fill="#2563eb" fill-opacity="0.85"/><circle cx="376.4" cy="326.7" r="3.4" fill="#16a34a" fill-opacity="0.85"/><circle cx="114.7" cy="69.8" r="3.4" fill="#2563eb" fill-opacity="0.85"/><circle cx="521.4" cy="348.7" r="3.4" fill="#d97706" fill-opacity="0.85"/><circle cx="444.6" cy="406.1" r="3.4" fill="#d97706" fill-opacity="0.85"/><circle cx="392.3" cy="314.9" r="3.4" fill="#16a34a" fill-opacity="0.85"/><circle cx="509.6" cy="441.3" r="3.4" fill="#dc2626" fill-opacity="0.85"/><circle cx="494.8" cy="364.7" r="3.4" fill="#d97706" fill-opacity="0.85"/><circle cx="523.1" cy="627.9" r="3.4" fill="#dc2626" fill-opacity="0.85"/><circle cx="276.8" cy="257.0" r="3.4" fill="#16a34a" fill-opacity="0.85"/><circle cx="325.4" cy="333.9" r="3.4" fill="#16a34a" fill-opacity="0.85"/><circle cx="127.9" cy="77.7" r="3.4" fill="#2563eb" fill-opacity="0.85"/><circle cx="462.6" cy="225.8" r="3.4" fill="#16a34a" fill-opacity="0.85"/><circle cx="328.8" cy="281.0" r="3.4" fill="#2563eb" fill-opacity="0.85"/><circle cx="482.9" cy="461.9" r="3.4" fill="#dc2626" fill-opacity="0.85"/><circle cx="152.0" cy="271.8" r="3.4" fill="#2563eb" fill-opacity="0.85"/><circle cx="114.2" cy="276.7" r="3.4" fill="#2563eb" fill-opacity="0.85"/><circle cx="335.7" cy="395.8" r="3.4" fill="#2563eb" fill-opacity="0.85"/><circle cx="243.5" cy="249.6" r="3.4" fill="#2563eb" fill-opacity="0.85"/><circle cx="539.7" cy="350.4" r="3.4" fill="#d97706" fill-opacity="0.85"/><circle cx="442.8" cy="212.8" r="3.4" fill="#d97706" fill-opacity="0.85"/><circle cx="515.4" cy="342.7" r="3.4" fill="#16a34a" fill-opacity="0.85"/><circle cx="398.0" cy="394.2" r="3.4" fill="#d97706" fill-opacity="0.85"/><circle cx="327.5" cy="310.3" r="3.4" fill="#16a34a" fill-opacity="0.85"/><circle cx="630.3" cy="313.9" r="3.4" fill="#d97706" fill-opacity="0.85"/><circle cx="522.3" cy="608.3" r="3.4" fill="#dc2626" fill-opacity="0.85"/><circle cx="396.4" cy="413.1" r="3.4" fill="#dc2626" fill-opacity="0.85"/><circle cx="354.7" cy="366.7" r="3.4" fill="#2563eb" fill-opacity="0.85"/><circle cx="393.6" cy="317.3" r="3.4" fill="#16a34a" fill-opacity="0.85"/><circle cx="385.3" cy="419.2" r="3.4" fill="#dc2626" fill-opacity="0.85"/><circle cx="485.0" cy="632.4" r="3.4" fill="#dc2626" fill-opacity="0.85"/><circle cx="408.7" cy="473.9" r="3.4" fill="#dc2626" fill-opacity="0.85"/><circle cx="106.1" cy="270.5" r="3.4" fill="#2563eb" fill-opacity="0.85"/><circle cx="625.6" cy="325.1" r="3.4" fill="#d97706" fill-opacity="0.85"/><circle cx="539.2" cy="355.8" r="3.4" fill="#d97706" fill-opacity="0.85"/><circle cx="431.1" cy="320.9" r="3.4" fill="#16a34a" fill-opacity="0.85"/><circle cx="394.5" cy="413.1" r="3.4" fill="#dc2626" fill-opacity="0.85"/><circle cx="322.5" cy="377.6" r="3.4" fill="#2563eb" fill-opacity="0.85"/><circle cx="565.5" cy="436.6" r="3.4" fill="#d97706" fill-opacity="0.85"/><circle cx="320.5" cy="275.7" r="3.4" fill="#2563eb" fill-opacity="0.85"/><circle cx="656.7" cy="322.5" r="3.4" fill="#d97706" fill-opacity="0.85"/><circle cx="296.2" cy="294.4" r="3.4" fill="#16a34a" fill-opacity="0.85"/><circle cx="107.0" cy="268.5" r="3.4" fill="#2563eb" fill-opacity="0.85"/><circle cx="404.0" cy="429.2" r="3.4" fill="#dc2626" fill-opacity="0.85"/><circle cx="310.8" cy="316.9" r="3.4" fill="#16a34a" fill-opacity="0.85"/><circle cx="84.0" cy="66.6" r="3.4" fill="#2563eb" fill-opacity="0.85"/><circle cx="478.9" cy="622.5" r="3.4" fill="#dc2626" fill-opacity="0.85"/><circle cx="329.7" cy="311.2" r="3.4" fill="#16a34a" fill-opacity="0.85"/><circle cx="303.4" cy="287.6" r="3.4" fill="#2563eb" fill-opacity="0.85"/><circle cx="117.5" cy="255.3" r="3.4" fill="#2563eb" fill-opacity="0.85"/><circle cx="430.5" cy="418.4" r="3.4" fill="#dc2626" fill-opacity="0.85"/><circle cx="321.0" cy="291.3" r="3.4" fill="#16a34a" fill-opacity="0.85"/><circle cx="171.6" cy="93.2" r="3.4" fill="#2563eb" fill-opacity="0.85"/><circle cx="116.6" cy="243.5" r="3.4" fill="#2563eb" fill-opacity="0.85"/><circle cx="576.2" cy="347.6" r="3.4" fill="#d97706" fill-opacity="0.85"/><circle cx="400.9" cy="402.5" r="3.4" fill="#dc2626" fill-opacity="0.85"/><circle cx="593.8" cy="319.1" r="3.4" fill="#d97706" fill-opacity="0.85"/><circle cx="236.2" cy="280.4" r="3.4" fill="#16a34a" fill-opacity="0.85"/><circle cx="347.3" cy="311.3" r="3.4" fill="#16a34a" fill-opacity="0.85"/><circle cx="470.9" cy="434.0" r="3.4" fill="#d97706" fill-opacity="0.85"/><circle cx="147.4" cy="273.4" r="3.4" fill="#2563eb" fill-opacity="0.85"/><circle cx="524.2" cy="357.5" r="3.4" fill="#d97706" fill-opacity="0.85"/><circle cx="501.9" cy="417.4" r="3.4" fill="#d97706" fill-opacity="0.85"/><circle cx="541.2" cy="349.8" r="3.4" fill="#d97706" fill-opacity="0.85"/><circle cx="486.7" cy="437.8" r="3.4" fill="#d97706" fill-opacity="0.85"/><circle cx="447.6" cy="200.1" r="3.4" fill="#d97706" fill-opacity="0.85"/><circle cx="527.6" cy="345.6" r="3.4" fill="#d97706" fill-opacity="0.85"/><circle cx="545.8" cy="348.1" r="3.4" fill="#d97706" fill-opacity="0.85"/><circle cx="389.8" cy="457.4" r="3.4" fill="#dc2626" fill-opacity="0.85"/><circle cx="303.4" cy="357.8" r="3.4" fill="#16a34a" fill-opacity="0.85"/><circle cx="486.4" cy="637.0" r="3.4" fill="#dc2626" fill-opacity="0.85"/><circle cx="141.9" cy="113.2" r="3.4" fill="#2563eb" fill-opacity="0.85"/><circle cx="517.5" cy="360.8" r="3.4" fill="#16a34a" fill-opacity="0.85"/><circle cx="40.5" cy="108.0" r="3.4" fill="#2563eb" fill-opacity="0.85"/><circle cx="521.2" cy="370.9" r="3.4" fill="#d97706" fill-opacity="0.85"/><circle cx="564.6" cy="336.7" r="3.4" fill="#d97706" fill-opacity="0.85"/><circle cx="390.7" cy="461.2" r="3.4" fill="#dc2626" fill-opacity="0.85"/><circle cx="505.7" cy="442.0" r="3.4" fill="#dc2626" fill-opacity="0.85"/><circle cx="410.9" cy="428.7" r="3.4" fill="#dc2626" fill-opacity="0.85"/><circle cx="364.3" cy="292.4" r="3.4" fill="#16a34a" fill-opacity="0.85"/><circle cx="324.5" cy="383.5" r="3.4" fill="#2563eb" fill-opacity="0.85"/><circle cx="100.8" cy="108.3" r="3.4" fill="#2563eb" fill-opacity="0.85"/><circle cx="313.9" cy="284.2" r="3.4" fill="#2563eb" fill-opacity="0.85"/><circle cx="409.4" cy="229.0" r="3.4" fill="#16a34a" fill-opacity="0.85"/><circle cx="292.0" cy="277.9" r="3.4" fill="#2563eb" fill-opacity="0.85"/><circle cx="115.1" cy="102.2" r="3.4" fill="#2563eb" fill-opacity="0.85"/><circle cx="439.8" cy="453.2" r="3.4" fill="#dc2626" fill-opacity="0.85"/><circle cx="457.6" cy="449.9" r="3.4" fill="#dc2626" fill-opacity="0.85"/><circle cx="438.8" cy="469.9" r="3.4" fill="#dc2626" fill-opacity="0.85"/><circle cx="395.1" cy="389.2" r="3.4" fill="#d97706" fill-opacity="0.85"/><circle cx="373.7" cy="469.1" r="3.4" fill="#dc2626" fill-opacity="0.85"/><circle cx="373.2" cy="200.5" r="3.4" fill="#16a34a" fill-opacity="0.85"/><circle cx="404.9" cy="411.4" r="3.4" fill="#dc2626" fill-opacity="0.85"/><circle cx="415.7" cy="217.8" r="3.4" fill="#16a34a" fill-opacity="0.85"/><circle cx="366.7" cy="359.3" r="3.4" fill="#16a34a" fill-opacity="0.85"/><circle cx="156.0" cy="266.7" r="3.4" fill="#2563eb" fill-opacity="0.85"/><circle cx="433.9" cy="401.6" r="3.4" fill="#dc2626" fill-opacity="0.85"/><circle cx="418.7" cy="453.0" r="3.4" fill="#dc2626" fill-opacity="0.85"/><circle cx="410.0" cy="403.3" r="3.4" fill="#dc2626" fill-opacity="0.85"/><circle cx="98.3" cy="255.0" r="3.4" fill="#2563eb" fill-opacity="0.85"/><circle cx="540.7" cy="343.4" r="3.4" fill="#d97706" fill-opacity="0.85"/><circle cx="303.1" cy="379.9" r="3.4" fill="#2563eb" fill-opacity="0.85"/><circle cx="532.7" cy="427.7" r="3.4" fill="#d97706" fill-opacity="0.85"/><circle cx="143.4" cy="250.2" r="3.4" fill="#2563eb" fill-opacity="0.85"/><circle cx="215.3" cy="242.7" r="3.4" fill="#2563eb" fill-opacity="0.85"/><circle cx="579.7" cy="365.2" r="3.4" fill="#d97706" fill-opacity="0.85"/><circle cx="320.2" cy="307.9" r="3.4" fill="#16a34a" fill-opacity="0.85"/><circle cx="481.1" cy="218.2" r="3.4" fill="#16a34a" fill-opacity="0.85"/><circle cx="413.9" cy="213.1" r="3.4" fill="#16a34a" fill-opacity="0.85"/><circle cx="126.1" cy="84.9" r="3.4" fill="#2563eb" fill-opacity="0.85"/><circle cx="341.1" cy="376.3" r="3.4" fill="#2563eb" fill-opacity="0.85"/><circle cx="578.3" cy="323.8" r="3.4" fill="#d97706" fill-opacity="0.85"/><circle cx="516.5" cy="417.9" r="3.4" fill="#d97706" fill-opacity="0.85"/><circle cx="533.0" cy="349.7" r="3.4" fill="#d97706" fill-opacity="0.85"/><circle cx="318.4" cy="304.0" r="3.4" fill="#16a34a" fill-opacity="0.85"/><circle cx="619.6" cy="312.7" r="3.4" fill="#d97706" fill-opacity="0.85"/><circle cx="155.1" cy="73.2" r="3.4" fill="#2563eb" fill-opacity="0.85"/><circle cx="96.7" cy="260.8" r="3.4" fill="#2563eb" fill-opacity="0.85"/><circle cx="98.8" cy="255.3" r="3.4" fill="#2563eb" fill-opacity="0.85"/><circle cx="128.5" cy="267.9" r="3.4" fill="#2563eb" fill-opacity="0.85"/><rect x="40" y="686" width="9" height="9" fill="#2563eb"/><text x="53" y="694" font-size="10" fill="#334155">Route 1 (123c · 187v · 2007k)</text><rect x="155" y="686" width="9" height="9" fill="#16a34a"/><text x="168" y="694" font-size="10" fill="#334155">Route 2 (131c · 188.5v · 1930k)</text><rect x="270" y="686" width="9" height="9" fill="#d97706"/><text x="283" y="694" font-size="10" fill="#334155">Route 3 (127c · 187v · 2006k)</text><rect x="385" y="686" width="9" height="9" fill="#dc2626"/><text x="398" y="694" font-size="10" fill="#334155">Route 4 (119c · 184.5v · 2138k)</text></svg>