<svg xmlns="http://www.w3.org/2000/svg" width="872" height="298" viewBox="0 0 872 298"><rect width="872" height="298" fill="#f8fafc"/><text x="16" y="24" font-size="16" font-weight="700" fill="#0f172a">Plan Calendar · visits per working day (Jeddah demo, 6 routes)</text><text x="16" y="44" font-size="11" fill="#64748b">Each route's customers are spread across Sun–Thu by workload — the calendar is no longer empty.</text><text x="181" y="80" font-size="12" font-weight="700" fill="#334155" text-anchor="middle">Sun</text><text x="331" y="80" font-size="12" font-weight="700" fill="#334155" text-anchor="middle">Mon</text><text x="481" y="80" font-size="12" font-weight="700" fill="#334155" text-anchor="middle">Tue</text><text x="631" y="80" font-size="12" font-weight="700" fill="#334155" text-anchor="middle">Wed</text><text x="781" y="80" font-size="12" font-weight="700" fill="#334155" text-anchor="middle">Thu</text><text x="16" y="108" font-size="12" fill="#0f172a">Route 1</text><rect x="110" y="91" width="142" height="24" rx="4" fill="rgba(37,99,235,0.45)"/><text x="181" y="108" font-size="11" font-weight="700" fill="#0f172a" text-anchor="middle">10</text><rect x="260" y="91" width="142" height="24" rx="4" fill="rgba(37,99,235,0.48)"/><text x="331" y="108" font-size="11" font-weight="700" fill="#0f172a" text-anchor="middle">11</text><rect x="410" y="91" width="142" height="24" rx="4" fill="rgba(37,99,235,0.48)"/><text x="481" y="108" font-size="11" font-weight="700" fill="#0f172a" text-anchor="middle">11</text><rect x="560" y="91" width="142" height="24" rx="4" fill="rgba(37,99,235,0.45)"/><text x="631" y="108" font-size="11" font-weight="700" fill="#0f172a" text-anchor="middle">10</text><rect x="710" y="91" width="142" height="24" rx="4" fill="rgba(37,99,235,0.45)"/><text x="781" y="108" font-size="11" font-weight="700" fill="#0f172a" text-anchor="middle">10</text><text x="16" y="138" font-size="12" fill="#0f172a">Route 2</text><rect x="110" y="121" width="142" height="24" rx="4" fill="rgba(37,99,235,0.87)"/><text x="181" y="138" font-size="11" font-weight="700" fill="#0f172a" text-anchor="middle">24</text><rect x="260" y="121" width="142" height="24" rx="4" fill="rgba(37,99,235,0.90)"/><text x="331" y="138" font-size="11" font-weight="700" fill="#0f172a" text-anchor="middle">25</text><rect x="410" y="121" width="142" height="24" rx="4" fill="rgba(37,99,235,0.90)"/><text x="481" y="138" font-size="11" font-weight="700" fill="#0f172a" text-anchor="middle">25</text><rect x="560" y="121" width="142" height="24" rx="4" fill="rgba(37,99,235,0.87)"/><text x="631" y="138" font-size="11" font-weight="700" fill="#0f172a" text-anchor="middle">24</text><rect x="710" y="121" width="142" height="24" rx="4" fill="rgba(37,99,235,0.90)"/><text x="781" y="138" font-size="11" font-weight="700" fill="#0f172a" text-anchor="middle">25</text><text x="16" y="168" font-size="12" fill="#0f172a">Route 3</text><rect x="110" y="151" width="142" height="24" rx="4" fill="rgba(37,99,235,0.75)"/><text x="181" y="168" font-size="11" font-weight="700" fill="#0f172a" text-anchor="middle">20</text><rect x="260" y="151" width="142" height="24" rx="4" fill="rgba(37,99,235,0.75)"/><text x="331" y="168" font-size="11" font-weight="700" fill="#0f172a" text-anchor="middle">20</text><rect x="410" y="151" width="142" height="24" rx="4" fill="rgba(37,99,235,0.75)"/><text x="481" y="168" font-size="11" font-weight="700" fill="#0f172a" text-anchor="middle">20</text><rect x="560" y="151" width="142" height="24" rx="4" fill="rgba(37,99,235,0.75)"/><text x="631" y="168" font-size="11" font-weight="700" fill="#0f172a" text-anchor="middle">20</text><rect x="710" y="151" width="142" height="24" rx="4" fill="rgba(37,99,235,0.78)"/><text x="781" y="168" font-size="11" font-weight="700" fill="#0f172a" text-anchor="middle">21</text><text x="16" y="198" font-size="12" fill="#0f172a">Route 4</text><rect x="110" y="181" width="142" height="24" rx="4" fill="rgba(37,99,235,0.54)"/><text x="181" y="198" font-size="11" font-weight="700" fill="#0f172a" text-anchor="middle">13</text><rect x="260" y="181" width="142" height="24" rx="4" fill="rgba(37,99,235,0.54)"/><text x="331" y="198" font-size="11" font-weight="700" fill="#0f172a" text-anchor="middle">13</text><rect x="410" y="181" width="142" height="24" rx="4" fill="rgba(37,99,235,0.54)"/><text x="481" y="198" font-size="11" font-weight="700" fill="#0f172a" text-anchor="middle">13</text><rect x="560" y="181" width="142" height="24" rx="4" fill="rgba(37,99,235,0.57)"/><text x="631" y="198" font-size="11" font-weight="700" fill="#0f172a" text-anchor="middle">14</text><rect x="710" y="181" width="142" height="24" rx="4" fill="rgba(37,99,235,0.57)"/><text x="781" y="198" font-size="11" font-weight="700" fill="#0f172a" text-anchor="middle">14</text><text x="16" y="228" font-size="12" fill="#0f172a">Route 5</text><rect x="110" y="211" width="142" height="24" rx="4" fill="rgba(37,99,235,0.63)"/><text x="181" y="228" font-size="11" font-weight="700" fill="#0f172a" text-anchor="middle">16</text><rect x="260" y="211" width="142" height="24" rx="4" fill="rgba(37,99,235,0.66)"/><text x="331" y="228" font-size="11" font-weight="700" fill="#0f172a" text-anchor="middle">17</text><rect x="410" y="211" width="142" height="24" rx="4" fill="rgba(37,99,235,0.66)"/><text x="481" y="228" font-size="11" font-weight="700" fill="#0f172a" text-anchor="middle">17</text><rect x="560" y="211" width="142" height="24" rx="4" fill="rgba(37,99,235,0.66)"/><text x="631" y="228" font-size="11" font-weight="700" fill="#0f172a" text-anchor="middle">17</text><rect x="710" y="211" width="142" height="24" rx="4" fill="rgba(37,99,235,0.63)"/><text x="781" y="228" font-size="11" font-weight="700" fill="#0f172a" text-anchor="middle">16</text><text x="16" y="258" font-size="12" fill="#0f172a">Route 6</text><rect x="110" y="241" width="142" height="24" rx="4" fill="rgba(37,99,235,0.57)"/><text x="181" y="258" font-size="11" font-weight="700" fill="#0f172a" text-anchor="middle">14</text><rect x="260" y="241" width="142" height="24" rx="4" fill="rgba(37,99,235,0.60)"/><text x="331" y="258" font-size="11" font-weight="700" fill="#0f172a" text-anchor="middle">15</text><rect x="410" y="241" width="142" height="24" rx="4" fill="rgba(37,99,235,0.60)"/><text x="481" y="258" font-size="11" font-weight="700" fill="#0f172a" text-anchor="middle">15</text><rect x="560" y="241" width="142" height="24" rx="4" fill="rgba(37,99,235,0.60)"/><text x="631" y="258" font-size="11" font-weight="700" fill="#0f172a" text-anchor="middle">15</text><rect x="710" y="241" width="142" height="24" rx="4" fill="rgba(37,99,235,0.60)"/><text x="781" y="258" font-size="11" font-weight="700" fill="#0f172a" text-anchor="middle">15</text></svg>