<svg xmlns="http://www.w3.org/2000/svg" width="1490" height="460" viewBox="0 0 1490 460"><rect width="1490" height="460" fill="#f8fafc"/><text x="16" y="22" font-size="15" font-weight="700" fill="#0f172a">Salesman View · drag a customer between salesmen (Jeddah demo, 500 customers)</text><text x="16" y="40" font-size="11" fill="#64748b">Columns = salesmen; header shows customers · visits/wk · value — the real balancing signals.</text><rect x="16" y="82" width="150" height="366" rx="6" fill="#ffffff" stroke="#e2e8f0"/><text x="24" y="100" font-size="11" font-weight="700" fill="#0f172a">Salesman 1</text><text x="24" y="114" font-size="9" fill="#64748b">82 cust · 135v · 1557k SAR</text><rect x="22" y="124" width="138" height="12" rx="2" fill="#f8fafc" stroke="#e2e8f0"/><text x="27" y="133" font-size="7.5" fill="#334155">A · Al-Safa Outlet 2</text><rect x="22" y="138" width="138" height="12" rx="2" fill="#f8fafc" stroke="#e2e8f0"/><text x="27" y="147" font-size="7.5" fill="#334155">C · Al-Safa Outlet 11</text><rect x="22" y="152" width="138" height="12" rx="2" fill="#f8fafc" stroke="#e2e8f0"/><text x="27" y="161" font-size="7.5" fill="#334155">C · Al-Safa Outlet 13</text><rect x="22" y="166" width="138" height="12" rx="2" fill="#f8fafc" stroke="#e2e8f0"/><text x="27" y="175" font-size="7.5" fill="#334155">C · Al-Safa Outlet 17</text><rect x="22" y="180" width="138" height="12" rx="2" fill="#f8fafc" stroke="#e2e8f0"/><text x="27" y="189" font-size="7.5" fill="#334155">B · Al-Balad Outlet 21</text><rect x="22" y="194" width="138" height="12" rx="2" fill="#f8fafc" stroke="#e2e8f0"/><text x="27" y="203" font-size="7.5" fill="#334155">B · Al-Balad Outlet 24</text><rect x="22" y="208" width="138" height="12" rx="2" fill="#f8fafc" stroke="#e2e8f0"/><text x="27" y="217" font-size="7.5" fill="#334155">A · Al-Balad Outlet 26</text><rect x="22" y="222" width="138" height="12" rx="2" fill="#f8fafc" stroke="#e2e8f0"/><text x="27" y="231" font-size="7.5" fill="#334155">A · Al-Safa Outlet 40</text><rect x="22" y="236" width="138" height="12" rx="2" fill="#f8fafc" stroke="#e2e8f0"/><text x="27" y="245" font-size="7.5" fill="#334155">B · Al-Balad Outlet 43</text><rect x="22" y="250" width="138" height="12" rx="2" fill="#f8fafc" stroke="#e2e8f0"/><text x="27" y="259" font-size="7.5" fill="#334155">B · Al-Safa Outlet 68</text><rect x="22" y="264" width="138" height="12" rx="2" fill="#f8fafc" stroke="#e2e8f0"/><text x="27" y="273" font-size="7.5" fill="#334155">C · Al-Balad Outlet 78</text><rect x="22" y="278" width="138" height="12" rx="2" fill="#f8fafc" stroke="#e2e8f0"/><text x="27" y="287" font-size="7.5" fill="#334155">C · Al-Safa Outlet 86</text><rect x="22" y="292" width="138" height="12" rx="2" fill="#f8fafc" stroke="#e2e8f0"/><text x="27" y="301" font-size="7.5" fill="#334155">C · Al-Balad Outlet 87</text><rect x="22" y="306" width="138" height="12" rx="2" fill="#f8fafc" stroke="#e2e8f0"/><text x="27" y="315" font-size="7.5" fill="#334155">B · Al-Balad Outlet 89</text><rect x="22" y="320" width="138" height="12" rx="2" fill="#f8fafc" stroke="#e2e8f0"/><text x="27" y="329" font-size="7.5" fill="#334155">B · Al-Balad Outlet 96</text><rect x="22" y="334" width="138" height="12" rx="2" fill="#f8fafc" stroke="#e2e8f0"/><text x="27" y="343" font-size="7.5" fill="#334155">C · Al-Balad Outlet 97</text><rect x="22" y="348" width="138" height="12" rx="2" fill="#f8fafc" stroke="#e2e8f0"/><text x="27" y="357" font-size="7.5" fill="#334155">C · Al-Safa Outlet 110</text><rect x="22" y="362" width="138" height="12" rx="2" fill="#f8fafc" stroke="#e2e8f0"/><text x="27" y="371" font-size="7.5" fill="#334155">B · Al-Balad Outlet 114</text><rect x="22" y="376" width="138" height="12" rx="2" fill="#f8fafc" stroke="#e2e8f0"/><text x="27" y="385" font-size="7.5" fill="#334155">C · Al-Safa Outlet 115</text><rect x="22" y="390" width="138" height="12" rx="2" fill="#f8fafc" stroke="#e2e8f0"/><text x="27" y="399" font-size="7.5" fill="#334155">C · Al-Safa Outlet 119</text><rect x="22" y="404" width="138" height="12" rx="2" fill="#f8fafc" stroke="#e2e8f0"/><text x="27" y="413" font-size="7.5" fill="#334155">D · Al-Safa Outlet 134</text><rect x="22" y="418" width="138" height="12" rx="2" fill="#f8fafc" stroke="#e2e8f0"/><text x="27" y="427" font-size="7.5" fill="#334155">C · Al-Safa Outlet 155</text><text x="24" y="436" font-size="9" fill="#94a3b8">+60 more</text><rect x="178" y="82" width="150" height="366" rx="6" fill="#ffffff" stroke="#e2e8f0"/><text x="186" y="100" font-size="11" font-weight="700" fill="#0f172a">Salesman 2</text><text x="186" y="114" font-size="9" fill="#64748b">56 cust · 88v · 1015k SAR</text><rect x="184" y="124" width="138" height="12" rx="2" fill="#f8fafc" stroke="#e2e8f0"/><text x="189" y="133" font-size="7.5" fill="#334155">A · Al-Marwah Outlet 3</text><rect x="184" y="138" width="138" height="12" rx="2" fill="#f8fafc" stroke="#e2e8f0"/><text x="189" y="147" font-size="7.5" fill="#334155">C · Al-Marwah Outlet 16</text><rect x="184" y="152" width="138" height="12" rx="2" fill="#f8fafc" stroke="#e2e8f0"/><text x="189" y="161" font-size="7.5" fill="#334155">C · Al-Hamra Outlet 22</text><rect x="184" y="166" width="138" height="12" rx="2" fill="#f8fafc" stroke="#e2e8f0"/><text x="189" y="175" font-size="7.5" fill="#334155">D · Al-Marwah Outlet 23</text><rect x="184" y="180" width="138" height="12" rx="2" fill="#f8fafc" stroke="#e2e8f0"/><text x="189" y="189" font-size="7.5" fill="#334155">C · Al-Hamra Outlet 29</text><rect x="184" y="194" width="138" height="12" rx="2" fill="#f8fafc" stroke="#e2e8f0"/><text x="189" y="203" font-size="7.5" fill="#334155">B · Al-Hamra Outlet 37</text><rect x="184" y="208" width="138" height="12" rx="2" fill="#f8fafc" stroke="#e2e8f0"/><text x="189" y="217" font-size="7.5" fill="#334155">A · Al-Hamra Outlet 38</text><rect x="184" y="222" width="138" height="12" rx="2" fill="#f8fafc" stroke="#e2e8f0"/><text x="189" y="231" font-size="7.5" fill="#334155">C · Al-Hamra Outlet 50</text><rect x="184" y="236" width="138" height="12" rx="2" fill="#f8fafc" stroke="#e2e8f0"/><text x="189" y="245" font-size="7.5" fill="#334155">A · Al-Marwah Outlet 59</text><rect x="184" y="250" width="138" height="12" rx="2" fill="#f8fafc" stroke="#e2e8f0"/><text x="189" y="259" font-size="7.5" fill="#334155">B · Al-Hamra Outlet 60</text><rect x="184" y="264" width="138" height="12" rx="2" fill="#f8fafc" stroke="#e2e8f0"/><text x="189" y="273" font-size="7.5" fill="#334155">A · Al-Hamra Outlet 88</text><rect x="184" y="278" width="138" height="12" rx="2" fill="#f8fafc" stroke="#e2e8f0"/><text x="189" y="287" font-size="7.5" fill="#334155">D · Al-Hamra Outlet 92</text><rect x="184" y="292" width="138" height="12" rx="2" fill="#f8fafc" stroke="#e2e8f0"/><text x="189" y="301" font-size="7.5" fill="#334155">C · Al-Hamra Outlet 95</text><rect x="184" y="306" width="138" height="12" rx="2" fill="#f8fafc" stroke="#e2e8f0"/><text x="189" y="315" font-size="7.5" fill="#334155">A · Al-Marwah Outlet 99</text><rect x="184" y="320" width="138" height="12" rx="2" fill="#f8fafc" stroke="#e2e8f0"/><text x="189" y="329" font-size="7.5" fill="#334155">C · Al-Marwah Outlet 106</text><rect x="184" y="334" width="138" height="12" rx="2" fill="#f8fafc" stroke="#e2e8f0"/><text x="189" y="343" font-size="7.5" fill="#334155">B · Al-Hamra Outlet 111</text><rect x="184" y="348" width="138" height="12" rx="2" fill="#f8fafc" stroke="#e2e8f0"/><text x="189" y="357" font-size="7.5" fill="#334155">A · Al-Marwah Outlet 116</text><rect x="184" y="362" width="138" height="12" rx="2" fill="#f8fafc" stroke="#e2e8f0"/><text x="189" y="371" font-size="7.5" fill="#334155">B · Al-Hamra Outlet 118</text><rect x="184" y="376" width="138" height="12" rx="2" fill="#f8fafc" stroke="#e2e8f0"/><text x="189" y="385" font-size="7.5" fill="#334155">C · Al-Hamra Outlet 129</text><rect x="184" y="390" width="138" height="12" rx="2" fill="#f8fafc" stroke="#e2e8f0"/><text x="189" y="399" font-size="7.5" fill="#334155">C · Al-Marwah Outlet 136</text><rect x="184" y="404" width="138" height="12" rx="2" fill="#f8fafc" stroke="#e2e8f0"/><text x="189" y="413" font-size="7.5" fill="#334155">C · Al-Marwah Outlet 138</text><rect x="184" y="418" width="138" height="12" rx="2" fill="#f8fafc" stroke="#e2e8f0"/><text x="189" y="427" font-size="7.5" fill="#334155">C · Al-Marwah Outlet 140</text><text x="186" y="436" font-size="9" fill="#94a3b8">+34 more</text><rect x="340" y="82" width="150" height="366" rx="6" fill="#ffffff" stroke="#e2e8f0"/><text x="348" y="100" font-size="11" font-weight="700" fill="#0f172a">Salesman 3</text><text x="348" y="114" font-size="9" fill="#64748b">70 cust · 99v · 845k SAR</text><rect x="346" y="124" width="138" height="12" rx="2" fill="#f8fafc" stroke="#e2e8f0"/><text x="351" y="133" font-size="7.5" fill="#334155">C · Al-Naseem Outlet 5</text><rect x="346" y="138" width="138" height="12" rx="2" fill="#f8fafc" stroke="#e2e8f0"/><text x="351" y="147" font-size="7.5" fill="#334155">C · Al-Rawdah Outlet 7</text><rect x="346" y="152" width="138" height="12" rx="2" fill="#f8fafc" stroke="#e2e8f0"/><text x="351" y="161" font-size="7.5" fill="#334155">D · Al-Rawdah Outlet 9</text><rect x="346" y="166" width="138" height="12" rx="2" fill="#f8fafc" stroke="#e2e8f0"/><text x="351" y="175" font-size="7.5" fill="#334155">D · Al-Naseem Outlet 31</text><rect x="346" y="180" width="138" height="12" rx="2" fill="#f8fafc" stroke="#e2e8f0"/><text x="351" y="189" font-size="7.5" fill="#334155">C · Al-Naseem Outlet 56</text><rect x="346" y="194" width="138" height="12" rx="2" fill="#f8fafc" stroke="#e2e8f0"/><text x="351" y="203" font-size="7.5" fill="#334155">C · Al-Naseem Outlet 67</text><rect x="346" y="208" width="138" height="12" rx="2" fill="#f8fafc" stroke="#e2e8f0"/><text x="351" y="217" font-size="7.5" fill="#334155">B · Al-Naseem Outlet 69</text><rect x="346" y="222" width="138" height="12" rx="2" fill="#f8fafc" stroke="#e2e8f0"/><text x="351" y="231" font-size="7.5" fill="#334155">D · Al-Naseem Outlet 98</text><rect x="346" y="236" width="138" height="12" rx="2" fill="#f8fafc" stroke="#e2e8f0"/><text x="351" y="245" font-size="7.5" fill="#334155">B · Al-Naseem Outlet 107</text><rect x="346" y="250" width="138" height="12" rx="2" fill="#f8fafc" stroke="#e2e8f0"/><text x="351" y="259" font-size="7.5" fill="#334155">C · Al-Naseem Outlet 112</text><rect x="346" y="264" width="138" height="12" rx="2" fill="#f8fafc" stroke="#e2e8f0"/><text x="351" y="273" font-size="7.5" fill="#334155">B · Al-Rawdah Outlet 113</text><rect x="346" y="278" width="138" height="12" rx="2" fill="#f8fafc" stroke="#e2e8f0"/><text x="351" y="287" font-size="7.5" fill="#334155">C · Al-Rawdah Outlet 117</text><rect x="346" y="292" width="138" height="12" rx="2" fill="#f8fafc" stroke="#e2e8f0"/><text x="351" y="301" font-size="7.5" fill="#334155">C · Al-Rawdah Outlet 123</text><rect x="346" y="306" width="138" height="12" rx="2" fill="#f8fafc" stroke="#e2e8f0"/><text x="351" y="315" font-size="7.5" fill="#334155">C · Al-Rawdah Outlet 130</text><rect x="346" y="320" width="138" height="12" rx="2" fill="#f8fafc" stroke="#e2e8f0"/><text x="351" y="329" font-size="7.5" fill="#334155">B · Al-Rawdah Outlet 133</text><rect x="346" y="334" width="138" height="12" rx="2" fill="#f8fafc" stroke="#e2e8f0"/><text x="351" y="343" font-size="7.5" fill="#334155">B · Al-Naseem Outlet 137</text><rect x="346" y="348" width="138" height="12" rx="2" fill="#f8fafc" stroke="#e2e8f0"/><text x="351" y="357" font-size="7.5" fill="#334155">C · Al-Naseem Outlet 142</text><rect x="346" y="362" width="138" height="12" rx="2" fill="#f8fafc" stroke="#e2e8f0"/><text x="351" y="371" font-size="7.5" fill="#334155">C · Al-Naseem Outlet 147</text><rect x="346" y="376" width="138" height="12" rx="2" fill="#f8fafc" stroke="#e2e8f0"/><text x="351" y="385" font-size="7.5" fill="#334155">C · Al-Rawdah Outlet 154</text><rect x="346" y="390" width="138" height="12" rx="2" fill="#f8fafc" stroke="#e2e8f0"/><text x="351" y="399" font-size="7.5" fill="#334155">A · Al-Naseem Outlet 161</text><rect x="346" y="404" width="138" height="12" rx="2" fill="#f8fafc" stroke="#e2e8f0"/><text x="351" y="413" font-size="7.5" fill="#334155">C · Al-Naseem Outlet 162</text><rect x="346" y="418" width="138" height="12" rx="2" fill="#f8fafc" stroke="#e2e8f0"/><text x="351" y="427" font-size="7.5" fill="#334155">D · Al-Rawdah Outlet 170</text><text x="348" y="436" font-size="9" fill="#94a3b8">+48 more</text><rect x="502" y="82" width="150" height="366" rx="6" fill="#ffffff" stroke="#e2e8f0"/><text x="510" y="100" font-size="11" font-weight="700" fill="#0f172a">Salesman 4</text><text x="510" y="114" font-size="9" fill="#64748b">68 cust · 105v · 1122k SAR</text><rect x="508" y="124" width="138" height="12" rx="2" fill="#f8fafc" stroke="#e2e8f0"/><text x="513" y="133" font-size="7.5" fill="#334155">D · Obhur Outlet 6</text><rect x="508" y="138" width="138" height="12" rx="2" fill="#f8fafc" stroke="#e2e8f0"/><text x="513" y="147" font-size="7.5" fill="#334155">C · Al-Salamah Outlet 12</text><rect x="508" y="152" width="138" height="12" rx="2" fill="#f8fafc" stroke="#e2e8f0"/><text x="513" y="161" font-size="7.5" fill="#334155">B · Obhur Outlet 25</text><rect x="508" y="166" width="138" height="12" rx="2" fill="#f8fafc" stroke="#e2e8f0"/><text x="513" y="175" font-size="7.5" fill="#334155">C · Obhur Outlet 28</text><rect x="508" y="180" width="138" height="12" rx="2" fill="#f8fafc" stroke="#e2e8f0"/><text x="513" y="189" font-size="7.5" fill="#334155">A · Obhur Outlet 32</text><rect x="508" y="194" width="138" height="12" rx="2" fill="#f8fafc" stroke="#e2e8f0"/><text x="513" y="203" font-size="7.5" fill="#334155">B · Al-Salamah Outlet 33</text><rect x="508" y="208" width="138" height="12" rx="2" fill="#f8fafc" stroke="#e2e8f0"/><text x="513" y="217" font-size="7.5" fill="#334155">C · Obhur Outlet 49</text><rect x="508" y="222" width="138" height="12" rx="2" fill="#f8fafc" stroke="#e2e8f0"/><text x="513" y="231" font-size="7.5" fill="#334155">C · Obhur Outlet 53</text><rect x="508" y="236" width="138" height="12" rx="2" fill="#f8fafc" stroke="#e2e8f0"/><text x="513" y="245" font-size="7.5" fill="#334155">C · Obhur Outlet 62</text><rect x="508" y="250" width="138" height="12" rx="2" fill="#f8fafc" stroke="#e2e8f0"/><text x="513" y="259" font-size="7.5" fill="#334155">B · Obhur Outlet 66</text><rect x="508" y="264" width="138" height="12" rx="2" fill="#f8fafc" stroke="#e2e8f0"/><text x="513" y="273" font-size="7.5" fill="#334155">B · Al-Salamah Outlet 70</text><rect x="508" y="278" width="138" height="12" rx="2" fill="#f8fafc" stroke="#e2e8f0"/><text x="513" y="287" font-size="7.5" fill="#334155">B · Obhur Outlet 71</text><rect x="508" y="292" width="138" height="12" rx="2" fill="#f8fafc" stroke="#e2e8f0"/><text x="513" y="301" font-size="7.5" fill="#334155">C · Al-Salamah Outlet 73</text><rect x="508" y="306" width="138" height="12" rx="2" fill="#f8fafc" stroke="#e2e8f0"/><text x="513" y="315" font-size="7.5" fill="#334155">C · Al-Salamah Outlet 75</text><rect x="508" y="320" width="138" height="12" rx="2" fill="#f8fafc" stroke="#e2e8f0"/><text x="513" y="329" font-size="7.5" fill="#334155">C · Obhur Outlet 79</text><rect x="508" y="334" width="138" height="12" rx="2" fill="#f8fafc" stroke="#e2e8f0"/><text x="513" y="343" font-size="7.5" fill="#334155">B · Al-Salamah Outlet 80</text><rect x="508" y="348" width="138" height="12" rx="2" fill="#f8fafc" stroke="#e2e8f0"/><text x="513" y="357" font-size="7.5" fill="#334155">B · Obhur Outlet 83</text><rect x="508" y="362" width="138" height="12" rx="2" fill="#f8fafc" stroke="#e2e8f0"/><text x="513" y="371" font-size="7.5" fill="#334155">C · Al-Salamah Outlet 10</text><rect x="508" y="376" width="138" height="12" rx="2" fill="#f8fafc" stroke="#e2e8f0"/><text x="513" y="385" font-size="7.5" fill="#334155">C · Al-Salamah Outlet 10</text><rect x="508" y="390" width="138" height="12" rx="2" fill="#f8fafc" stroke="#e2e8f0"/><text x="513" y="399" font-size="7.5" fill="#334155">C · Al-Salamah Outlet 12</text><rect x="508" y="404" width="138" height="12" rx="2" fill="#f8fafc" stroke="#e2e8f0"/><text x="513" y="413" font-size="7.5" fill="#334155">A · Al-Salamah Outlet 14</text><rect x="508" y="418" width="138" height="12" rx="2" fill="#f8fafc" stroke="#e2e8f0"/><text x="513" y="427" font-size="7.5" fill="#334155">C · Obhur Outlet 153</text><text x="510" y="436" font-size="9" fill="#94a3b8">+46 more</text><rect x="664" y="82" width="150" height="366" rx="6" fill="#ffffff" stroke="#e2e8f0"/><text x="672" y="100" font-size="11" font-weight="700" fill="#0f172a">Salesman 5</text><text x="672" y="114" font-size="9" fill="#64748b">52 cust · 79v · 870k SAR</text><rect x="670" y="124" width="138" height="12" rx="2" fill="#f8fafc" stroke="#e2e8f0"/><text x="675" y="133" font-size="7.5" fill="#334155">C · Al-Naeem Outlet 1</text><rect x="670" y="138" width="138" height="12" rx="2" fill="#f8fafc" stroke="#e2e8f0"/><text x="675" y="147" font-size="7.5" fill="#334155">D · Al-Naeem Outlet 10</text><rect x="670" y="152" width="138" height="12" rx="2" fill="#f8fafc" stroke="#e2e8f0"/><text x="675" y="161" font-size="7.5" fill="#334155">C · Al-Naeem Outlet 30</text><rect x="670" y="166" width="138" height="12" rx="2" fill="#f8fafc" stroke="#e2e8f0"/><text x="675" y="175" font-size="7.5" fill="#334155">A · Al-Naeem Outlet 41</text><rect x="670" y="180" width="138" height="12" rx="2" fill="#f8fafc" stroke="#e2e8f0"/><text x="675" y="189" font-size="7.5" fill="#334155">B · Al-Khomrah Outlet 42</text><rect x="670" y="194" width="138" height="12" rx="2" fill="#f8fafc" stroke="#e2e8f0"/><text x="675" y="203" font-size="7.5" fill="#334155">A · Al-Naeem Outlet 45</text><rect x="670" y="208" width="138" height="12" rx="2" fill="#f8fafc" stroke="#e2e8f0"/><text x="675" y="217" font-size="7.5" fill="#334155">C · Al-Khomrah Outlet 52</text><rect x="670" y="222" width="138" height="12" rx="2" fill="#f8fafc" stroke="#e2e8f0"/><text x="675" y="231" font-size="7.5" fill="#334155">C · Al-Khomrah Outlet 57</text><rect x="670" y="236" width="138" height="12" rx="2" fill="#f8fafc" stroke="#e2e8f0"/><text x="675" y="245" font-size="7.5" fill="#334155">D · Al-Khomrah Outlet 61</text><rect x="670" y="250" width="138" height="12" rx="2" fill="#f8fafc" stroke="#e2e8f0"/><text x="675" y="259" font-size="7.5" fill="#334155">A · Al-Khomrah Outlet 77</text><rect x="670" y="264" width="138" height="12" rx="2" fill="#f8fafc" stroke="#e2e8f0"/><text x="675" y="273" font-size="7.5" fill="#334155">C · Al-Naeem Outlet 84</text><rect x="670" y="278" width="138" height="12" rx="2" fill="#f8fafc" stroke="#e2e8f0"/><text x="675" y="287" font-size="7.5" fill="#334155">D · Al-Khomrah Outlet 10</text><rect x="670" y="292" width="138" height="12" rx="2" fill="#f8fafc" stroke="#e2e8f0"/><text x="675" y="301" font-size="7.5" fill="#334155">C · Al-Khomrah Outlet 10</text><rect x="670" y="306" width="138" height="12" rx="2" fill="#f8fafc" stroke="#e2e8f0"/><text x="675" y="315" font-size="7.5" fill="#334155">D · Al-Naeem Outlet 128</text><rect x="670" y="320" width="138" height="12" rx="2" fill="#f8fafc" stroke="#e2e8f0"/><text x="675" y="329" font-size="7.5" fill="#334155">C · Al-Naeem Outlet 131</text><rect x="670" y="334" width="138" height="12" rx="2" fill="#f8fafc" stroke="#e2e8f0"/><text x="675" y="343" font-size="7.5" fill="#334155">D · Al-Naeem Outlet 132</text><rect x="670" y="348" width="138" height="12" rx="2" fill="#f8fafc" stroke="#e2e8f0"/><text x="675" y="357" font-size="7.5" fill="#334155">C · Al-Naeem Outlet 135</text><rect x="670" y="362" width="138" height="12" rx="2" fill="#f8fafc" stroke="#e2e8f0"/><text x="675" y="371" font-size="7.5" fill="#334155">C · Al-Naeem Outlet 143</text><rect x="670" y="376" width="138" height="12" rx="2" fill="#f8fafc" stroke="#e2e8f0"/><text x="675" y="385" font-size="7.5" fill="#334155">B · Al-Khomrah Outlet 14</text><rect x="670" y="390" width="138" height="12" rx="2" fill="#f8fafc" stroke="#e2e8f0"/><text x="675" y="399" font-size="7.5" fill="#334155">A · Al-Naeem Outlet 150</text><rect x="670" y="404" width="138" height="12" rx="2" fill="#f8fafc" stroke="#e2e8f0"/><text x="675" y="413" font-size="7.5" fill="#334155">C · Al-Naeem Outlet 156</text><rect x="670" y="418" width="138" height="12" rx="2" fill="#f8fafc" stroke="#e2e8f0"/><text x="675" y="427" font-size="7.5" fill="#334155">B · Al-Khomrah Outlet 16</text><text x="672" y="436" font-size="9" fill="#94a3b8">+30 more</text><rect x="826" y="82" width="150" height="366" rx="6" fill="#ffffff" stroke="#e2e8f0"/><text x="834" y="100" font-size="11" font-weight="700" fill="#0f172a">Salesman 6</text><text x="834" y="114" font-size="9" fill="#64748b">20 cust · 32v · 312k SAR</text><rect x="832" y="124" width="138" height="12" rx="2" fill="#f8fafc" stroke="#e2e8f0"/><text x="837" y="133" font-size="7.5" fill="#334155">D · Al-Shati Outlet 104</text><rect x="832" y="138" width="138" height="12" rx="2" fill="#f8fafc" stroke="#e2e8f0"/><text x="837" y="147" font-size="7.5" fill="#334155">C · Al-Shati Outlet 126</text><rect x="832" y="152" width="138" height="12" rx="2" fill="#f8fafc" stroke="#e2e8f0"/><text x="837" y="161" font-size="7.5" fill="#334155">C · Al-Shati Outlet 151</text><rect x="832" y="166" width="138" height="12" rx="2" fill="#f8fafc" stroke="#e2e8f0"/><text x="837" y="175" font-size="7.5" fill="#334155">A · Al-Shati Outlet 172</text><rect x="832" y="180" width="138" height="12" rx="2" fill="#f8fafc" stroke="#e2e8f0"/><text x="837" y="189" font-size="7.5" fill="#334155">C · Al-Shati Outlet 183</text><rect x="832" y="194" width="138" height="12" rx="2" fill="#f8fafc" stroke="#e2e8f0"/><text x="837" y="203" font-size="7.5" fill="#334155">A · Al-Shati Outlet 286</text><rect x="832" y="208" width="138" height="12" rx="2" fill="#f8fafc" stroke="#e2e8f0"/><text x="837" y="217" font-size="7.5" fill="#334155">D · Al-Shati Outlet 288</text><rect x="832" y="222" width="138" height="12" rx="2" fill="#f8fafc" stroke="#e2e8f0"/><text x="837" y="231" font-size="7.5" fill="#334155">C · Al-Shati Outlet 297</text><rect x="832" y="236" width="138" height="12" rx="2" fill="#f8fafc" stroke="#e2e8f0"/><text x="837" y="245" font-size="7.5" fill="#334155">B · Al-Shati Outlet 339</text><rect x="832" y="250" width="138" height="12" rx="2" fill="#f8fafc" stroke="#e2e8f0"/><text x="837" y="259" font-size="7.5" fill="#334155">C · Al-Shati Outlet 348</text><rect x="832" y="264" width="138" height="12" rx="2" fill="#f8fafc" stroke="#e2e8f0"/><text x="837" y="273" font-size="7.5" fill="#334155">C · Al-Shati Outlet 375</text><rect x="832" y="278" width="138" height="12" rx="2" fill="#f8fafc" stroke="#e2e8f0"/><text x="837" y="287" font-size="7.5" fill="#334155">B · Al-Shati Outlet 396</text><rect x="832" y="292" width="138" height="12" rx="2" fill="#f8fafc" stroke="#e2e8f0"/><text x="837" y="301" font-size="7.5" fill="#334155">C · Al-Shati Outlet 423</text><rect x="832" y="306" width="138" height="12" rx="2" fill="#f8fafc" stroke="#e2e8f0"/><text x="837" y="315" font-size="7.5" fill="#334155">B · Al-Shati Outlet 434</text><rect x="832" y="320" width="138" height="12" rx="2" fill="#f8fafc" stroke="#e2e8f0"/><text x="837" y="329" font-size="7.5" fill="#334155">A · Al-Shati Outlet 441</text><rect x="832" y="334" width="138" height="12" rx="2" fill="#f8fafc" stroke="#e2e8f0"/><text x="837" y="343" font-size="7.5" fill="#334155">D · Al-Shati Outlet 476</text><rect x="832" y="348" width="138" height="12" rx="2" fill="#f8fafc" stroke="#e2e8f0"/><text x="837" y="357" font-size="7.5" fill="#334155">B · Al-Shati Outlet 480</text><rect x="832" y="362" width="138" height="12" rx="2" fill="#f8fafc" stroke="#e2e8f0"/><text x="837" y="371" font-size="7.5" fill="#334155">B · Al-Shati Outlet 498</text><rect x="832" y="376" width="138" height="12" rx="2" fill="#f8fafc" stroke="#e2e8f0"/><text x="837" y="385" font-size="7.5" fill="#334155">B · Al-Shati Outlet 499</text><rect x="832" y="390" width="138" height="12" rx="2" fill="#f8fafc" stroke="#e2e8f0"/><text x="837" y="399" font-size="7.5" fill="#334155">C · Al-Shati Outlet 500</text><rect x="988" y="82" width="150" height="366" rx="6" fill="#ffffff" stroke="#e2e8f0"/><text x="996" y="100" font-size="11" font-weight="700" fill="#0f172a">Salesman 7</text><text x="996" y="114" font-size="9" fill="#64748b">40 cust · 63v · 714k SAR</text><rect x="994" y="124" width="138" height="12" rx="2" fill="#f8fafc" stroke="#e2e8f0"/><text x="999" y="133" font-size="7.5" fill="#334155">C · Al-Faisaliyah Outlet</text><rect x="994" y="138" width="138" height="12" rx="2" fill="#f8fafc" stroke="#e2e8f0"/><text x="999" y="147" font-size="7.5" fill="#334155">A · Al-Faisaliyah Outlet</text><rect x="994" y="152" width="138" height="12" rx="2" fill="#f8fafc" stroke="#e2e8f0"/><text x="999" y="161" font-size="7.5" fill="#334155">C · Al-Faisaliyah Outlet</text><rect x="994" y="166" width="138" height="12" rx="2" fill="#f8fafc" stroke="#e2e8f0"/><text x="999" y="175" font-size="7.5" fill="#334155">C · Al-Faisaliyah Outlet</text><rect x="994" y="180" width="138" height="12" rx="2" fill="#f8fafc" stroke="#e2e8f0"/><text x="999" y="189" font-size="7.5" fill="#334155">B · Al-Faisaliyah Outlet</text><rect x="994" y="194" width="138" height="12" rx="2" fill="#f8fafc" stroke="#e2e8f0"/><text x="999" y="203" font-size="7.5" fill="#334155">B · Al-Faisaliyah Outlet</text><rect x="994" y="208" width="138" height="12" rx="2" fill="#f8fafc" stroke="#e2e8f0"/><text x="999" y="217" font-size="7.5" fill="#334155">A · Al-Faisaliyah Outlet</text><rect x="994" y="222" width="138" height="12" rx="2" fill="#f8fafc" stroke="#e2e8f0"/><text x="999" y="231" font-size="7.5" fill="#334155">C · Al-Faisaliyah Outlet</text><rect x="994" y="236" width="138" height="12" rx="2" fill="#f8fafc" stroke="#e2e8f0"/><text x="999" y="245" font-size="7.5" fill="#334155">C · Al-Faisaliyah Outlet</text><rect x="994" y="250" width="138" height="12" rx="2" fill="#f8fafc" stroke="#e2e8f0"/><text x="999" y="259" font-size="7.5" fill="#334155">C · Al-Faisaliyah Outlet</text><rect x="994" y="264" width="138" height="12" rx="2" fill="#f8fafc" stroke="#e2e8f0"/><text x="999" y="273" font-size="7.5" fill="#334155">C · Al-Faisaliyah Outlet</text><rect x="994" y="278" width="138" height="12" rx="2" fill="#f8fafc" stroke="#e2e8f0"/><text x="999" y="287" font-size="7.5" fill="#334155">C · Al-Faisaliyah Outlet</text><rect x="994" y="292" width="138" height="12" rx="2" fill="#f8fafc" stroke="#e2e8f0"/><text x="999" y="301" font-size="7.5" fill="#334155">B · Al-Faisaliyah Outlet</text><rect x="994" y="306" width="138" height="12" rx="2" fill="#f8fafc" stroke="#e2e8f0"/><text x="999" y="315" font-size="7.5" fill="#334155">C · Al-Faisaliyah Outlet</text><rect x="994" y="320" width="138" height="12" rx="2" fill="#f8fafc" stroke="#e2e8f0"/><text x="999" y="329" font-size="7.5" fill="#334155">D · Al-Faisaliyah Outlet</text><rect x="994" y="334" width="138" height="12" rx="2" fill="#f8fafc" stroke="#e2e8f0"/><text x="999" y="343" font-size="7.5" fill="#334155">D · Al-Faisaliyah Outlet</text><rect x="994" y="348" width="138" height="12" rx="2" fill="#f8fafc" stroke="#e2e8f0"/><text x="999" y="357" font-size="7.5" fill="#334155">C · Al-Faisaliyah Outlet</text><rect x="994" y="362" width="138" height="12" rx="2" fill="#f8fafc" stroke="#e2e8f0"/><text x="999" y="371" font-size="7.5" fill="#334155">D · Al-Faisaliyah Outlet</text><rect x="994" y="376" width="138" height="12" rx="2" fill="#f8fafc" stroke="#e2e8f0"/><text x="999" y="385" font-size="7.5" fill="#334155">C · Al-Faisaliyah Outlet</text><rect x="994" y="390" width="138" height="12" rx="2" fill="#f8fafc" stroke="#e2e8f0"/><text x="999" y="399" font-size="7.5" fill="#334155">C · Al-Faisaliyah Outlet</text><rect x="994" y="404" width="138" height="12" rx="2" fill="#f8fafc" stroke="#e2e8f0"/><text x="999" y="413" font-size="7.5" fill="#334155">B · Al-Faisaliyah Outlet</text><rect x="994" y="418" width="138" height="12" rx="2" fill="#f8fafc" stroke="#e2e8f0"/><text x="999" y="427" font-size="7.5" fill="#334155">D · Al-Faisaliyah Outlet</text><text x="996" y="436" font-size="9" fill="#94a3b8">+18 more</text><rect x="1150" y="82" width="150" height="366" rx="6" fill="#ffffff" stroke="#e2e8f0"/><text x="1158" y="100" font-size="11" font-weight="700" fill="#0f172a">Salesman 8</text><text x="1158" y="114" font-size="9" fill="#64748b">34 cust · 55v · 567k SAR</text><rect x="1156" y="124" width="138" height="12" rx="2" fill="#f8fafc" stroke="#e2e8f0"/><text x="1161" y="133" font-size="7.5" fill="#334155">C · Al-Aziziyah Outlet 1</text><rect x="1156" y="138" width="138" height="12" rx="2" fill="#f8fafc" stroke="#e2e8f0"/><text x="1161" y="147" font-size="7.5" fill="#334155">C · Al-Aziziyah Outlet 1</text><rect x="1156" y="152" width="138" height="12" rx="2" fill="#f8fafc" stroke="#e2e8f0"/><text x="1161" y="161" font-size="7.5" fill="#334155">D · Al-Aziziyah Outlet 2</text><rect x="1156" y="166" width="138" height="12" rx="2" fill="#f8fafc" stroke="#e2e8f0"/><text x="1161" y="175" font-size="7.5" fill="#334155">B · Al-Aziziyah Outlet 2</text><rect x="1156" y="180" width="138" height="12" rx="2" fill="#f8fafc" stroke="#e2e8f0"/><text x="1161" y="189" font-size="7.5" fill="#334155">C · Al-Aziziyah Outlet 4</text><rect x="1156" y="194" width="138" height="12" rx="2" fill="#f8fafc" stroke="#e2e8f0"/><text x="1161" y="203" font-size="7.5" fill="#334155">B · Al-Aziziyah Outlet 4</text><rect x="1156" y="208" width="138" height="12" rx="2" fill="#f8fafc" stroke="#e2e8f0"/><text x="1161" y="217" font-size="7.5" fill="#334155">C · Al-Aziziyah Outlet 5</text><rect x="1156" y="222" width="138" height="12" rx="2" fill="#f8fafc" stroke="#e2e8f0"/><text x="1161" y="231" font-size="7.5" fill="#334155">C · Al-Aziziyah Outlet 5</text><rect x="1156" y="236" width="138" height="12" rx="2" fill="#f8fafc" stroke="#e2e8f0"/><text x="1161" y="245" font-size="7.5" fill="#334155">B · Al-Aziziyah Outlet 8</text><rect x="1156" y="250" width="138" height="12" rx="2" fill="#f8fafc" stroke="#e2e8f0"/><text x="1161" y="259" font-size="7.5" fill="#334155">A · Al-Aziziyah Outlet 9</text><rect x="1156" y="264" width="138" height="12" rx="2" fill="#f8fafc" stroke="#e2e8f0"/><text x="1161" y="273" font-size="7.5" fill="#334155">C · Al-Aziziyah Outlet 1</text><rect x="1156" y="278" width="138" height="12" rx="2" fill="#f8fafc" stroke="#e2e8f0"/><text x="1161" y="287" font-size="7.5" fill="#334155">C · Al-Aziziyah Outlet 1</text><rect x="1156" y="292" width="138" height="12" rx="2" fill="#f8fafc" stroke="#e2e8f0"/><text x="1161" y="301" font-size="7.5" fill="#334155">D · Al-Aziziyah Outlet 1</text><rect x="1156" y="306" width="138" height="12" rx="2" fill="#f8fafc" stroke="#e2e8f0"/><text x="1161" y="315" font-size="7.5" fill="#334155">A · Al-Aziziyah Outlet 1</text><rect x="1156" y="320" width="138" height="12" rx="2" fill="#f8fafc" stroke="#e2e8f0"/><text x="1161" y="329" font-size="7.5" fill="#334155">B · Al-Aziziyah Outlet 1</text><rect x="1156" y="334" width="138" height="12" rx="2" fill="#f8fafc" stroke="#e2e8f0"/><text x="1161" y="343" font-size="7.5" fill="#334155">B · Al-Aziziyah Outlet 2</text><rect x="1156" y="348" width="138" height="12" rx="2" fill="#f8fafc" stroke="#e2e8f0"/><text x="1161" y="357" font-size="7.5" fill="#334155">B · Al-Aziziyah Outlet 2</text><rect x="1156" y="362" width="138" height="12" rx="2" fill="#f8fafc" stroke="#e2e8f0"/><text x="1161" y="371" font-size="7.5" fill="#334155">C · Al-Aziziyah Outlet 2</text><rect x="1156" y="376" width="138" height="12" rx="2" fill="#f8fafc" stroke="#e2e8f0"/><text x="1161" y="385" font-size="7.5" fill="#334155">B · Al-Aziziyah Outlet 2</text><rect x="1156" y="390" width="138" height="12" rx="2" fill="#f8fafc" stroke="#e2e8f0"/><text x="1161" y="399" font-size="7.5" fill="#334155">C · Al-Aziziyah Outlet 2</text><rect x="1156" y="404" width="138" height="12" rx="2" fill="#f8fafc" stroke="#e2e8f0"/><text x="1161" y="413" font-size="7.5" fill="#334155">C · Al-Aziziyah Outlet 2</text><rect x="1156" y="418" width="138" height="12" rx="2" fill="#f8fafc" stroke="#e2e8f0"/><text x="1161" y="427" font-size="7.5" fill="#334155">D · Al-Aziziyah Outlet 3</text><text x="1158" y="436" font-size="9" fill="#94a3b8">+12 more</text><rect x="1312" y="82" width="150" height="366" rx="6" fill="#ffffff" stroke="#e2e8f0"/><text x="1320" y="100" font-size="11" font-weight="700" fill="#0f172a">No salesman</text><text x="1320" y="114" font-size="9" fill="#64748b">78 cust · 114v · 1079k SAR</text><rect x="1318" y="124" width="138" height="12" rx="2" fill="#f8fafc" stroke="#e2e8f0"/><text x="1323" y="133" font-size="7.5" fill="#334155">C · Al-Rawdah Outlet 4</text><rect x="1318" y="138" width="138" height="12" rx="2" fill="#f8fafc" stroke="#e2e8f0"/><text x="1323" y="147" font-size="7.5" fill="#334155">C · Al-Naseem Outlet 8</text><rect x="1318" y="152" width="138" height="12" rx="2" fill="#f8fafc" stroke="#e2e8f0"/><text x="1323" y="161" font-size="7.5" fill="#334155">C · Al-Balad Outlet 14</text><rect x="1318" y="166" width="138" height="12" rx="2" fill="#f8fafc" stroke="#e2e8f0"/><text x="1323" y="175" font-size="7.5" fill="#334155">C · Al-Faisaliyah Outlet</text><rect x="1318" y="180" width="138" height="12" rx="2" fill="#f8fafc" stroke="#e2e8f0"/><text x="1323" y="189" font-size="7.5" fill="#334155">B · Al-Hamra Outlet 34</text><rect x="1318" y="194" width="138" height="12" rx="2" fill="#f8fafc" stroke="#e2e8f0"/><text x="1323" y="203" font-size="7.5" fill="#334155">C · Obhur Outlet 35</text><rect x="1318" y="208" width="138" height="12" rx="2" fill="#f8fafc" stroke="#e2e8f0"/><text x="1323" y="217" font-size="7.5" fill="#334155">A · Al-Faisaliyah Outlet</text><rect x="1318" y="222" width="138" height="12" rx="2" fill="#f8fafc" stroke="#e2e8f0"/><text x="1323" y="231" font-size="7.5" fill="#334155">C · Al-Aziziyah Outlet 4</text><rect x="1318" y="236" width="138" height="12" rx="2" fill="#f8fafc" stroke="#e2e8f0"/><text x="1323" y="245" font-size="7.5" fill="#334155">B · Al-Shati Outlet 54</text><rect x="1318" y="250" width="138" height="12" rx="2" fill="#f8fafc" stroke="#e2e8f0"/><text x="1323" y="259" font-size="7.5" fill="#334155">C · Al-Shati Outlet 63</text><rect x="1318" y="264" width="138" height="12" rx="2" fill="#f8fafc" stroke="#e2e8f0"/><text x="1323" y="273" font-size="7.5" fill="#334155">C · Al-Salamah Outlet 64</text><rect x="1318" y="278" width="138" height="12" rx="2" fill="#f8fafc" stroke="#e2e8f0"/><text x="1323" y="287" font-size="7.5" fill="#334155">A · Al-Khomrah Outlet 65</text><rect x="1318" y="292" width="138" height="12" rx="2" fill="#f8fafc" stroke="#e2e8f0"/><text x="1323" y="301" font-size="7.5" fill="#334155">B · Al-Rawdah Outlet 72</text><rect x="1318" y="306" width="138" height="12" rx="2" fill="#f8fafc" stroke="#e2e8f0"/><text x="1323" y="315" font-size="7.5" fill="#334155">C · Al-Hamra Outlet 74</text><rect x="1318" y="320" width="138" height="12" rx="2" fill="#f8fafc" stroke="#e2e8f0"/><text x="1323" y="329" font-size="7.5" fill="#334155">C · Al-Naseem Outlet 82</text><rect x="1318" y="334" width="138" height="12" rx="2" fill="#f8fafc" stroke="#e2e8f0"/><text x="1323" y="343" font-size="7.5" fill="#334155">C · Al-Faisaliyah Outlet</text><rect x="1318" y="348" width="138" height="12" rx="2" fill="#f8fafc" stroke="#e2e8f0"/><text x="1323" y="357" font-size="7.5" fill="#334155">B · Al-Balad Outlet 94</text><rect x="1318" y="362" width="138" height="12" rx="2" fill="#f8fafc" stroke="#e2e8f0"/><text x="1323" y="371" font-size="7.5" fill="#334155">B · Al-Rawdah Outlet 101</text><rect x="1318" y="376" width="138" height="12" rx="2" fill="#f8fafc" stroke="#e2e8f0"/><text x="1323" y="385" font-size="7.5" fill="#334155">C · Al-Naseem Outlet 109</text><rect x="1318" y="390" width="138" height="12" rx="2" fill="#f8fafc" stroke="#e2e8f0"/><text x="1323" y="399" font-size="7.5" fill="#334155">B · Al-Aziziyah Outlet 1</text><rect x="1318" y="404" width="138" height="12" rx="2" fill="#f8fafc" stroke="#e2e8f0"/><text x="1323" y="413" font-size="7.5" fill="#334155">D · Al-Aziziyah Outlet 1</text><rect x="1318" y="418" width="138" height="12" rx="2" fill="#f8fafc" stroke="#e2e8f0"/><text x="1323" y="427" font-size="7.5" fill="#334155">C · Al-Khomrah Outlet 12</text><text x="1320" y="436" font-size="9" fill="#94a3b8">+56 more</text></svg>