<svg xmlns="http://www.w3.org/2000/svg" width="1004" height="516" viewBox="0 0 1004 516"><rect width="1004" height="516" fill="#f8fafc"/><text x="16" y="22" font-size="15" font-weight="700" fill="#0f172a">Territory Planning Board · Optimized (Jeddah demo, 500 customers)</text><rect x="16" y="32" width="972" height="34" rx="6" fill="#ffffff" stroke="#e2e8f0"/><text x="28" y="46" font-size="9" fill="#64748b">Customers</text><text x="28" y="60" font-size="13" font-weight="700" fill="#0f172a">500</text><text x="163" y="46" font-size="9" fill="#64748b">Visits/wk</text><text x="163" y="60" font-size="13" font-weight="700" fill="#0f172a">747</text><text x="299" y="46" font-size="9" fill="#64748b">Distance</text><text x="299" y="60" font-size="13" font-weight="700" fill="#0f172a">436 km</text><text x="434" y="46" font-size="9" fill="#64748b">Workload bal.</text><text x="434" y="60" font-size="13" font-weight="700" fill="#0f172a">99.5%</text><text x="570" y="46" font-size="9" fill="#64748b">Value bal.</text><text x="570" y="60" font-size="13" font-weight="700" fill="#0f172a">79.3%</text><text x="705" y="46" font-size="9" fill="#64748b">Coverage</text><text x="705" y="60" font-size="13" font-weight="700" fill="#0f172a">59.8%</text><text x="841" y="46" font-size="9" fill="#64748b">Routes</text><text x="841" y="60" font-size="13" font-weight="700" fill="#0f172a">6</text><rect x="16" y="86" width="150" height="418" rx="6" fill="#ffffff" stroke="#e2e8f0"/><text x="24" y="104" font-size="11" font-weight="700" fill="#0f172a">Route 1</text><text x="24" y="118" font-size="9" fill="#64748b">52 cust · 125v · 1762k SAR</text><rect x="22" y="128" width="138" height="13" rx="2" fill="#f8fafc" stroke="#e2e8f0"/><circle cx="29" cy="134.5" r="3" fill="#2563eb"/><text x="36" y="137" font-size="7.5" fill="#334155">A · Al-Marwah Outlet 3</text><rect x="22" y="143" width="138" height="13" rx="2" fill="#f8fafc" stroke="#e2e8f0"/><circle cx="29" cy="149.5" r="3" fill="#16a34a"/><text x="36" y="152" font-size="7.5" fill="#334155">A · Al-Naeem Outlet 41</text><rect x="22" y="158" width="138" height="13" rx="2" fill="#f8fafc" stroke="#e2e8f0"/><circle cx="29" cy="164.5" r="3" fill="#2563eb"/><text x="36" y="167" font-size="7.5" fill="#334155">A · Al-Naeem Outlet 45</text><rect x="22" y="173" width="138" height="13" rx="2" fill="#f8fafc" stroke="#e2e8f0"/><circle cx="29" cy="179.5" r="3" fill="#16a34a"/><text x="36" y="182" font-size="7.5" fill="#334155">A · Al-Marwah Outlet 5</text><rect x="22" y="188" width="138" height="13" rx="2" fill="#f8fafc" stroke="#e2e8f0"/><circle cx="29" cy="194.5" r="3" fill="#2563eb"/><text x="36" y="197" font-size="7.5" fill="#334155">A · Al-Marwah Outlet 9</text><rect x="22" y="203" width="138" height="13" rx="2" fill="#f8fafc" stroke="#e2e8f0"/><circle cx="29" cy="209.5" r="3" fill="#d97706"/><text x="36" y="212" font-size="7.5" fill="#334155">A · Al-Marwah Outlet 1</text><rect x="22" y="218" width="138" height="13" rx="2" fill="#f8fafc" stroke="#e2e8f0"/><circle cx="29" cy="224.5" r="3" fill="#16a34a"/><text x="36" y="227" font-size="7.5" fill="#334155">A · Al-Salamah Outlet </text><rect x="22" y="233" width="138" height="13" rx="2" fill="#f8fafc" stroke="#e2e8f0"/><circle cx="29" cy="239.5" r="3" fill="#16a34a"/><text x="36" y="242" font-size="7.5" fill="#334155">A · Al-Naeem Outlet 15</text><rect x="22" y="248" width="138" height="13" rx="2" fill="#f8fafc" stroke="#e2e8f0"/><circle cx="29" cy="254.5" r="3" fill="#d97706"/><text x="36" y="257" font-size="7.5" fill="#334155">A · Al-Shati Outlet 17</text><rect x="22" y="263" width="138" height="13" rx="2" fill="#f8fafc" stroke="#e2e8f0"/><circle cx="29" cy="269.5" r="3" fill="#d97706"/><text x="36" y="272" font-size="7.5" fill="#334155">B · Al-Naeem Outlet 18</text><rect x="22" y="278" width="138" height="13" rx="2" fill="#f8fafc" stroke="#e2e8f0"/><circle cx="29" cy="284.5" r="3" fill="#dc2626"/><text x="36" y="287" font-size="7.5" fill="#334155">A · Al-Salamah Outlet </text><rect x="22" y="293" width="138" height="13" rx="2" fill="#f8fafc" stroke="#e2e8f0"/><circle cx="29" cy="299.5" r="3" fill="#2563eb"/><text x="36" y="302" font-size="7.5" fill="#334155">A · Al-Salamah Outlet </text><rect x="22" y="308" width="138" height="13" rx="2" fill="#f8fafc" stroke="#e2e8f0"/><circle cx="29" cy="314.5" r="3" fill="#16a34a"/><text x="36" y="317" font-size="7.5" fill="#334155">A · Al-Naeem Outlet 21</text><rect x="22" y="323" width="138" height="13" rx="2" fill="#f8fafc" stroke="#e2e8f0"/><circle cx="29" cy="329.5" r="3" fill="#16a34a"/><text x="36" y="332" font-size="7.5" fill="#334155">B · Al-Marwah Outlet 2</text><rect x="22" y="338" width="138" height="13" rx="2" fill="#f8fafc" stroke="#e2e8f0"/><circle cx="29" cy="344.5" r="3" fill="#dc2626"/><text x="36" y="347" font-size="7.5" fill="#334155">B · Al-Shati Outlet 21</text><rect x="22" y="353" width="138" height="13" rx="2" fill="#f8fafc" stroke="#e2e8f0"/><circle cx="29" cy="359.5" r="3" fill="#dc2626"/><text x="36" y="362" font-size="7.5" fill="#334155">A · Al-Marwah Outlet 2</text><rect x="22" y="368" width="138" height="13" rx="2" fill="#f8fafc" stroke="#e2e8f0"/><circle cx="29" cy="374.5" r="3" fill="#16a34a"/><text x="36" y="377" font-size="7.5" fill="#334155">B · Al-Rawdah Outlet 2</text><rect x="22" y="383" width="138" height="13" rx="2" fill="#f8fafc" stroke="#e2e8f0"/><circle cx="29" cy="389.5" r="3" fill="#d97706"/><text x="36" y="392" font-size="7.5" fill="#334155">A · Al-Salamah Outlet </text><rect x="22" y="398" width="138" height="13" rx="2" fill="#f8fafc" stroke="#e2e8f0"/><circle cx="29" cy="404.5" r="3" fill="#16a34a"/><text x="36" y="407" font-size="7.5" fill="#334155">B · Al-Salamah Outlet </text><rect x="22" y="413" width="138" height="13" rx="2" fill="#f8fafc" stroke="#e2e8f0"/><circle cx="29" cy="419.5" r="3" fill="#2563eb"/><text x="36" y="422" font-size="7.5" fill="#334155">B · Al-Salamah Outlet </text><rect x="22" y="428" width="138" height="13" rx="2" fill="#f8fafc" stroke="#e2e8f0"/><circle cx="29" cy="434.5" r="3" fill="#dc2626"/><text x="36" y="437" font-size="7.5" fill="#334155">B · Al-Marwah Outlet 2</text><rect x="22" y="443" width="138" height="13" rx="2" fill="#f8fafc" stroke="#e2e8f0"/><circle cx="29" cy="449.5" r="3" fill="#16a34a"/><text x="36" y="452" font-size="7.5" fill="#334155">B · Al-Naeem Outlet 26</text><rect x="22" y="458" width="138" height="13" rx="2" fill="#f8fafc" stroke="#e2e8f0"/><circle cx="29" cy="464.5" r="3" fill="#16a34a"/><text x="36" y="467" font-size="7.5" fill="#334155">B · Al-Rawdah Outlet 2</text><rect x="22" y="473" width="138" height="13" rx="2" fill="#f8fafc" stroke="#e2e8f0"/><circle cx="29" cy="479.5" r="3" fill="#16a34a"/><text x="36" y="482" font-size="7.5" fill="#334155">A · Al-Shati Outlet 28</text><text x="24" y="492" font-size="9" fill="#94a3b8">+28 more</text><rect x="178" y="86" width="150" height="418" rx="6" fill="#ffffff" stroke="#e2e8f0"/><text x="186" y="104" font-size="11" font-weight="700" fill="#0f172a">Route 2</text><text x="186" y="118" font-size="9" fill="#64748b">123 cust · 124v · 933k SAR</text><rect x="184" y="128" width="138" height="13" rx="2" fill="#f8fafc" stroke="#e2e8f0"/><circle cx="191" cy="134.5" r="3" fill="#16a34a"/><text x="198" y="137" font-size="7.5" fill="#334155">C · Al-Naeem Outlet 1</text><rect x="184" y="143" width="138" height="13" rx="2" fill="#f8fafc" stroke="#e2e8f0"/><circle cx="191" cy="149.5" r="3" fill="#d97706"/><text x="198" y="152" font-size="7.5" fill="#334155">C · Al-Rawdah Outlet 4</text><rect x="184" y="158" width="138" height="13" rx="2" fill="#f8fafc" stroke="#e2e8f0"/><circle cx="191" cy="164.5" r="3" fill="#d97706"/><text x="198" y="167" font-size="7.5" fill="#334155">C · Al-Rawdah Outlet 7</text><rect x="184" y="173" width="138" height="13" rx="2" fill="#f8fafc" stroke="#e2e8f0"/><circle cx="191" cy="179.5" r="3" fill="#2563eb"/><text x="198" y="182" font-size="7.5" fill="#334155">D · Al-Rawdah Outlet 9</text><rect x="184" y="188" width="138" height="13" rx="2" fill="#f8fafc" stroke="#e2e8f0"/><circle cx="191" cy="194.5" r="3" fill="#16a34a"/><text x="198" y="197" font-size="7.5" fill="#334155">D · Al-Naeem Outlet 10</text><rect x="184" y="203" width="138" height="13" rx="2" fill="#f8fafc" stroke="#e2e8f0"/><circle cx="191" cy="209.5" r="3" fill="#dc2626"/><text x="198" y="212" font-size="7.5" fill="#334155">C · Al-Balad Outlet 14</text><rect x="184" y="218" width="138" height="13" rx="2" fill="#f8fafc" stroke="#e2e8f0"/><circle cx="191" cy="224.5" r="3" fill="#16a34a"/><text x="198" y="227" font-size="7.5" fill="#334155">C · Al-Faisaliyah Outl</text><rect x="184" y="233" width="138" height="13" rx="2" fill="#f8fafc" stroke="#e2e8f0"/><circle cx="191" cy="239.5" r="3" fill="#16a34a"/><text x="198" y="242" font-size="7.5" fill="#334155">C · Al-Marwah Outlet 1</text><rect x="184" y="248" width="138" height="13" rx="2" fill="#f8fafc" stroke="#e2e8f0"/><circle cx="191" cy="254.5" r="3" fill="#d97706"/><text x="198" y="257" font-size="7.5" fill="#334155">C · Al-Aziziyah Outlet</text><rect x="184" y="263" width="138" height="13" rx="2" fill="#f8fafc" stroke="#e2e8f0"/><circle cx="191" cy="269.5" r="3" fill="#d97706"/><text x="198" y="272" font-size="7.5" fill="#334155">D · Al-Aziziyah Outlet</text><rect x="184" y="278" width="138" height="13" rx="2" fill="#f8fafc" stroke="#e2e8f0"/><circle cx="191" cy="284.5" r="3" fill="#16a34a"/><text x="198" y="287" font-size="7.5" fill="#334155">C · Al-Hamra Outlet 22</text><rect x="184" y="293" width="138" height="13" rx="2" fill="#f8fafc" stroke="#e2e8f0"/><circle cx="191" cy="299.5" r="3" fill="#2563eb"/><text x="198" y="302" font-size="7.5" fill="#334155">D · Al-Marwah Outlet 2</text><rect x="184" y="308" width="138" height="13" rx="2" fill="#f8fafc" stroke="#e2e8f0"/><circle cx="191" cy="314.5" r="3" fill="#16a34a"/><text x="198" y="317" font-size="7.5" fill="#334155">C · Al-Hamra Outlet 29</text><rect x="184" y="323" width="138" height="13" rx="2" fill="#f8fafc" stroke="#e2e8f0"/><circle cx="191" cy="329.5" r="3" fill="#16a34a"/><text x="198" y="332" font-size="7.5" fill="#334155">C · Al-Faisaliyah Outl</text><rect x="184" y="338" width="138" height="13" rx="2" fill="#f8fafc" stroke="#e2e8f0"/><circle cx="191" cy="344.5" r="3" fill="#16a34a"/><text x="198" y="347" font-size="7.5" fill="#334155">B · Al-Khomrah Outlet </text><rect x="184" y="353" width="138" height="13" rx="2" fill="#f8fafc" stroke="#e2e8f0"/><circle cx="191" cy="359.5" r="3" fill="#16a34a"/><text x="198" y="362" font-size="7.5" fill="#334155">C · Al-Aziziyah Outlet</text><rect x="184" y="368" width="138" height="13" rx="2" fill="#f8fafc" stroke="#e2e8f0"/><circle cx="191" cy="374.5" r="3" fill="#16a34a"/><text x="198" y="377" font-size="7.5" fill="#334155">C · Al-Hamra Outlet 50</text><rect x="184" y="383" width="138" height="13" rx="2" fill="#f8fafc" stroke="#e2e8f0"/><circle cx="191" cy="389.5" r="3" fill="#dc2626"/><text x="198" y="392" font-size="7.5" fill="#334155">C · Al-Khomrah Outlet </text><rect x="184" y="398" width="138" height="13" rx="2" fill="#f8fafc" stroke="#e2e8f0"/><circle cx="191" cy="404.5" r="3" fill="#16a34a"/><text x="198" y="407" font-size="7.5" fill="#334155">C · Al-Aziziyah Outlet</text><rect x="184" y="413" width="138" height="13" rx="2" fill="#f8fafc" stroke="#e2e8f0"/><circle cx="191" cy="419.5" r="3" fill="#dc2626"/><text x="198" y="422" font-size="7.5" fill="#334155">C · Al-Khomrah Outlet </text><rect x="184" y="428" width="138" height="13" rx="2" fill="#f8fafc" stroke="#e2e8f0"/><circle cx="191" cy="434.5" r="3" fill="#16a34a"/><text x="198" y="437" font-size="7.5" fill="#334155">C · Al-Faisaliyah Outl</text><rect x="184" y="443" width="138" height="13" rx="2" fill="#f8fafc" stroke="#e2e8f0"/><circle cx="191" cy="449.5" r="3" fill="#dc2626"/><text x="198" y="452" font-size="7.5" fill="#334155">D · Al-Khomrah Outlet </text><rect x="184" y="458" width="138" height="13" rx="2" fill="#f8fafc" stroke="#e2e8f0"/><circle cx="191" cy="464.5" r="3" fill="#16a34a"/><text x="198" y="467" font-size="7.5" fill="#334155">C · Al-Shati Outlet 63</text><rect x="184" y="473" width="138" height="13" rx="2" fill="#f8fafc" stroke="#e2e8f0"/><circle cx="191" cy="479.5" r="3" fill="#dc2626"/><text x="198" y="482" font-size="7.5" fill="#334155">A · Al-Khomrah Outlet </text><text x="186" y="492" font-size="9" fill="#94a3b8">+99 more</text><rect x="340" y="86" width="150" height="418" rx="6" fill="#ffffff" stroke="#e2e8f0"/><text x="348" y="104" font-size="11" font-weight="700" fill="#0f172a">Route 3</text><text x="348" y="118" font-size="9" fill="#64748b">101 cust · 124v · 1054k SAR</text><rect x="346" y="128" width="138" height="13" rx="2" fill="#f8fafc" stroke="#e2e8f0"/><circle cx="353" cy="134.5" r="3" fill="#d97706"/><text x="360" y="137" font-size="7.5" fill="#334155">D · Obhur Outlet 6</text><rect x="346" y="143" width="138" height="13" rx="2" fill="#f8fafc" stroke="#e2e8f0"/><circle cx="353" cy="149.5" r="3" fill="#16a34a"/><text x="360" y="152" font-size="7.5" fill="#334155">C · Al-Salamah Outlet </text><rect x="346" y="158" width="138" height="13" rx="2" fill="#f8fafc" stroke="#e2e8f0"/><circle cx="353" cy="164.5" r="3" fill="#2563eb"/><text x="360" y="167" font-size="7.5" fill="#334155">C · Al-Aziziyah Outlet</text><rect x="346" y="173" width="138" height="13" rx="2" fill="#f8fafc" stroke="#e2e8f0"/><circle cx="353" cy="179.5" r="3" fill="#d97706"/><text x="360" y="182" font-size="7.5" fill="#334155">B · Obhur Outlet 25</text><rect x="346" y="188" width="138" height="13" rx="2" fill="#f8fafc" stroke="#e2e8f0"/><circle cx="353" cy="194.5" r="3" fill="#16a34a"/><text x="360" y="197" font-size="7.5" fill="#334155">C · Obhur Outlet 28</text><rect x="346" y="203" width="138" height="13" rx="2" fill="#f8fafc" stroke="#e2e8f0"/><circle cx="353" cy="209.5" r="3" fill="#16a34a"/><text x="360" y="212" font-size="7.5" fill="#334155">C · Al-Naeem Outlet 30</text><rect x="346" y="218" width="138" height="13" rx="2" fill="#f8fafc" stroke="#e2e8f0"/><circle cx="353" cy="224.5" r="3" fill="#dc2626"/><text x="360" y="227" font-size="7.5" fill="#334155">A · Obhur Outlet 32</text><rect x="346" y="233" width="138" height="13" rx="2" fill="#f8fafc" stroke="#e2e8f0"/><circle cx="353" cy="239.5" r="3" fill="#d97706"/><text x="360" y="242" font-size="7.5" fill="#334155">B · Al-Salamah Outlet </text><rect x="346" y="248" width="138" height="13" rx="2" fill="#f8fafc" stroke="#e2e8f0"/><circle cx="353" cy="254.5" r="3" fill="#dc2626"/><text x="360" y="257" font-size="7.5" fill="#334155">C · Obhur Outlet 35</text><rect x="346" y="263" width="138" height="13" rx="2" fill="#f8fafc" stroke="#e2e8f0"/><circle cx="353" cy="269.5" r="3" fill="#dc2626"/><text x="360" y="272" font-size="7.5" fill="#334155">C · Al-Aziziyah Outlet</text><rect x="346" y="278" width="138" height="13" rx="2" fill="#f8fafc" stroke="#e2e8f0"/><circle cx="353" cy="284.5" r="3" fill="#16a34a"/><text x="360" y="287" font-size="7.5" fill="#334155">C · Obhur Outlet 49</text><rect x="346" y="293" width="138" height="13" rx="2" fill="#f8fafc" stroke="#e2e8f0"/><circle cx="353" cy="299.5" r="3" fill="#16a34a"/><text x="360" y="302" font-size="7.5" fill="#334155">C · Al-Aziziyah Outlet</text><rect x="346" y="308" width="138" height="13" rx="2" fill="#f8fafc" stroke="#e2e8f0"/><circle cx="353" cy="314.5" r="3" fill="#d97706"/><text x="360" y="317" font-size="7.5" fill="#334155">C · Obhur Outlet 53</text><rect x="346" y="323" width="138" height="13" rx="2" fill="#f8fafc" stroke="#e2e8f0"/><circle cx="353" cy="329.5" r="3" fill="#16a34a"/><text x="360" y="332" font-size="7.5" fill="#334155">B · Al-Shati Outlet 54</text><rect x="346" y="338" width="138" height="13" rx="2" fill="#f8fafc" stroke="#e2e8f0"/><circle cx="353" cy="344.5" r="3" fill="#16a34a"/><text x="360" y="347" font-size="7.5" fill="#334155">C · Obhur Outlet 62</text><rect x="346" y="353" width="138" height="13" rx="2" fill="#f8fafc" stroke="#e2e8f0"/><circle cx="353" cy="359.5" r="3" fill="#dc2626"/><text x="360" y="362" font-size="7.5" fill="#334155">C · Al-Salamah Outlet </text><rect x="346" y="368" width="138" height="13" rx="2" fill="#f8fafc" stroke="#e2e8f0"/><circle cx="353" cy="374.5" r="3" fill="#16a34a"/><text x="360" y="377" font-size="7.5" fill="#334155">B · Obhur Outlet 66</text><rect x="346" y="383" width="138" height="13" rx="2" fill="#f8fafc" stroke="#e2e8f0"/><circle cx="353" cy="389.5" r="3" fill="#16a34a"/><text x="360" y="392" font-size="7.5" fill="#334155">B · Al-Salamah Outlet </text><rect x="346" y="398" width="138" height="13" rx="2" fill="#f8fafc" stroke="#e2e8f0"/><circle cx="353" cy="404.5" r="3" fill="#2563eb"/><text x="360" y="407" font-size="7.5" fill="#334155">B · Obhur Outlet 71</text><rect x="346" y="413" width="138" height="13" rx="2" fill="#f8fafc" stroke="#e2e8f0"/><circle cx="353" cy="419.5" r="3" fill="#16a34a"/><text x="360" y="422" font-size="7.5" fill="#334155">B · Al-Rawdah Outlet 7</text><rect x="346" y="428" width="138" height="13" rx="2" fill="#f8fafc" stroke="#e2e8f0"/><circle cx="353" cy="434.5" r="3" fill="#d97706"/><text x="360" y="437" font-size="7.5" fill="#334155">C · Al-Salamah Outlet </text><rect x="346" y="443" width="138" height="13" rx="2" fill="#f8fafc" stroke="#e2e8f0"/><circle cx="353" cy="449.5" r="3" fill="#16a34a"/><text x="360" y="452" font-size="7.5" fill="#334155">C · Al-Faisaliyah Outl</text><rect x="346" y="458" width="138" height="13" rx="2" fill="#f8fafc" stroke="#e2e8f0"/><circle cx="353" cy="464.5" r="3" fill="#16a34a"/><text x="360" y="467" font-size="7.5" fill="#334155">C · Obhur Outlet 79</text><rect x="346" y="473" width="138" height="13" rx="2" fill="#f8fafc" stroke="#e2e8f0"/><circle cx="353" cy="479.5" r="3" fill="#dc2626"/><text x="360" y="482" font-size="7.5" fill="#334155">B · Al-Salamah Outlet </text><text x="348" y="492" font-size="9" fill="#94a3b8">+77 more</text><rect x="502" y="86" width="150" height="418" rx="6" fill="#ffffff" stroke="#e2e8f0"/><text x="510" y="104" font-size="11" font-weight="700" fill="#0f172a">Route 4</text><text x="510" y="118" font-size="9" fill="#64748b">67 cust · 125v · 1509k SAR</text><rect x="508" y="128" width="138" height="13" rx="2" fill="#f8fafc" stroke="#e2e8f0"/><circle cx="515" cy="134.5" r="3" fill="#16a34a"/><text x="522" y="137" font-size="7.5" fill="#334155">B · Al-Balad Outlet 21</text><rect x="508" y="143" width="138" height="13" rx="2" fill="#f8fafc" stroke="#e2e8f0"/><circle cx="515" cy="149.5" r="3" fill="#16a34a"/><text x="522" y="152" font-size="7.5" fill="#334155">B · Al-Balad Outlet 24</text><rect x="508" y="158" width="138" height="13" rx="2" fill="#f8fafc" stroke="#e2e8f0"/><circle cx="515" cy="164.5" r="3" fill="#d97706"/><text x="522" y="167" font-size="7.5" fill="#334155">A · Al-Balad Outlet 26</text><rect x="508" y="173" width="138" height="13" rx="2" fill="#f8fafc" stroke="#e2e8f0"/><circle cx="515" cy="179.5" r="3" fill="#16a34a"/><text x="522" y="182" font-size="7.5" fill="#334155">B · Al-Aziziyah Outlet</text><rect x="508" y="188" width="138" height="13" rx="2" fill="#f8fafc" stroke="#e2e8f0"/><circle cx="515" cy="194.5" r="3" fill="#dc2626"/><text x="522" y="197" font-size="7.5" fill="#334155">B · Al-Balad Outlet 43</text><rect x="508" y="203" width="138" height="13" rx="2" fill="#f8fafc" stroke="#e2e8f0"/><circle cx="515" cy="209.5" r="3" fill="#16a34a"/><text x="522" y="212" font-size="7.5" fill="#334155">A · Al-Faisaliyah Outl</text><rect x="508" y="218" width="138" height="13" rx="2" fill="#f8fafc" stroke="#e2e8f0"/><circle cx="515" cy="224.5" r="3" fill="#16a34a"/><text x="522" y="227" font-size="7.5" fill="#334155">B · Al-Aziziyah Outlet</text><rect x="508" y="233" width="138" height="13" rx="2" fill="#f8fafc" stroke="#e2e8f0"/><circle cx="515" cy="239.5" r="3" fill="#2563eb"/><text x="522" y="242" font-size="7.5" fill="#334155">B · Al-Safa Outlet 68</text><rect x="508" y="248" width="138" height="13" rx="2" fill="#f8fafc" stroke="#e2e8f0"/><circle cx="515" cy="254.5" r="3" fill="#d97706"/><text x="522" y="257" font-size="7.5" fill="#334155">B · Al-Aziziyah Outlet</text><rect x="508" y="263" width="138" height="13" rx="2" fill="#f8fafc" stroke="#e2e8f0"/><circle cx="515" cy="269.5" r="3" fill="#d97706"/><text x="522" y="272" font-size="7.5" fill="#334155">B · Al-Balad Outlet 89</text><rect x="508" y="278" width="138" height="13" rx="2" fill="#f8fafc" stroke="#e2e8f0"/><circle cx="515" cy="284.5" r="3" fill="#16a34a"/><text x="522" y="287" font-size="7.5" fill="#334155">A · Al-Aziziyah Outlet</text><rect x="508" y="293" width="138" height="13" rx="2" fill="#f8fafc" stroke="#e2e8f0"/><circle cx="515" cy="299.5" r="3" fill="#16a34a"/><text x="522" y="302" font-size="7.5" fill="#334155">B · Al-Balad Outlet 94</text><rect x="508" y="308" width="138" height="13" rx="2" fill="#f8fafc" stroke="#e2e8f0"/><circle cx="515" cy="314.5" r="3" fill="#16a34a"/><text x="522" y="317" font-size="7.5" fill="#334155">B · Al-Balad Outlet 96</text><rect x="508" y="323" width="138" height="13" rx="2" fill="#f8fafc" stroke="#e2e8f0"/><circle cx="515" cy="329.5" r="3" fill="#d97706"/><text x="522" y="332" font-size="7.5" fill="#334155">B · Al-Balad Outlet 11</text><rect x="508" y="338" width="138" height="13" rx="2" fill="#f8fafc" stroke="#e2e8f0"/><circle cx="515" cy="344.5" r="3" fill="#dc2626"/><text x="522" y="347" font-size="7.5" fill="#334155">B · Al-Aziziyah Outlet</text><rect x="508" y="353" width="138" height="13" rx="2" fill="#f8fafc" stroke="#e2e8f0"/><circle cx="515" cy="359.5" r="3" fill="#dc2626"/><text x="522" y="362" font-size="7.5" fill="#334155">C · Al-Aziziyah Outlet</text><rect x="508" y="368" width="138" height="13" rx="2" fill="#f8fafc" stroke="#e2e8f0"/><circle cx="515" cy="374.5" r="3" fill="#16a34a"/><text x="522" y="377" font-size="7.5" fill="#334155">B · Al-Balad Outlet 16</text><rect x="508" y="383" width="138" height="13" rx="2" fill="#f8fafc" stroke="#e2e8f0"/><circle cx="515" cy="389.5" r="3" fill="#16a34a"/><text x="522" y="392" font-size="7.5" fill="#334155">A · Al-Aziziyah Outlet</text><rect x="508" y="398" width="138" height="13" rx="2" fill="#f8fafc" stroke="#e2e8f0"/><circle cx="515" cy="404.5" r="3" fill="#16a34a"/><text x="522" y="407" font-size="7.5" fill="#334155">C · Al-Balad Outlet 16</text><rect x="508" y="413" width="138" height="13" rx="2" fill="#f8fafc" stroke="#e2e8f0"/><circle cx="515" cy="419.5" r="3" fill="#16a34a"/><text x="522" y="422" font-size="7.5" fill="#334155">C · Al-Balad Outlet 17</text><rect x="508" y="428" width="138" height="13" rx="2" fill="#f8fafc" stroke="#e2e8f0"/><circle cx="515" cy="434.5" r="3" fill="#16a34a"/><text x="522" y="437" font-size="7.5" fill="#334155">B · Al-Aziziyah Outlet</text><rect x="508" y="443" width="138" height="13" rx="2" fill="#f8fafc" stroke="#e2e8f0"/><circle cx="515" cy="449.5" r="3" fill="#d97706"/><text x="522" y="452" font-size="7.5" fill="#334155">A · Al-Balad Outlet 20</text><rect x="508" y="458" width="138" height="13" rx="2" fill="#f8fafc" stroke="#e2e8f0"/><circle cx="515" cy="464.5" r="3" fill="#16a34a"/><text x="522" y="467" font-size="7.5" fill="#334155">C · Al-Balad Outlet 20</text><rect x="508" y="473" width="138" height="13" rx="2" fill="#f8fafc" stroke="#e2e8f0"/><circle cx="515" cy="479.5" r="3" fill="#16a34a"/><text x="522" y="482" font-size="7.5" fill="#334155">B · Al-Balad Outlet 20</text><text x="510" y="492" font-size="9" fill="#94a3b8">+43 more</text><rect x="664" y="86" width="150" height="418" rx="6" fill="#ffffff" stroke="#e2e8f0"/><text x="672" y="104" font-size="11" font-weight="700" fill="#0f172a">Route 5</text><text x="672" y="118" font-size="9" fill="#64748b">83 cust · 125v · 1386k SAR</text><rect x="670" y="128" width="138" height="13" rx="2" fill="#f8fafc" stroke="#e2e8f0"/><circle cx="677" cy="134.5" r="3" fill="#16a34a"/><text x="684" y="137" font-size="7.5" fill="#334155">A · Al-Safa Outlet 2</text><rect x="670" y="143" width="138" height="13" rx="2" fill="#f8fafc" stroke="#e2e8f0"/><circle cx="677" cy="149.5" r="3" fill="#dc2626"/><text x="684" y="152" font-size="7.5" fill="#334155">C · Al-Naseem Outlet 5</text><rect x="670" y="158" width="138" height="13" rx="2" fill="#f8fafc" stroke="#e2e8f0"/><circle cx="677" cy="164.5" r="3" fill="#16a34a"/><text x="684" y="167" font-size="7.5" fill="#334155">C · Al-Naseem Outlet 8</text><rect x="670" y="173" width="138" height="13" rx="2" fill="#f8fafc" stroke="#e2e8f0"/><circle cx="677" cy="179.5" r="3" fill="#16a34a"/><text x="684" y="182" font-size="7.5" fill="#334155">C · Al-Safa Outlet 11</text><rect x="670" y="188" width="138" height="13" rx="2" fill="#f8fafc" stroke="#e2e8f0"/><circle cx="677" cy="194.5" r="3" fill="#16a34a"/><text x="684" y="197" font-size="7.5" fill="#334155">C · Al-Safa Outlet 13</text><rect x="670" y="203" width="138" height="13" rx="2" fill="#f8fafc" stroke="#e2e8f0"/><circle cx="677" cy="209.5" r="3" fill="#16a34a"/><text x="684" y="212" font-size="7.5" fill="#334155">C · Al-Safa Outlet 17</text><rect x="670" y="218" width="138" height="13" rx="2" fill="#f8fafc" stroke="#e2e8f0"/><circle cx="677" cy="224.5" r="3" fill="#2563eb"/><text x="684" y="227" font-size="7.5" fill="#334155">D · Al-Naseem Outlet 3</text><rect x="670" y="233" width="138" height="13" rx="2" fill="#f8fafc" stroke="#e2e8f0"/><circle cx="677" cy="239.5" r="3" fill="#d97706"/><text x="684" y="242" font-size="7.5" fill="#334155">A · Al-Safa Outlet 40</text><rect x="670" y="248" width="138" height="13" rx="2" fill="#f8fafc" stroke="#e2e8f0"/><circle cx="677" cy="254.5" r="3" fill="#16a34a"/><text x="684" y="257" font-size="7.5" fill="#334155">C · Al-Naseem Outlet 5</text><rect x="670" y="263" width="138" height="13" rx="2" fill="#f8fafc" stroke="#e2e8f0"/><circle cx="677" cy="269.5" r="3" fill="#16a34a"/><text x="684" y="272" font-size="7.5" fill="#334155">C · Al-Naseem Outlet 6</text><rect x="670" y="278" width="138" height="13" rx="2" fill="#f8fafc" stroke="#e2e8f0"/><circle cx="677" cy="284.5" r="3" fill="#16a34a"/><text x="684" y="287" font-size="7.5" fill="#334155">B · Al-Naseem Outlet 6</text><rect x="670" y="293" width="138" height="13" rx="2" fill="#f8fafc" stroke="#e2e8f0"/><circle cx="677" cy="299.5" r="3" fill="#dc2626"/><text x="684" y="302" font-size="7.5" fill="#334155">C · Al-Naseem Outlet 8</text><rect x="670" y="308" width="138" height="13" rx="2" fill="#f8fafc" stroke="#e2e8f0"/><circle cx="677" cy="314.5" r="3" fill="#16a34a"/><text x="684" y="317" font-size="7.5" fill="#334155">C · Al-Safa Outlet 86</text><rect x="670" y="323" width="138" height="13" rx="2" fill="#f8fafc" stroke="#e2e8f0"/><circle cx="677" cy="329.5" r="3" fill="#16a34a"/><text x="684" y="332" font-size="7.5" fill="#334155">D · Al-Naseem Outlet 9</text><rect x="670" y="338" width="138" height="13" rx="2" fill="#f8fafc" stroke="#e2e8f0"/><circle cx="677" cy="344.5" r="3" fill="#dc2626"/><text x="684" y="347" font-size="7.5" fill="#334155">B · Al-Naseem Outlet 1</text><rect x="670" y="353" width="138" height="13" rx="2" fill="#f8fafc" stroke="#e2e8f0"/><circle cx="677" cy="359.5" r="3" fill="#dc2626"/><text x="684" y="362" font-size="7.5" fill="#334155">C · Al-Naseem Outlet 1</text><rect x="670" y="368" width="138" height="13" rx="2" fill="#f8fafc" stroke="#e2e8f0"/><circle cx="677" cy="374.5" r="3" fill="#16a34a"/><text x="684" y="377" font-size="7.5" fill="#334155">C · Al-Naseem Outlet 1</text><rect x="670" y="383" width="138" height="13" rx="2" fill="#f8fafc" stroke="#e2e8f0"/><circle cx="677" cy="389.5" r="3" fill="#2563eb"/><text x="684" y="392" font-size="7.5" fill="#334155">C · Al-Safa Outlet 115</text><rect x="670" y="398" width="138" height="13" rx="2" fill="#f8fafc" stroke="#e2e8f0"/><circle cx="677" cy="404.5" r="3" fill="#16a34a"/><text x="684" y="407" font-size="7.5" fill="#334155">D · Al-Safa Outlet 134</text><rect x="670" y="413" width="138" height="13" rx="2" fill="#f8fafc" stroke="#e2e8f0"/><circle cx="677" cy="419.5" r="3" fill="#dc2626"/><text x="684" y="422" font-size="7.5" fill="#334155">B · Al-Naseem Outlet 1</text><rect x="670" y="428" width="138" height="13" rx="2" fill="#f8fafc" stroke="#e2e8f0"/><circle cx="677" cy="434.5" r="3" fill="#16a34a"/><text x="684" y="437" font-size="7.5" fill="#334155">C · Al-Naseem Outlet 1</text><rect x="670" y="443" width="138" height="13" rx="2" fill="#f8fafc" stroke="#e2e8f0"/><circle cx="677" cy="449.5" r="3" fill="#d97706"/><text x="684" y="452" font-size="7.5" fill="#334155">C · Al-Naseem Outlet 1</text><rect x="670" y="458" width="138" height="13" rx="2" fill="#f8fafc" stroke="#e2e8f0"/><circle cx="677" cy="464.5" r="3" fill="#16a34a"/><text x="684" y="467" font-size="7.5" fill="#334155">C · Al-Safa Outlet 155</text><rect x="670" y="473" width="138" height="13" rx="2" fill="#f8fafc" stroke="#e2e8f0"/><circle cx="677" cy="479.5" r="3" fill="#16a34a"/><text x="684" y="482" font-size="7.5" fill="#334155">A · Al-Naseem Outlet 1</text><text x="672" y="492" font-size="9" fill="#94a3b8">+59 more</text><rect x="826" y="86" width="150" height="418" rx="6" fill="#ffffff" stroke="#e2e8f0"/><text x="834" y="104" font-size="11" font-weight="700" fill="#0f172a">Route 6</text><text x="834" y="118" font-size="9" fill="#64748b">74 cust · 125v · 1437k SAR</text><rect x="832" y="128" width="138" height="13" rx="2" fill="#f8fafc" stroke="#e2e8f0"/><circle cx="839" cy="134.5" r="3" fill="#d97706"/><text x="846" y="137" font-size="7.5" fill="#334155">B · Al-Hamra Outlet 34</text><rect x="832" y="143" width="138" height="13" rx="2" fill="#f8fafc" stroke="#e2e8f0"/><circle cx="839" cy="149.5" r="3" fill="#16a34a"/><text x="846" y="152" font-size="7.5" fill="#334155">B · Al-Hamra Outlet 37</text><rect x="832" y="158" width="138" height="13" rx="2" fill="#f8fafc" stroke="#e2e8f0"/><circle cx="839" cy="164.5" r="3" fill="#dc2626"/><text x="846" y="167" font-size="7.5" fill="#334155">A · Al-Hamra Outlet 38</text><rect x="832" y="173" width="138" height="13" rx="2" fill="#f8fafc" stroke="#e2e8f0"/><circle cx="839" cy="179.5" r="3" fill="#16a34a"/><text x="846" y="182" font-size="7.5" fill="#334155">A · Al-Faisaliyah Outl</text><rect x="832" y="188" width="138" height="13" rx="2" fill="#f8fafc" stroke="#e2e8f0"/><circle cx="839" cy="194.5" r="3" fill="#2563eb"/><text x="846" y="197" font-size="7.5" fill="#334155">B · Al-Hamra Outlet 60</text><rect x="832" y="203" width="138" height="13" rx="2" fill="#f8fafc" stroke="#e2e8f0"/><circle cx="839" cy="209.5" r="3" fill="#16a34a"/><text x="846" y="212" font-size="7.5" fill="#334155">B · Al-Faisaliyah Outl</text><rect x="832" y="218" width="138" height="13" rx="2" fill="#f8fafc" stroke="#e2e8f0"/><circle cx="839" cy="224.5" r="3" fill="#16a34a"/><text x="846" y="227" font-size="7.5" fill="#334155">A · Al-Hamra Outlet 88</text><rect x="832" y="233" width="138" height="13" rx="2" fill="#f8fafc" stroke="#e2e8f0"/><circle cx="839" cy="239.5" r="3" fill="#16a34a"/><text x="846" y="242" font-size="7.5" fill="#334155">B · Al-Faisaliyah Outl</text><rect x="832" y="248" width="138" height="13" rx="2" fill="#f8fafc" stroke="#e2e8f0"/><circle cx="839" cy="254.5" r="3" fill="#2563eb"/><text x="846" y="257" font-size="7.5" fill="#334155">B · Al-Hamra Outlet 11</text><rect x="832" y="263" width="138" height="13" rx="2" fill="#f8fafc" stroke="#e2e8f0"/><circle cx="839" cy="269.5" r="3" fill="#16a34a"/><text x="846" y="272" font-size="7.5" fill="#334155">B · Al-Hamra Outlet 11</text><rect x="832" y="278" width="138" height="13" rx="2" fill="#f8fafc" stroke="#e2e8f0"/><circle cx="839" cy="284.5" r="3" fill="#16a34a"/><text x="846" y="287" font-size="7.5" fill="#334155">A · Al-Faisaliyah Outl</text><rect x="832" y="293" width="138" height="13" rx="2" fill="#f8fafc" stroke="#e2e8f0"/><circle cx="839" cy="299.5" r="3" fill="#16a34a"/><text x="846" y="302" font-size="7.5" fill="#334155">B · Al-Faisaliyah Outl</text><rect x="832" y="308" width="138" height="13" rx="2" fill="#f8fafc" stroke="#e2e8f0"/><circle cx="839" cy="314.5" r="3" fill="#2563eb"/><text x="846" y="317" font-size="7.5" fill="#334155">B · Al-Rawdah Outlet 1</text><rect x="832" y="323" width="138" height="13" rx="2" fill="#f8fafc" stroke="#e2e8f0"/><circle cx="839" cy="329.5" r="3" fill="#16a34a"/><text x="846" y="332" font-size="7.5" fill="#334155">A · Al-Rawdah Outlet 1</text><rect x="832" y="338" width="138" height="13" rx="2" fill="#f8fafc" stroke="#e2e8f0"/><circle cx="839" cy="344.5" r="3" fill="#dc2626"/><text x="846" y="347" font-size="7.5" fill="#334155">B · Al-Hamra Outlet 19</text><rect x="832" y="353" width="138" height="13" rx="2" fill="#f8fafc" stroke="#e2e8f0"/><circle cx="839" cy="359.5" r="3" fill="#d97706"/><text x="846" y="362" font-size="7.5" fill="#334155">A · Al-Hamra Outlet 22</text><rect x="832" y="368" width="138" height="13" rx="2" fill="#f8fafc" stroke="#e2e8f0"/><circle cx="839" cy="374.5" r="3" fill="#16a34a"/><text x="846" y="377" font-size="7.5" fill="#334155">B · Al-Faisaliyah Outl</text><rect x="832" y="383" width="138" height="13" rx="2" fill="#f8fafc" stroke="#e2e8f0"/><circle cx="839" cy="389.5" r="3" fill="#16a34a"/><text x="846" y="392" font-size="7.5" fill="#334155">B · Al-Hamra Outlet 24</text><rect x="832" y="398" width="138" height="13" rx="2" fill="#f8fafc" stroke="#e2e8f0"/><circle cx="839" cy="404.5" r="3" fill="#d97706"/><text x="846" y="407" font-size="7.5" fill="#334155">B · Al-Hamra Outlet 26</text><rect x="832" y="413" width="138" height="13" rx="2" fill="#f8fafc" stroke="#e2e8f0"/><circle cx="839" cy="419.5" r="3" fill="#16a34a"/><text x="846" y="422" font-size="7.5" fill="#334155">B · Al-Faisaliyah Outl</text><rect x="832" y="428" width="138" height="13" rx="2" fill="#f8fafc" stroke="#e2e8f0"/><circle cx="839" cy="434.5" r="3" fill="#2563eb"/><text x="846" y="437" font-size="7.5" fill="#334155">C · Al-Rawdah Outlet 2</text><rect x="832" y="443" width="138" height="13" rx="2" fill="#f8fafc" stroke="#e2e8f0"/><circle cx="839" cy="449.5" r="3" fill="#d97706"/><text x="846" y="452" font-size="7.5" fill="#334155">C · Al-Rawdah Outlet 2</text><rect x="832" y="458" width="138" height="13" rx="2" fill="#f8fafc" stroke="#e2e8f0"/><circle cx="839" cy="464.5" r="3" fill="#dc2626"/><text x="846" y="467" font-size="7.5" fill="#334155">C · Al-Faisaliyah Outl</text><rect x="832" y="473" width="138" height="13" rx="2" fill="#f8fafc" stroke="#e2e8f0"/><circle cx="839" cy="479.5" r="3" fill="#dc2626"/><text x="846" y="482" font-size="7.5" fill="#334155">B · Al-Hamra Outlet 28</text><text x="834" y="492" font-size="9" fill="#94a3b8">+50 more</text></svg>