<svg xmlns="http://www.w3.org/2000/svg" width="1040" height="620" viewBox="0 0 1040 620"><rect width="1040" height="620" fill="#f8fafc"/><text x="16" y="24" font-size="16" font-weight="700" fill="#0f172a">Territory Intelligence Studio · Plan (Jeddah demo, 500 customers)</text><rect x="16" y="36" width="1008" height="38" rx="6" fill="#ffffff" stroke="#e2e8f0"/><text x="30" y="52" font-size="9" fill="#64748b">Customers</text><text x="30" y="67" font-size="14" font-weight="700" fill="#0f172a">500</text><text x="170" y="52" font-size="9" fill="#64748b">Visits/wk</text><text x="170" y="67" font-size="14" font-weight="700" fill="#0f172a">747</text><text x="310" y="52" font-size="9" fill="#64748b">Distance</text><text x="310" y="67" font-size="14" font-weight="700" fill="#0f172a">352 km</text><text x="450" y="52" font-size="9" fill="#64748b">Workload bal.</text><text x="450" y="67" font-size="14" font-weight="700" fill="#0f172a">98.1%</text><text x="590" y="52" font-size="9" fill="#64748b">Value bal.</text><text x="590" y="67" font-size="14" font-weight="700" fill="#0f172a">94.1%</text><text x="730" y="52" font-size="9" fill="#64748b">Coverage</text><text x="730" y="67" font-size="14" font-weight="700" fill="#0f172a">59.8%</text><text x="870" y="52" font-size="9" fill="#64748b">Routes</text><text x="870" y="67" font-size="14" font-weight="700" fill="#0f172a">6</text><rect x="16" y="104" width="150" height="34" rx="6" fill="#ffffff" stroke="#e2e8f0"/><text x="30" y="125" font-size="12" font-weight="500" fill="#475569">1. Overview</text><rect x="16" y="144" width="150" height="34" rx="6" fill="#ffffff" stroke="#e2e8f0"/><text x="30" y="165" font-size="12" font-weight="500" fill="#475569">2. Audit</text><rect x="16" y="184" width="150" height="34" rx="6" fill="#ffffff" stroke="#e2e8f0"/><text x="30" y="205" font-size="12" font-weight="500" fill="#475569">3. Map</text><rect x="16" y="224" width="150" height="34" rx="6" fill="#ffffff" stroke="#e2e8f0"/><text x="30" y="245" font-size="12" font-weight="500" fill="#475569">4. Optimize</text><rect x="16" y="264" width="150" height="34" rx="6" fill="#e0e7ff" stroke="#6366f1"/><text x="30" y="285" font-size="12" font-weight="700" fill="#3730a3">5. Plan</text><rect x="16" y="304" width="150" height="34" rx="6" fill="#ffffff" stroke="#e2e8f0"/><text x="30" y="325" font-size="12" font-weight="500" fill="#475569">6. Size</text><rect x="180" y="104" width="844" height="500" rx="8" fill="#ffffff" stroke="#cbd5e1"/><circle cx="477.2" cy="278.1" r="3.2" fill="#16a34a" fill-opacity="0.85"/><circle cx="821.1" cy="347.8" r="3.2" fill="#dc2626" fill-opacity="0.85"/><circle cx="708.2" cy="225.2" r="3.2" fill="#d97706" fill-opacity="0.85"/><circle cx="655.4" cy="327.1" r="3.2" fill="#d97706" fill-opacity="0.85"/><circle cx="888.2" cy="319.5" r="3.2" fill="#dc2626" fill-opacity="0.85"/><circle cx="253.5" cy="131.8" r="3.2" fill="#2563eb" fill-opacity="0.85"/><circle cx="642.6" cy="310.2" r="3.2" fill="#d97706" fill-opacity="0.85"/><circle cx="920.8" cy="337.8" r="3.2" fill="#dc2626" fill-opacity="0.85"/><circle cx="618.4" cy="331.3" r="3.2" fill="#d97706" fill-opacity="0.85"/><circle cx="373.6" cy="264.7" r="3.2" fill="#2563eb" fill-opacity="0.85"/><circle cx="867.4" cy="343.2" r="3.2" fill="#dc2626" fill-opacity="0.85"/><circle cx="507.8" cy="289.6" r="3.2" fill="#16a34a" fill-opacity="0.85"/><circle cx="856.6" cy="354.5" r="3.2" fill="#dc2626" fill-opacity="0.85"/><circle cx="673.7" cy="433.4" r="3.2" fill="#0891b2" fill-opacity="0.85"/><circle cx="634.3" cy="385.4" r="3.2" fill="#7c3aed" fill-opacity="0.85"/><circle cx="752.1" cy="228.7" r="3.2" fill="#dc2626" fill-opacity="0.85"/><circle cx="779.8" cy="347.2" r="3.2" fill="#d97706" fill-opacity="0.85"/><circle cx="761.9" cy="405.6" r="3.2" fill="#7c3aed" fill-opacity="0.85"/><circle cx="758.7" cy="416.9" r="3.2" fill="#0891b2" fill-opacity="0.85"/><circle cx="777.0" cy="409.9" r="3.2" fill="#7c3aed" fill-opacity="0.85"/><circle cx="681.8" cy="423.9" r="3.2" fill="#7c3aed" fill-opacity="0.85"/><circle cx="568.5" cy="367.1" r="3.2" fill="#2563eb" fill-opacity="0.85"/><circle cx="678.6" cy="237.1" r="3.2" fill="#d97706" fill-opacity="0.85"/><circle cx="696.8" cy="434.6" r="3.2" fill="#0891b2" fill-opacity="0.85"/><circle cx="247.6" cy="134.7" r="3.2" fill="#2563eb" fill-opacity="0.85"/><circle cx="672.4" cy="432.5" r="3.2" fill="#0891b2" fill-opacity="0.85"/><circle cx="756.0" cy="401.3" r="3.2" fill="#7c3aed" fill-opacity="0.85"/><circle cx="343.2" cy="136.6" r="3.2" fill="#16a34a" fill-opacity="0.85"/><circle cx="593.8" cy="347.8" r="3.2" fill="#d97706" fill-opacity="0.85"/><circle cx="419.6" cy="281.6" r="3.2" fill="#16a34a" fill-opacity="0.85"/><circle cx="890.9" cy="317.5" r="3.2" fill="#dc2626" fill-opacity="0.85"/><circle cx="307.1" cy="131.2" r="3.2" fill="#16a34a" fill-opacity="0.85"/><circle cx="545.7" cy="291.2" r="3.2" fill="#16a34a" fill-opacity="0.85"/><circle cx="565.5" cy="377.7" r="3.2" fill="#2563eb" fill-opacity="0.85"/><circle cx="319.5" cy="149.0" r="3.2" fill="#16a34a" fill-opacity="0.85"/><circle cx="641.0" cy="384.3" r="3.2" fill="#7c3aed" fill-opacity="0.85"/><circle cx="557.2" cy="370.5" r="3.2" fill="#2563eb" fill-opacity="0.85"/><circle cx="590.0" cy="374.2" r="3.2" fill="#2563eb" fill-opacity="0.85"/><circle cx="644.2" cy="392.4" r="3.2" fill="#7c3aed" fill-opacity="0.85"/><circle cx="838.5" cy="361.2" r="3.2" fill="#dc2626" fill-opacity="0.85"/><circle cx="439.4" cy="275.2" r="3.2" fill="#16a34a" fill-opacity="0.85"/><circle cx="731.9" cy="586.8" r="3.2" fill="#0891b2" fill-opacity="0.85"/><circle cx="678.4" cy="422.8" r="3.2" fill="#0891b2" fill-opacity="0.85"/><circle cx="796.0" cy="421.2" r="3.2" fill="#0891b2" fill-opacity="0.85"/><circle cx="482.4" cy="268.6" r="3.2" fill="#16a34a" fill-opacity="0.85"/><circle cx="711.3" cy="392.4" r="3.2" fill="#7c3aed" fill-opacity="0.85"/><circle cx="792.8" cy="400.1" r="3.2" fill="#7c3aed" fill-opacity="0.85"/><circle cx="704.6" cy="421.9" r="3.2" fill="#0891b2" fill-opacity="0.85"/><circle cx="257.9" cy="141.9" r="3.2" fill="#2563eb" fill-opacity="0.85"/><circle cx="574.6" cy="354.9" r="3.2" fill="#2563eb" fill-opacity="0.85"/><circle cx="860.8" cy="421.7" r="3.2" fill="#dc2626" fill-opacity="0.85"/><circle cx="707.9" cy="556.4" r="3.2" fill="#0891b2" fill-opacity="0.85"/><circle cx="249.9" cy="130.2" r="3.2" fill="#2563eb" fill-opacity="0.85"/><circle cx="294.2" cy="273.0" r="3.2" fill="#2563eb" fill-opacity="0.85"/><circle cx="807.9" cy="404.7" r="3.2" fill="#7c3aed" fill-opacity="0.85"/><circle cx="937.9" cy="305.6" r="3.2" fill="#dc2626" fill-opacity="0.85"/><circle cx="742.6" cy="584.1" r="3.2" fill="#0891b2" fill-opacity="0.85"/><circle cx="647.9" cy="397.2" r="3.2" fill="#7c3aed" fill-opacity="0.85"/><circle cx="657.8" cy="252.6" r="3.2" fill="#d97706" fill-opacity="0.85"/><circle cx="572.3" cy="369.0" r="3.2" fill="#2563eb" fill-opacity="0.85"/><circle cx="829.9" cy="565.1" r="3.2" fill="#0891b2" fill-opacity="0.85"/><circle cx="340.4" cy="129.7" r="3.2" fill="#16a34a" fill-opacity="0.85"/><circle cx="334.7" cy="257.3" r="3.2" fill="#2563eb" fill-opacity="0.85"/><circle cx="597.2" cy="278.5" r="3.2" fill="#16a34a" fill-opacity="0.85"/><circle cx="685.4" cy="568.3" r="3.2" fill="#0891b2" fill-opacity="0.85"/><circle cx="190.0" cy="116.8" r="3.2" fill="#2563eb" fill-opacity="0.85"/><circle cx="914.0" cy="314.5" r="3.2" fill="#dc2626" fill-opacity="0.85"/><circle cx="810.0" cy="362.1" r="3.2" fill="#7c3aed" fill-opacity="0.85"/><circle cx="951.0" cy="312.3" r="3.2" fill="#dc2626" fill-opacity="0.85"/><circle cx="536.5" cy="297.2" r="3.2" fill="#16a34a" fill-opacity="0.85"/><circle cx="311.9" cy="133.9" r="3.2" fill="#16a34a" fill-opacity="0.85"/><circle cx="560.5" cy="304.7" r="3.2" fill="#16a34a" fill-opacity="0.85"/><circle cx="547.1" cy="294.6" r="3.2" fill="#16a34a" fill-opacity="0.85"/><circle cx="558.0" cy="355.4" r="3.2" fill="#2563eb" fill-opacity="0.85"/><circle cx="535.0" cy="298.0" r="3.2" fill="#16a34a" fill-opacity="0.85"/><circle cx="688.4" cy="399.5" r="3.2" fill="#7c3aed" fill-opacity="0.85"/><circle cx="728.3" cy="589.0" r="3.2" fill="#0891b2" fill-opacity="0.85"/><circle cx="717.5" cy="427.5" r="3.2" fill="#0891b2" fill-opacity="0.85"/><circle cx="321.7" cy="117.9" r="3.2" fill="#16a34a" fill-opacity="0.85"/><circle cx="577.5" cy="283.6" r="3.2" fill="#16a34a" fill-opacity="0.85"/><circle cx="778.8" cy="421.2" r="3.2" fill="#0891b2" fill-opacity="0.85"/><circle cx="902.6" cy="310.5" r="3.2" fill="#dc2626" fill-opacity="0.85"/><circle cx="287.2" cy="126.7" r="3.2" fill="#2563eb" fill-opacity="0.85"/><circle cx="415.2" cy="269.2" r="3.2" fill="#16a34a" fill-opacity="0.85"/><circle cx="599.2" cy="400.8" r="3.2" fill="#2563eb" fill-opacity="0.85"/><circle cx="836.4" cy="348.3" r="3.2" fill="#dc2626" fill-opacity="0.85"/><circle cx="663.5" cy="424.2" r="3.2" fill="#0891b2" fill-opacity="0.85"/><circle cx="544.8" cy="356.6" r="3.2" fill="#2563eb" fill-opacity="0.85"/><circle cx="682.2" cy="429.9" r="3.2" fill="#0891b2" fill-opacity="0.85"/><circle cx="613.0" cy="388.4" r="3.2" fill="#7c3aed" fill-opacity="0.85"/><circle cx="817.0" cy="391.6" r="3.2" fill="#dc2626" fill-opacity="0.85"/><circle cx="544.7" cy="362.9" r="3.2" fill="#2563eb" fill-opacity="0.85"/><circle cx="674.8" cy="387.2" r="3.2" fill="#7c3aed" fill-opacity="0.85"/><circle cx="706.4" cy="423.3" r="3.2" fill="#0891b2" fill-opacity="0.85"/><circle cx="570.4" cy="381.3" r="3.2" fill="#2563eb" fill-opacity="0.85"/><circle cx="670.7" cy="416.8" r="3.2" fill="#0891b2" fill-opacity="0.85"/><circle cx="705.6" cy="419.2" r="3.2" fill="#0891b2" fill-opacity="0.85"/><circle cx="968.4" cy="310.2" r="3.2" fill="#dc2626" fill-opacity="0.85"/><circle cx="737.8" cy="243.9" r="3.2" fill="#d97706" fill-opacity="0.85"/><circle cx="536.5" cy="298.4" r="3.2" fill="#16a34a" fill-opacity="0.85"/><circle cx="664.6" cy="311.5" r="3.2" fill="#d97706" fill-opacity="0.85"/><circle cx="772.1" cy="418.3" r="3.2" fill="#0891b2" fill-opacity="0.85"/><circle cx="809.4" cy="585.8" r="3.2" fill="#0891b2" fill-opacity="0.85"/><circle cx="337.7" cy="281.0" r="3.2" fill="#2563eb" fill-opacity="0.85"/><circle cx="555.0" cy="294.4" r="3.2" fill="#16a34a" fill-opacity="0.85"/><circle cx="658.7" cy="233.9" r="3.2" fill="#d97706" fill-opacity="0.85"/><circle cx="986.7" cy="329.6" r="3.2" fill="#dc2626" fill-opacity="0.85"/><circle cx="748.0" cy="574.8" r="3.2" fill="#0891b2" fill-opacity="0.85"/><circle cx="908.2" cy="321.4" r="3.2" fill="#dc2626" fill-opacity="0.85"/><circle cx="845.0" cy="362.5" r="3.2" fill="#7c3aed" fill-opacity="0.85"/><circle cx="595.2" cy="378.0" r="3.2" fill="#2563eb" fill-opacity="0.85"/><circle cx="865.7" cy="314.1" r="3.2" fill="#dc2626" fill-opacity="0.85"/><circle cx="602.5" cy="310.6" r="3.2" fill="#d97706" fill-opacity="0.85"/><circle cx="702.6" cy="423.5" r="3.2" fill="#0891b2" fill-opacity="0.85"/><circle cx="828.3" cy="351.4" r="3.2" fill="#dc2626" fill-opacity="0.85"/><circle cx="676.2" cy="237.4" r="3.2" fill="#d97706" fill-opacity="0.85"/><circle cx="534.3" cy="314.8" r="3.2" fill="#16a34a" fill-opacity="0.85"/><circle cx="590.7" cy="360.8" r="3.2" fill="#2563eb" fill-opacity="0.85"/><circle cx="803.6" cy="367.6" r="3.2" fill="#7c3aed" fill-opacity="0.85"/><circle cx="791.2" cy="424.9" r="3.2" fill="#0891b2" fill-opacity="0.85"/><circle cx="774.7" cy="415.4" r="3.2" fill="#0891b2" fill-opacity="0.85"/><circle cx="745.7" cy="575.2" r="3.2" fill="#0891b2" fill-opacity="0.85"/><circle cx="525.5" cy="321.8" r="3.2" fill="#16a34a" fill-opacity="0.85"/><circle cx="804.8" cy="411.3" r="3.2" fill="#7c3aed" fill-opacity="0.85"/><circle cx="557.9" cy="303.2" r="3.2" fill="#16a34a" fill-opacity="0.85"/><circle cx="258.1" cy="262.1" r="3.2" fill="#2563eb" fill-opacity="0.85"/><circle cx="609.6" cy="308.6" r="3.2" fill="#d97706" fill-opacity="0.85"/><circle cx="459.8" cy="270.2" r="3.2" fill="#16a34a" fill-opacity="0.85"/><circle cx="531.8" cy="358.4" r="3.2" fill="#2563eb" fill-opacity="0.85"/><circle cx="609.3" cy="303.4" r="3.2" fill="#d97706" fill-opacity="0.85"/><circle cx="431.2" cy="292.8" r="3.2" fill="#16a34a" fill-opacity="0.85"/><circle cx="421.6" cy="260.1" r="3.2" fill="#16a34a" fill-opacity="0.85"/><circle cx="655.6" cy="305.1" r="3.2" fill="#d97706" fill-opacity="0.85"/><circle cx="888.1" cy="335.3" r="3.2" fill="#dc2626" fill-opacity="0.85"/><circle cx="444.4" cy="271.7" r="3.2" fill="#16a34a" fill-opacity="0.85"/><circle cx="619.3" cy="222.8" r="3.2" fill="#d97706" fill-opacity="0.85"/><circle cx="877.4" cy="316.6" r="3.2" fill="#dc2626" fill-opacity="0.85"/><circle cx="690.1" cy="216.3" r="3.2" fill="#d97706" fill-opacity="0.85"/><circle cx="665.7" cy="228.4" r="3.2" fill="#d97706" fill-opacity="0.85"/><circle cx="661.5" cy="243.8" r="3.2" fill="#d97706" fill-opacity="0.85"/><circle cx="680.9" cy="390.8" r="3.2" fill="#7c3aed" fill-opacity="0.85"/><circle cx="969.4" cy="312.7" r="3.2" fill="#dc2626" fill-opacity="0.85"/><circle cx="452.0" cy="284.9" r="3.2" fill="#16a34a" fill-opacity="0.85"/><circle cx="565.2" cy="287.6" r="3.2" fill="#16a34a" fill-opacity="0.85"/><circle cx="707.6" cy="570.3" r="3.2" fill="#0891b2" fill-opacity="0.85"/><circle cx="856.0" cy="402.9" r="3.2" fill="#dc2626" fill-opacity="0.85"/><circle cx="893.3" cy="319.3" r="3.2" fill="#dc2626" fill-opacity="0.85"/><circle cx="706.9" cy="383.2" r="3.2" fill="#7c3aed" fill-opacity="0.85"/><circle cx="724.8" cy="245.0" r="3.2" fill="#d97706" fill-opacity="0.85"/><circle cx="457.0" cy="278.7" r="3.2" fill="#16a34a" fill-opacity="0.85"/><circle cx="244.1" cy="275.7" r="3.2" fill="#2563eb" fill-opacity="0.85"/><circle cx="778.3" cy="561.1" r="3.2" fill="#0891b2" fill-opacity="0.85"/><circle cx="312.0" cy="118.5" r="3.2" fill="#16a34a" fill-opacity="0.85"/><circle cx="591.9" cy="319.6" r="3.2" fill="#d97706" fill-opacity="0.85"/><circle cx="798.2" cy="336.5" r="3.2" fill="#d97706" fill-opacity="0.85"/><circle cx="426.3" cy="267.4" r="3.2" fill="#16a34a" fill-opacity="0.85"/><circle cx="313.1" cy="142.8" r="3.2" fill="#16a34a" fill-opacity="0.85"/><circle cx="588.3" cy="298.3" r="3.2" fill="#d97706" fill-opacity="0.85"/><circle cx="610.9" cy="279.9" r="3.2" fill="#d97706" fill-opacity="0.85"/><circle cx="291.1" cy="136.4" r="3.2" fill="#2563eb" fill-opacity="0.85"/><circle cx="1014.0" cy="341.7" r="3.2" fill="#dc2626" fill-opacity="0.85"/><circle cx="929.4" cy="302.6" r="3.2" fill="#dc2626" fill-opacity="0.85"/><circle cx="859.1" cy="343.8" r="3.2" fill="#dc2626" fill-opacity="0.85"/><circle cx="694.5" cy="418.7" r="3.2" fill="#7c3aed" fill-opacity="0.85"/><circle cx="250.6" cy="157.2" r="3.2" fill="#2563eb" fill-opacity="0.85"/><circle cx="717.9" cy="397.8" r="3.2" fill="#7c3aed" fill-opacity="0.85"/><circle cx="859.4" cy="577.4" r="3.2" fill="#0891b2" fill-opacity="0.85"/><circle cx="779.4" cy="408.0" r="3.2" fill="#7c3aed" fill-opacity="0.85"/><circle cx="677.6" cy="434.9" r="3.2" fill="#0891b2" fill-opacity="0.85"/><circle cx="569.6" cy="320.7" r="3.2" fill="#16a34a" fill-opacity="0.85"/><circle cx="664.3" cy="386.8" r="3.2" fill="#7c3aed" fill-opacity="0.85"/><circle cx="306.7" cy="285.7" r="3.2" fill="#2563eb" fill-opacity="0.85"/><circle cx="586.3" cy="248.7" r="3.2" fill="#16a34a" fill-opacity="0.85"/><circle cx="558.2" cy="326.7" r="3.2" fill="#d97706" fill-opacity="0.85"/><circle cx="702.4" cy="420.9" r="3.2" fill="#7c3aed" fill-opacity="0.85"/><circle cx="664.6" cy="318.2" r="3.2" fill="#d97706" fill-opacity="0.85"/><circle cx="860.8" cy="315.6" r="3.2" fill="#dc2626" fill-opacity="0.85"/><circle cx="783.8" cy="250.1" r="3.2" fill="#d97706" fill-opacity="0.85"/><circle cx="588.4" cy="286.7" r="3.2" fill="#16a34a" fill-opacity="0.85"/><circle cx="791.7" cy="343.9" r="3.2" fill="#d97706" fill-opacity="0.85"/><circle cx="376.5" cy="266.0" r="3.2" fill="#2563eb" fill-opacity="0.85"/><circle cx="445.7" cy="254.1" r="3.2" fill="#16a34a" fill-opacity="0.85"/><circle cx="328.3" cy="272.4" r="3.2" fill="#2563eb" fill-opacity="0.85"/><circle cx="785.3" cy="552.5" r="3.2" fill="#0891b2" fill-opacity="0.85"/><circle cx="574.3" cy="377.5" r="3.2" fill="#2563eb" fill-opacity="0.85"/><circle cx="506.1" cy="314.5" r="3.2" fill="#16a34a" fill-opacity="0.85"/><circle cx="429.9" cy="275.0" r="3.2" fill="#16a34a" fill-opacity="0.85"/><circle cx="801.4" cy="345.6" r="3.2" fill="#d97706" fill-opacity="0.85"/><circle cx="544.3" cy="308.4" r="3.2" fill="#16a34a" fill-opacity="0.85"/><circle cx="552.7" cy="288.7" r="3.2" fill="#16a34a" fill-opacity="0.85"/><circle cx="615.0" cy="377.4" r="3.2" fill="#7c3aed" fill-opacity="0.85"/><circle cx="743.3" cy="414.9" r="3.2" fill="#0891b2" fill-opacity="0.85"/><circle cx="662.2" cy="397.8" r="3.2" fill="#7c3aed" fill-opacity="0.85"/><circle cx="862.0" cy="359.2" r="3.2" fill="#dc2626" fill-opacity="0.85"/><circle cx="620.9" cy="253.5" r="3.2" fill="#d97706" fill-opacity="0.85"/><circle cx="690.8" cy="230.0" r="3.2" fill="#d97706" fill-opacity="0.85"/><circle cx="792.2" cy="592.1" r="3.2" fill="#0891b2" fill-opacity="0.85"/><circle cx="243.8" cy="127.6" r="3.2" fill="#2563eb" fill-opacity="0.85"/><circle cx="868.3" cy="362.1" r="3.2" fill="#dc2626" fill-opacity="0.85"/><circle cx="853.6" cy="355.2" r="3.2" fill="#dc2626" fill-opacity="0.85"/><circle cx="697.8" cy="424.0" r="3.2" fill="#0891b2" fill-opacity="0.85"/><circle cx="678.4" cy="594.0" r="3.2" fill="#0891b2" fill-opacity="0.85"/><circle cx="673.7" cy="422.1" r="3.2" fill="#0891b2" fill-opacity="0.85"/><circle cx="492.2" cy="284.4" r="3.2" fill="#16a34a" fill-opacity="0.85"/><circle cx="652.3" cy="287.6" r="3.2" fill="#d97706" fill-opacity="0.85"/><circle cx="678.1" cy="441.7" r="3.2" fill="#0891b2" fill-opacity="0.85"/><circle cx="763.0" cy="570.8" r="3.2" fill="#0891b2" fill-opacity="0.85"/><circle cx="683.7" cy="332.1" r="3.2" fill="#d97706" fill-opacity="0.85"/><circle cx="628.7" cy="378.4" r="3.2" fill="#7c3aed" fill-opacity="0.85"/><circle cx="671.9" cy="428.1" r="3.2" fill="#0891b2" fill-opacity="0.85"/><circle cx="828.3" cy="407.2" r="3.2" fill="#dc2626" fill-opacity="0.85"/><circle cx="693.3" cy="431.2" r="3.2" fill="#0891b2" fill-opacity="0.85"/><circle cx="445.6" cy="270.7" r="3.2" fill="#16a34a" fill-opacity="0.85"/><circle cx="507.6" cy="277.7" r="3.2" fill="#16a34a" fill-opacity="0.85"/><circle cx="741.9" cy="226.1" r="3.2" fill="#dc2626" fill-opacity="0.85"/><circle cx="703.2" cy="440.8" r="3.2" fill="#0891b2" fill-opacity="0.85"/><circle cx="933.4" cy="315.9" r="3.2" fill="#dc2626" fill-opacity="0.85"/><circle cx="242.4" cy="254.6" r="3.2" fill="#2563eb" fill-opacity="0.85"/><circle cx="664.4" cy="234.6" r="3.2" fill="#d97706" fill-opacity="0.85"/><circle cx="667.9" cy="384.7" r="3.2" fill="#7c3aed" fill-opacity="0.85"/><circle cx="709.7" cy="393.0" r="3.2" fill="#7c3aed" fill-opacity="0.85"/><circle cx="910.2" cy="318.6" r="3.2" fill="#dc2626" fill-opacity="0.85"/><circle cx="737.2" cy="240.0" r="3.2" fill="#d97706" fill-opacity="0.85"/><circle cx="877.9" cy="310.2" r="3.2" fill="#dc2626" fill-opacity="0.85"/><circle cx="666.0" cy="224.0" r="3.2" fill="#d97706" fill-opacity="0.85"/><circle cx="792.1" cy="575.8" r="3.2" fill="#0891b2" fill-opacity="0.85"/><circle cx="586.7" cy="368.8" r="3.2" fill="#2563eb" fill-opacity="0.85"/><circle cx="438.2" cy="283.0" r="3.2" fill="#16a34a" fill-opacity="0.85"/><circle cx="207.2" cy="126.0" r="3.2" fill="#2563eb" fill-opacity="0.85"/><circle cx="649.2" cy="380.1" r="3.2" fill="#7c3aed" fill-opacity="0.85"/><circle cx="685.5" cy="392.0" r="3.2" fill="#7c3aed" fill-opacity="0.85"/><circle cx="613.4" cy="389.6" r="3.2" fill="#7c3aed" fill-opacity="0.85"/><circle cx="829.3" cy="401.1" r="3.2" fill="#dc2626" fill-opacity="0.85"/><circle cx="684.1" cy="430.3" r="3.2" fill="#0891b2" fill-opacity="0.85"/><circle cx="619.7" cy="315.1" r="3.2" fill="#d97706" fill-opacity="0.85"/><circle cx="738.4" cy="398.1" r="3.2" fill="#7c3aed" fill-opacity="0.85"/><circle cx="768.3" cy="578.7" r="3.2" fill="#0891b2" fill-opacity="0.85"/><circle cx="472.8" cy="296.4" r="3.2" fill="#16a34a" fill-opacity="0.85"/><circle cx="712.8" cy="433.8" r="3.2" fill="#0891b2" fill-opacity="0.85"/><circle cx="505.5" cy="280.0" r="3.2" fill="#16a34a" fill-opacity="0.85"/><circle cx="565.6" cy="369.9" r="3.2" fill="#2563eb" fill-opacity="0.85"/><circle cx="712.5" cy="245.3" r="3.2" fill="#d97706" fill-opacity="0.85"/><circle cx="727.7" cy="425.0" r="3.2" fill="#0891b2" fill-opacity="0.85"/><circle cx="636.9" cy="387.1" r="3.2" fill="#7c3aed" fill-opacity="0.85"/><circle cx="610.8" cy="298.8" r="3.2" fill="#d97706" fill-opacity="0.85"/><circle cx="755.1" cy="396.0" r="3.2" fill="#7c3aed" fill-opacity="0.85"/><circle cx="835.7" cy="353.0" r="3.2" fill="#dc2626" fill-opacity="0.85"/><circle cx="623.3" cy="388.0" r="3.2" fill="#7c3aed" fill-opacity="0.85"/><circle cx="765.8" cy="329.9" r="3.2" fill="#d97706" fill-opacity="0.85"/><circle cx="758.9" cy="548.5" r="3.2" fill="#0891b2" fill-opacity="0.85"/><circle cx="520.0" cy="319.1" r="3.2" fill="#16a34a" fill-opacity="0.85"/><circle cx="896.4" cy="301.7" r="3.2" fill="#dc2626" fill-opacity="0.85"/><circle cx="692.3" cy="243.7" r="3.2" fill="#d97706" fill-opacity="0.85"/><circle cx="619.1" cy="324.7" r="3.2" fill="#d97706" fill-opacity="0.85"/><circle cx="677.7" cy="420.5" r="3.2" fill="#0891b2" fill-opacity="0.85"/><circle cx="747.7" cy="410.2" r="3.2" fill="#7c3aed" fill-opacity="0.85"/><circle cx="564.6" cy="307.5" r="3.2" fill="#16a34a" fill-opacity="0.85"/><circle cx="639.4" cy="376.9" r="3.2" fill="#7c3aed" fill-opacity="0.85"/><circle cx="776.4" cy="574.8" r="3.2" fill="#0891b2" fill-opacity="0.85"/><circle cx="236.5" cy="128.3" r="3.2" fill="#2563eb" fill-opacity="0.85"/><circle cx="281.5" cy="133.7" r="3.2" fill="#2563eb" fill-opacity="0.85"/><circle cx="720.8" cy="227.5" r="3.2" fill="#dc2626" fill-opacity="0.85"/><circle cx="810.4" cy="360.2" r="3.2" fill="#7c3aed" fill-opacity="0.85"/><circle cx="552.5" cy="359.2" r="3.2" fill="#2563eb" fill-opacity="0.85"/><circle cx="400.9" cy="290.2" r="3.2" fill="#16a34a" fill-opacity="0.85"/><circle cx="839.2" cy="349.9" r="3.2" fill="#dc2626" fill-opacity="0.85"/><circle cx="605.9" cy="394.2" r="3.2" fill="#7c3aed" fill-opacity="0.85"/><circle cx="589.3" cy="302.4" r="3.2" fill="#d97706" fill-opacity="0.85"/><circle cx="635.2" cy="397.0" r="3.2" fill="#7c3aed" fill-opacity="0.85"/><circle cx="211.1" cy="121.8" r="3.2" fill="#2563eb" fill-opacity="0.85"/><circle cx="857.6" cy="338.4" r="3.2" fill="#dc2626" fill-opacity="0.85"/><circle cx="694.5" cy="425.3" r="3.2" fill="#7c3aed" fill-opacity="0.85"/><circle cx="549.6" cy="357.7" r="3.2" fill="#2563eb" fill-opacity="0.85"/><circle cx="545.8" cy="322.4" r="3.2" fill="#16a34a" fill-opacity="0.85"/><circle cx="974.8" cy="313.0" r="3.2" fill="#dc2626" fill-opacity="0.85"/><circle cx="731.1" cy="387.4" r="3.2" fill="#7c3aed" fill-opacity="0.85"/><circle cx="601.6" cy="322.7" r="3.2" fill="#d97706" fill-opacity="0.85"/><circle cx="410.5" cy="266.2" r="3.2" fill="#16a34a" fill-opacity="0.85"/><circle cx="627.9" cy="383.3" r="3.2" fill="#7c3aed" fill-opacity="0.85"/><circle cx="692.3" cy="236.1" r="3.2" fill="#d97706" fill-opacity="0.85"/><circle cx="409.4" cy="280.1" r="3.2" fill="#16a34a" fill-opacity="0.85"/><circle cx="681.7" cy="421.5" r="3.2" fill="#7c3aed" fill-opacity="0.85"/><circle cx="831.3" cy="400.9" r="3.2" fill="#dc2626" fill-opacity="0.85"/><circle cx="660.7" cy="320.3" r="3.2" fill="#d97706" fill-opacity="0.85"/><circle cx="220.7" cy="121.9" r="3.2" fill="#2563eb" fill-opacity="0.85"/><circle cx="257.3" cy="269.8" r="3.2" fill="#2563eb" fill-opacity="0.85"/><circle cx="772.2" cy="346.5" r="3.2" fill="#d97706" fill-opacity="0.85"/><circle cx="274.4" cy="279.0" r="3.2" fill="#2563eb" fill-opacity="0.85"/><circle cx="562.3" cy="351.7" r="3.2" fill="#d97706" fill-opacity="0.85"/><circle cx="558.5" cy="307.3" r="3.2" fill="#16a34a" fill-opacity="0.85"/><circle cx="272.3" cy="275.8" r="3.2" fill="#2563eb" fill-opacity="0.85"/><circle cx="666.3" cy="391.5" r="3.2" fill="#7c3aed" fill-opacity="0.85"/><circle cx="935.9" cy="328.2" r="3.2" fill="#dc2626" fill-opacity="0.85"/><circle cx="876.5" cy="317.7" r="3.2" fill="#dc2626" fill-opacity="0.85"/><circle cx="524.8" cy="299.0" r="3.2" fill="#16a34a" fill-opacity="0.85"/><circle cx="756.6" cy="565.5" r="3.2" fill="#0891b2" fill-opacity="0.85"/><circle cx="277.4" cy="272.1" r="3.2" fill="#2563eb" fill-opacity="0.85"/><circle cx="670.7" cy="389.4" r="3.2" fill="#7c3aed" fill-opacity="0.85"/><circle cx="728.7" cy="230.7" r="3.2" fill="#dc2626" fill-opacity="0.85"/><circle cx="683.2" cy="392.3" r="3.2" fill="#7c3aed" fill-opacity="0.85"/><circle cx="666.0" cy="320.7" r="3.2" fill="#d97706" fill-opacity="0.85"/><circle cx="425.7" cy="263.2" r="3.2" fill="#16a34a" fill-opacity="0.85"/><circle cx="719.9" cy="416.5" r="3.2" fill="#0891b2" fill-opacity="0.85"/><circle cx="783.0" cy="422.1" r="3.2" fill="#0891b2" fill-opacity="0.85"/><circle cx="928.4" cy="312.0" r="3.2" fill="#dc2626" fill-opacity="0.85"/><circle cx="682.3" cy="431.6" r="3.2" fill="#0891b2" fill-opacity="0.85"/><circle cx="578.7" cy="295.6" r="3.2" fill="#d97706" fill-opacity="0.85"/><circle cx="583.2" cy="321.4" r="3.2" fill="#d97706" fill-opacity="0.85"/><circle cx="626.4" cy="310.3" r="3.2" fill="#d97706" fill-opacity="0.85"/><circle cx="897.6" cy="319.4" r="3.2" fill="#dc2626" fill-opacity="0.85"/><circle cx="571.5" cy="319.3" r="3.2" fill="#16a34a" fill-opacity="0.85"/><circle cx="697.8" cy="574.2" r="3.2" fill="#0891b2" fill-opacity="0.85"/><circle cx="249.7" cy="126.4" r="3.2" fill="#2563eb" fill-opacity="0.85"/><circle cx="546.6" cy="380.6" r="3.2" fill="#2563eb" fill-opacity="0.85"/><circle cx="244.6" cy="114.0" r="3.2" fill="#2563eb" fill-opacity="0.85"/><circle cx="672.0" cy="396.3" r="3.2" fill="#7c3aed" fill-opacity="0.85"/><circle cx="854.0" cy="405.9" r="3.2" fill="#dc2626" fill-opacity="0.85"/><circle cx="570.8" cy="278.9" r="3.2" fill="#16a34a" fill-opacity="0.85"/><circle cx="625.3" cy="320.0" r="3.2" fill="#d97706" fill-opacity="0.85"/><circle cx="602.2" cy="322.4" r="3.2" fill="#d97706" fill-opacity="0.85"/><circle cx="661.9" cy="319.6" r="3.2" fill="#d97706" fill-opacity="0.85"/><circle cx="684.1" cy="440.9" r="3.2" fill="#0891b2" fill-opacity="0.85"/><circle cx="611.0" cy="362.9" r="3.2" fill="#7c3aed" fill-opacity="0.85"/><circle cx="761.5" cy="360.2" r="3.2" fill="#7c3aed" fill-opacity="0.85"/><circle cx="579.7" cy="371.5" r="3.2" fill="#2563eb" fill-opacity="0.85"/><circle cx="656.8" cy="392.1" r="3.2" fill="#7c3aed" fill-opacity="0.85"/><circle cx="691.6" cy="234.3" r="3.2" fill="#d97706" fill-opacity="0.85"/><circle cx="661.7" cy="311.6" r="3.2" fill="#d97706" fill-opacity="0.85"/><circle cx="764.0" cy="331.2" r="3.2" fill="#d97706" fill-opacity="0.85"/><circle cx="607.2" cy="387.4" r="3.2" fill="#7c3aed" fill-opacity="0.85"/><circle cx="605.8" cy="320.5" r="3.2" fill="#d97706" fill-opacity="0.85"/><circle cx="820.4" cy="412.1" r="3.2" fill="#dc2626" fill-opacity="0.85"/><circle cx="598.1" cy="387.2" r="3.2" fill="#2563eb" fill-opacity="0.85"/><circle cx="674.2" cy="381.3" r="3.2" fill="#7c3aed" fill-opacity="0.85"/><circle cx="606.3" cy="326.8" r="3.2" fill="#d97706" fill-opacity="0.85"/><circle cx="570.8" cy="321.3" r="3.2" fill="#16a34a" fill-opacity="0.85"/><circle cx="657.2" cy="400.1" r="3.2" fill="#7c3aed" fill-opacity="0.85"/><circle cx="760.1" cy="409.0" r="3.2" fill="#7c3aed" fill-opacity="0.85"/><circle cx="303.9" cy="266.0" r="3.2" fill="#2563eb" fill-opacity="0.85"/><circle cx="589.9" cy="393.4" r="3.2" fill="#2563eb" fill-opacity="0.85"/><circle cx="845.9" cy="359.7" r="3.2" fill="#7c3aed" fill-opacity="0.85"/><circle cx="635.4" cy="313.9" r="3.2" fill="#d97706" fill-opacity="0.85"/><circle cx="914.0" cy="334.4" r="3.2" fill="#dc2626" fill-opacity="0.85"/><circle cx="526.8" cy="280.9" r="3.2" fill="#16a34a" fill-opacity="0.85"/><circle cx="592.1" cy="368.6" r="3.2" fill="#2563eb" fill-opacity="0.85"/><circle cx="824.2" cy="343.7" r="3.2" fill="#dc2626" fill-opacity="0.85"/><circle cx="657.8" cy="440.4" r="3.2" fill="#0891b2" fill-opacity="0.85"/><circle cx="261.4" cy="266.8" r="3.2" fill="#2563eb" fill-opacity="0.85"/><circle cx="594.5" cy="322.1" r="3.2" fill="#d97706" fill-opacity="0.85"/><circle cx="723.6" cy="581.5" r="3.2" fill="#0891b2" fill-opacity="0.85"/><circle cx="706.7" cy="429.1" r="3.2" fill="#0891b2" fill-opacity="0.85"/><circle cx="833.5" cy="341.4" r="3.2" fill="#dc2626" fill-opacity="0.85"/><circle cx="876.0" cy="346.3" r="3.2" fill="#dc2626" fill-opacity="0.85"/><circle cx="371.4" cy="268.4" r="3.2" fill="#2563eb" fill-opacity="0.85"/><circle cx="640.1" cy="279.6" r="3.2" fill="#d97706" fill-opacity="0.85"/><circle cx="922.1" cy="345.3" r="3.2" fill="#dc2626" fill-opacity="0.85"/><circle cx="718.4" cy="402.4" r="3.2" fill="#7c3aed" fill-opacity="0.85"/><circle cx="664.7" cy="388.8" r="3.2" fill="#7c3aed" fill-opacity="0.85"/><circle cx="601.2" cy="306.4" r="3.2" fill="#d97706" fill-opacity="0.85"/><circle cx="626.4" cy="375.4" r="3.2" fill="#7c3aed" fill-opacity="0.85"/><circle cx="575.2" cy="370.7" r="3.2" fill="#2563eb" fill-opacity="0.85"/><circle cx="955.4" cy="315.1" r="3.2" fill="#dc2626" fill-opacity="0.85"/><circle cx="929.1" cy="328.6" r="3.2" fill="#dc2626" fill-opacity="0.85"/><circle cx="784.2" cy="567.2" r="3.2" fill="#0891b2" fill-opacity="0.85"/><circle cx="599.9" cy="308.4" r="3.2" fill="#d97706" fill-opacity="0.85"/><circle cx="555.1" cy="308.6" r="3.2" fill="#16a34a" fill-opacity="0.85"/><circle cx="637.2" cy="324.8" r="3.2" fill="#d97706" fill-opacity="0.85"/><circle cx="682.3" cy="426.3" r="3.2" fill="#7c3aed" fill-opacity="0.85"/><circle cx="862.2" cy="339.1" r="3.2" fill="#dc2626" fill-opacity="0.85"/><circle cx="879.5" cy="306.1" r="3.2" fill="#dc2626" fill-opacity="0.85"/><circle cx="820.7" cy="331.1" r="3.2" fill="#dc2626" fill-opacity="0.85"/><circle cx="591.5" cy="308.9" r="3.2" fill="#d97706" fill-opacity="0.85"/><circle cx="682.7" cy="313.3" r="3.2" fill="#d97706" fill-opacity="0.85"/><circle cx="956.7" cy="335.2" r="3.2" fill="#dc2626" fill-opacity="0.85"/><circle cx="268.8" cy="269.0" r="3.2" fill="#2563eb" fill-opacity="0.85"/><circle cx="625.6" cy="298.8" r="3.2" fill="#d97706" fill-opacity="0.85"/><circle cx="835.2" cy="345.5" r="3.2" fill="#dc2626" fill-opacity="0.85"/><circle cx="769.8" cy="415.4" r="3.2" fill="#0891b2" fill-opacity="0.85"/><circle cx="650.7" cy="390.1" r="3.2" fill="#7c3aed" fill-opacity="0.85"/><circle cx="684.1" cy="578.4" r="3.2" fill="#0891b2" fill-opacity="0.85"/><circle cx="337.8" cy="130.9" r="3.2" fill="#16a34a" fill-opacity="0.85"/><circle cx="623.1" cy="324.2" r="3.2" fill="#d97706" fill-opacity="0.85"/><circle cx="286.2" cy="118.7" r="3.2" fill="#2563eb" fill-opacity="0.85"/><circle cx="809.8" cy="341.8" r="3.2" fill="#dc2626" fill-opacity="0.85"/><circle cx="710.9" cy="387.7" r="3.2" fill="#7c3aed" fill-opacity="0.85"/><circle cx="643.6" cy="314.7" r="3.2" fill="#d97706" fill-opacity="0.85"/><circle cx="794.6" cy="415.9" r="3.2" fill="#0891b2" fill-opacity="0.85"/><circle cx="775.5" cy="354.5" r="3.2" fill="#7c3aed" fill-opacity="0.85"/><circle cx="811.9" cy="565.1" r="3.2" fill="#0891b2" fill-opacity="0.85"/><circle cx="494.9" cy="268.4" r="3.2" fill="#16a34a" fill-opacity="0.85"/><circle cx="557.4" cy="329.9" r="3.2" fill="#d97706" fill-opacity="0.85"/><circle cx="303.1" cy="125.0" r="3.2" fill="#16a34a" fill-opacity="0.85"/><circle cx="734.1" cy="243.5" r="3.2" fill="#d97706" fill-opacity="0.85"/><circle cx="561.8" cy="287.6" r="3.2" fill="#16a34a" fill-opacity="0.85"/><circle cx="760.3" cy="432.3" r="3.2" fill="#0891b2" fill-opacity="0.85"/><circle cx="334.2" cy="280.3" r="3.2" fill="#2563eb" fill-opacity="0.85"/><circle cx="285.6" cy="284.2" r="3.2" fill="#2563eb" fill-opacity="0.85"/><circle cx="570.7" cy="379.4" r="3.2" fill="#2563eb" fill-opacity="0.85"/><circle cx="452.1" cy="262.5" r="3.2" fill="#16a34a" fill-opacity="0.85"/><circle cx="833.4" cy="343.1" r="3.2" fill="#dc2626" fill-opacity="0.85"/><circle cx="708.7" cy="233.0" r="3.2" fill="#dc2626" fill-opacity="0.85"/><circle cx="802.1" cy="337.0" r="3.2" fill="#d97706" fill-opacity="0.85"/><circle cx="650.9" cy="378.2" r="3.2" fill="#7c3aed" fill-opacity="0.85"/><circle cx="560.2" cy="311.0" r="3.2" fill="#16a34a" fill-opacity="0.85"/><circle cx="950.0" cy="313.9" r="3.2" fill="#dc2626" fill-opacity="0.85"/><circle cx="811.0" cy="549.4" r="3.2" fill="#0891b2" fill-opacity="0.85"/><circle cx="648.8" cy="393.2" r="3.2" fill="#7c3aed" fill-opacity="0.85"/><circle cx="595.2" cy="356.2" r="3.2" fill="#2563eb" fill-opacity="0.85"/><circle cx="645.2" cy="316.7" r="3.2" fill="#d97706" fill-opacity="0.85"/><circle cx="634.6" cy="398.1" r="3.2" fill="#7c3aed" fill-opacity="0.85"/><circle cx="763.0" cy="568.7" r="3.2" fill="#0891b2" fill-opacity="0.85"/><circle cx="664.7" cy="441.9" r="3.2" fill="#0891b2" fill-opacity="0.85"/><circle cx="275.1" cy="279.2" r="3.2" fill="#2563eb" fill-opacity="0.85"/><circle cx="944.0" cy="322.9" r="3.2" fill="#dc2626" fill-opacity="0.85"/><circle cx="832.7" cy="347.4" r="3.2" fill="#dc2626" fill-opacity="0.85"/><circle cx="693.5" cy="319.5" r="3.2" fill="#d97706" fill-opacity="0.85"/><circle cx="646.4" cy="393.2" r="3.2" fill="#7c3aed" fill-opacity="0.85"/><circle cx="553.7" cy="364.9" r="3.2" fill="#2563eb" fill-opacity="0.85"/><circle cx="866.5" cy="412.0" r="3.2" fill="#dc2626" fill-opacity="0.85"/><circle cx="551.2" cy="283.4" r="3.2" fill="#16a34a" fill-opacity="0.85"/><circle cx="984.0" cy="320.8" r="3.2" fill="#dc2626" fill-opacity="0.85"/><circle cx="519.8" cy="298.3" r="3.2" fill="#16a34a" fill-opacity="0.85"/><circle cx="276.3" cy="277.6" r="3.2" fill="#2563eb" fill-opacity="0.85"/><circle cx="658.6" cy="406.2" r="3.2" fill="#7c3aed" fill-opacity="0.85"/><circle cx="538.7" cy="316.3" r="3.2" fill="#16a34a" fill-opacity="0.85"/><circle cx="246.7" cy="116.1" r="3.2" fill="#2563eb" fill-opacity="0.85"/><circle cx="755.1" cy="560.8" r="3.2" fill="#0891b2" fill-opacity="0.85"/><circle cx="563.0" cy="311.8" r="3.2" fill="#16a34a" fill-opacity="0.85"/><circle cx="529.1" cy="292.9" r="3.2" fill="#16a34a" fill-opacity="0.85"/><circle cx="289.8" cy="267.0" r="3.2" fill="#2563eb" fill-opacity="0.85"/><circle cx="692.8" cy="397.5" r="3.2" fill="#7c3aed" fill-opacity="0.85"/><circle cx="551.8" cy="295.8" r="3.2" fill="#16a34a" fill-opacity="0.85"/><circle cx="359.5" cy="137.4" r="3.2" fill="#16a34a" fill-opacity="0.85"/><circle cx="288.6" cy="257.6" r="3.2" fill="#2563eb" fill-opacity="0.85"/><circle cx="880.4" cy="340.9" r="3.2" fill="#dc2626" fill-opacity="0.85"/><circle cx="654.6" cy="384.8" r="3.2" fill="#7c3aed" fill-opacity="0.85"/><circle cx="903.1" cy="318.1" r="3.2" fill="#dc2626" fill-opacity="0.85"/><circle cx="442.6" cy="287.1" r="3.2" fill="#16a34a" fill-opacity="0.85"/><circle cx="585.6" cy="311.9" r="3.2" fill="#d97706" fill-opacity="0.85"/><circle cx="744.7" cy="410.0" r="3.2" fill="#7c3aed" fill-opacity="0.85"/><circle cx="328.2" cy="281.5" r="3.2" fill="#2563eb" fill-opacity="0.85"/><circle cx="813.4" cy="348.8" r="3.2" fill="#dc2626" fill-opacity="0.85"/><circle cx="784.7" cy="396.7" r="3.2" fill="#7c3aed" fill-opacity="0.85"/><circle cx="835.3" cy="342.6" r="3.2" fill="#dc2626" fill-opacity="0.85"/><circle cx="765.1" cy="413.0" r="3.2" fill="#7c3aed" fill-opacity="0.85"/><circle cx="714.7" cy="222.9" r="3.2" fill="#dc2626" fill-opacity="0.85"/><circle cx="817.8" cy="339.2" r="3.2" fill="#dc2626" fill-opacity="0.85"/><circle cx="841.2" cy="341.3" r="3.2" fill="#dc2626" fill-opacity="0.85"/><circle cx="640.4" cy="428.8" r="3.2" fill="#0891b2" fill-opacity="0.85"/><circle cx="529.2" cy="349.0" r="3.2" fill="#16a34a" fill-opacity="0.85"/><circle cx="764.7" cy="572.4" r="3.2" fill="#0891b2" fill-opacity="0.85"/><circle cx="321.2" cy="153.4" r="3.2" fill="#16a34a" fill-opacity="0.85"/><circle cx="804.8" cy="351.5" r="3.2" fill="#d97706" fill-opacity="0.85"/><circle cx="190.6" cy="149.2" r="3.2" fill="#2563eb" fill-opacity="0.85"/><circle cx="809.5" cy="359.5" r="3.2" fill="#7c3aed" fill-opacity="0.85"/><circle cx="865.5" cy="332.2" r="3.2" fill="#dc2626" fill-opacity="0.85"/><circle cx="641.6" cy="431.7" r="3.2" fill="#0891b2" fill-opacity="0.85"/><circle cx="789.6" cy="416.4" r="3.2" fill="#0891b2" fill-opacity="0.85"/><circle cx="667.5" cy="405.8" r="3.2" fill="#7c3aed" fill-opacity="0.85"/><circle cx="607.5" cy="296.7" r="3.2" fill="#d97706" fill-opacity="0.85"/><circle cx="556.3" cy="369.6" r="3.2" fill="#2563eb" fill-opacity="0.85"/><circle cx="268.3" cy="149.4" r="3.2" fill="#2563eb" fill-opacity="0.85"/><circle cx="542.7" cy="290.2" r="3.2" fill="#16a34a" fill-opacity="0.85"/><circle cx="665.6" cy="246.0" r="3.2" fill="#d97706" fill-opacity="0.85"/><circle cx="514.5" cy="285.2" r="3.2" fill="#16a34a" fill-opacity="0.85"/><circle cx="286.7" cy="144.5" r="3.2" fill="#2563eb" fill-opacity="0.85"/><circle cx="704.7" cy="425.4" r="3.2" fill="#0891b2" fill-opacity="0.85"/><circle cx="727.7" cy="422.7" r="3.2" fill="#0891b2" fill-opacity="0.85"/><circle cx="703.5" cy="438.7" r="3.2" fill="#0891b2" fill-opacity="0.85"/><circle cx="647.2" cy="374.1" r="3.2" fill="#7c3aed" fill-opacity="0.85"/><circle cx="619.7" cy="438.1" r="3.2" fill="#0891b2" fill-opacity="0.85"/><circle cx="619.0" cy="223.2" r="3.2" fill="#d97706" fill-opacity="0.85"/><circle cx="659.8" cy="391.9" r="3.2" fill="#7c3aed" fill-opacity="0.85"/><circle cx="673.7" cy="237.0" r="3.2" fill="#d97706" fill-opacity="0.85"/><circle cx="610.6" cy="350.2" r="3.2" fill="#d97706" fill-opacity="0.85"/><circle cx="339.3" cy="276.1" r="3.2" fill="#2563eb" fill-opacity="0.85"/><circle cx="697.1" cy="384.1" r="3.2" fill="#7c3aed" fill-opacity="0.85"/><circle cx="677.5" cy="425.2" r="3.2" fill="#0891b2" fill-opacity="0.85"/><circle cx="666.3" cy="385.4" r="3.2" fill="#7c3aed" fill-opacity="0.85"/><circle cx="265.1" cy="266.8" r="3.2" fill="#2563eb" fill-opacity="0.85"/><circle cx="834.7" cy="337.5" r="3.2" fill="#dc2626" fill-opacity="0.85"/><circle cx="528.8" cy="366.7" r="3.2" fill="#2563eb" fill-opacity="0.85"/><circle cx="824.4" cy="405.0" r="3.2" fill="#dc2626" fill-opacity="0.85"/><circle cx="323.1" cy="263.0" r="3.2" fill="#2563eb" fill-opacity="0.85"/><circle cx="415.7" cy="256.9" r="3.2" fill="#16a34a" fill-opacity="0.85"/><circle cx="884.9" cy="355.0" r="3.2" fill="#dc2626" fill-opacity="0.85"/><circle cx="550.8" cy="309.1" r="3.2" fill="#16a34a" fill-opacity="0.85"/><circle cx="758.0" cy="237.4" r="3.2" fill="#d97706" fill-opacity="0.85"/><circle cx="671.4" cy="233.3" r="3.2" fill="#d97706" fill-opacity="0.85"/><circle cx="300.9" cy="130.7" r="3.2" fill="#16a34a" fill-opacity="0.85"/><circle cx="577.7" cy="363.9" r="3.2" fill="#2563eb" fill-opacity="0.85"/><circle cx="883.0" cy="321.8" r="3.2" fill="#dc2626" fill-opacity="0.85"/><circle cx="803.5" cy="397.1" r="3.2" fill="#7c3aed" fill-opacity="0.85"/><circle cx="824.8" cy="342.6" r="3.2" fill="#dc2626" fill-opacity="0.85"/><circle cx="548.4" cy="306.0" r="3.2" fill="#16a34a" fill-opacity="0.85"/><circle cx="936.3" cy="313.0" r="3.2" fill="#dc2626" fill-opacity="0.85"/><circle cx="338.1" cy="121.3" r="3.2" fill="#16a34a" fill-opacity="0.85"/><circle cx="263.1" cy="271.4" r="3.2" fill="#2563eb" fill-opacity="0.85"/><circle cx="265.6" cy="267.1" r="3.2" fill="#2563eb" fill-opacity="0.85"/><circle cx="303.9" cy="277.1" r="3.2" fill="#2563eb" fill-opacity="0.85"/><rect x="192" y="109" width="10" height="10" rx="2" fill="#2563eb"/><text x="206" y="118" font-size="10" fill="#334155">Route 1</text><rect x="284" y="109" width="10" height="10" rx="2" fill="#16a34a"/><text x="298" y="118" font-size="10" fill="#334155">Route 2</text><rect x="376" y="109" width="10" height="10" rx="2" fill="#d97706"/><text x="390" y="118" font-size="10" fill="#334155">Route 3</text><rect x="468" y="109" width="10" height="10" rx="2" fill="#dc2626"/><text x="482" y="118" font-size="10" fill="#334155">Route 4</text><rect x="560" y="109" width="10" height="10" rx="2" fill="#7c3aed"/><text x="574" y="118" font-size="10" fill="#334155">Route 5</text><rect x="652" y="109" width="10" height="10" rx="2" fill="#0891b2"/><text x="666" y="118" font-size="10" fill="#334155">Route 6</text></svg>