<svg xmlns="http://www.w3.org/2000/svg" viewBox="0 0 200 200" width="200" height="200"><rect width="200" height="200" fill="#fbe6cf"/><g stroke="#7a4a1e" stroke-width="2"><path d="M44 80c0-27 25-46 56-46s56 19 56 46z" fill="#e7a44d"/><circle cx="84" cy="56" r="2.4" fill="#fff3df" stroke="none"/><circle cx="108" cy="52" r="2.4" fill="#fff3df" stroke="none"/><rect x="42" y="80" width="116" height="11" rx="6" fill="#8fc24a"/><path d="M50 91l18 18 18-18 18 18 18-18 18 18 18-18z" fill="#f6c945" stroke="#d9a93a"/><path d="M50 91l18 18 18-18 18 18 18-18 18 18 18-18z" fill="#f6c945"/><rect x="42" y="98" width="116" height="15" rx="5" fill="#6b3f1d"/><path d="M44 113h112c0 16-26 26-56 26s-56-10-56-26z" fill="#e7a44d"/></g></svg>
