<svg xmlns="http://www.w3.org/2000/svg" viewBox="0 0 200 200" width="200" height="200"><rect width="200" height="200" fill="#fdeede"/><g stroke="#a85a12" stroke-width="2" fill="#eab35a"><g fill="#eab35a"><path d="M58 78c10-8 26-6 30 6 3 12-10 22-24 18-12-3-16-16-6-24z"/><path d="M104 70c12-6 28 0 28 14 0 12-14 20-26 14-10-5-12-22-2-28z"/><path d="M74 110c12-5 26 2 24 16-2 11-18 16-28 8-8-7-6-20 4-24z"/></g><ellipse cx="132" cy="120" rx="20" ry="13" fill="#e23b2b" stroke="#9a3b22"/><ellipse cx="132" cy="116" rx="13" ry="7" fill="#f25b46" stroke="none"/></g></svg>
